{"glyphs":{"0":{"ha":925,"x_min":69,"x_max":856,"o":"m 856 451 q 835 242 856 342 q 767 66 814 142 q 645 -55 719 -10 q 463 -100 571 -100 q 280 -55 354 -100 q 158 66 206 -10 q 90 242 111 142 q 69 451 69 342 q 90 660 69 561 q 158 836 111 760 q 280 958 206 913 q 463 1003 354 1003 q 645 958 571 1003 q 767 836 719 913 q 835 660 814 760 q 856 451 856 561 m 250 451 q 261 299 250 371 q 298 174 272 228 q 364 90 324 121 q 463 58 404 58 q 561 90 521 58 q 627 174 601 121 q 664 299 653 228 q 675 451 675 371 q 664 603 675 532 q 627 728 653 675 q 561 813 601 782 q 463 844 521 844 q 364 813 404 844 q 298 728 324 782 q 261 603 272 675 q 250 451 250 532 z "},"1":{"ha":621,"x_min":18,"x_max":454,"o":"m 454 -56 q 426 -83 454 -83 l 310 -83 q 282 -56 282 -83 l 282 776 l 119 685 q 99 681 108 678 q 82 696 89 685 l 32 783 q 43 821 18 807 l 346 988 q 372 1001 364 999 q 400 1003 381 1003 l 426 1003 q 454 975 454 1003 l 454 -56 l 454 -56 z "},"2":{"ha":888,"x_min":65,"x_max":804,"o":"m 625 665 q 573 796 625 747 q 438 844 521 844 q 357 829 392 844 q 298 790 322 814 q 258 735 274 765 q 235 675 243 704 q 200 654 228 647 l 88 686 q 69 719 65 692 q 97 798 75 750 q 163 892 119 846 q 274 970 207 938 q 439 1003 342 1003 q 590 979 522 1003 q 705 911 657 956 q 778 804 753 867 q 804 665 804 742 q 761 488 804 571 q 650 331 718 404 q 499 194 582 257 q 338 75 417 131 l 763 75 q 790 47 790 75 l 790 -56 q 763 -83 790 -83 l 110 -83 q 82 -56 82 -83 l 82 42 q 89 73 82 61 q 119 100 96 85 q 315 238 224 169 q 476 375 407 306 q 585 516 544 444 q 625 665 625 588 z "},"3":{"ha":888,"x_min":39,"x_max":811,"o":"m 435 58 q 581 103 529 58 q 632 214 632 147 q 577 333 632 290 q 408 376 522 376 l 342 376 q 314 404 314 376 l 314 501 q 342 529 314 529 l 396 529 q 506 544 463 529 q 575 584 550 560 q 610 637 600 608 q 621 692 621 665 q 572 803 621 761 q 440 844 522 844 q 311 815 360 844 q 226 736 263 785 q 207 725 218 725 q 186 732 196 725 l 100 792 q 96 829 82 804 q 142 886 113 856 q 215 943 172 917 q 314 986 257 969 q 442 1003 371 1003 q 593 980 526 1003 q 706 918 660 957 q 776 828 751 879 q 800 719 800 776 q 746 561 800 624 q 604 464 692 499 q 811 200 811 407 q 785 83 811 138 q 709 -12 758 28 q 590 -76 660 -53 q 433 -100 519 -100 q 289 -84 351 -100 q 180 -43 226 -68 q 101 13 133 -18 q 49 74 69 44 q 41 90 43 81 q 50 108 39 99 l 136 185 q 172 182 156 201 q 282 92 215 126 q 435 58 349 58 z "},"4":{"ha":944,"x_min":35,"x_max":889,"o":"m 63 161 q 35 189 35 161 l 35 263 q 38 285 35 274 q 49 308 40 297 l 526 967 q 565 986 539 986 l 708 986 q 736 958 736 986 l 736 319 l 861 319 q 889 292 889 319 l 889 189 q 861 161 889 161 l 736 161 l 736 -56 q 708 -83 736 -83 l 592 -83 q 564 -56 564 -83 l 564 161 l 63 161 m 564 319 l 564 768 l 239 319 l 564 319 z "},"5":{"ha":901,"x_min":53,"x_max":832,"o":"m 439 58 q 531 73 490 58 q 598 113 571 88 q 639 173 625 139 q 653 246 653 207 q 591 388 653 332 q 418 443 529 443 q 360 440 386 443 q 313 431 335 438 q 270 417 290 425 q 229 399 250 408 q 183 400 207 386 l 140 425 q 115 475 111 443 l 181 958 q 208 986 185 986 l 771 986 q 799 958 799 986 l 799 856 q 771 828 799 828 l 336 828 l 301 568 q 370 588 333 581 q 451 596 407 596 q 618 569 547 596 q 737 494 689 542 q 808 382 785 446 q 832 246 832 318 q 805 115 832 178 q 728 5 778 53 q 607 -72 678 -43 q 447 -100 536 -100 q 303 -84 365 -100 q 194 -43 240 -68 q 115 13 147 -18 q 63 74 83 44 q 55 90 57 81 q 64 108 53 99 l 150 185 q 186 182 169 201 q 292 92 229 126 q 439 58 356 58 z "},"6":{"ha":925,"x_min":69,"x_max":856,"o":"m 476 58 q 624 113 571 58 q 676 253 676 167 q 622 401 676 344 q 479 457 567 457 q 340 406 400 457 q 251 278 279 356 q 330 116 271 174 q 476 58 389 58 m 69 426 q 93 643 69 539 q 169 827 117 747 q 304 955 221 907 q 506 1003 388 1003 q 621 989 569 1003 q 713 953 672 975 q 783 905 753 932 q 835 853 814 878 q 835 814 853 831 l 757 743 q 739 734 749 736 q 718 743 729 732 q 622 817 674 789 q 501 844 571 844 q 386 814 435 844 q 306 731 338 783 q 260 609 275 679 q 243 461 244 539 q 347 569 275 528 q 504 610 418 610 q 656 582 590 610 q 767 506 722 554 q 833 392 811 457 q 856 253 856 328 q 830 119 856 183 q 756 7 804 56 q 637 -71 707 -42 q 476 -100 567 -100 q 292 -59 369 -100 q 166 53 215 -18 q 93 221 117 125 q 69 426 69 317 z "},"7":{"ha":813,"x_min":42,"x_max":771,"o":"m 582 828 l 69 828 q 42 856 42 828 l 42 958 q 69 986 42 986 l 743 986 q 771 958 771 986 l 771 868 q 770 852 771 857 q 764 836 769 847 l 304 -82 q 289 -96 299 -93 q 268 -93 279 -99 l 163 -42 q 150 -3 138 -29 l 582 828 z "},"8":{"ha":942,"x_min":76,"x_max":865,"o":"m 76 200 q 129 370 76 304 q 285 464 182 436 q 149 561 196 499 q 101 719 101 624 q 125 825 101 774 q 196 916 149 876 q 312 979 243 956 q 471 1003 381 1003 q 630 979 561 1003 q 746 916 699 956 q 817 825 793 876 q 840 719 840 774 q 793 561 840 624 q 657 464 746 499 q 813 370 760 436 q 865 200 865 304 q 838 83 865 138 q 760 -12 811 28 q 637 -76 710 -53 q 471 -100 564 -100 q 305 -76 378 -100 q 181 -12 232 -53 q 103 83 131 28 q 76 200 76 138 m 281 688 q 331 574 281 619 q 471 529 382 529 q 610 574 560 529 q 661 688 661 619 q 610 799 661 754 q 471 844 560 844 q 331 799 382 844 q 281 688 281 754 m 471 58 q 633 103 579 58 q 686 217 686 149 q 633 331 686 286 q 471 376 579 376 q 309 331 363 376 q 256 217 256 286 q 309 103 256 149 q 471 58 363 58 z "},"9":{"ha":925,"x_min":69,"x_max":856,"o":"m 419 -100 q 302 -85 354 -100 q 210 -49 250 -71 q 140 -1 169 -28 q 90 50 110 25 q 90 89 74 74 l 168 160 q 186 169 176 167 q 207 160 196 171 q 300 88 250 117 q 424 58 350 58 q 538 88 490 58 q 617 169 586 118 q 664 289 649 221 q 682 435 679 357 q 640 376 667 403 q 578 329 613 349 q 503 299 543 310 q 421 288 463 288 q 269 317 335 288 q 158 394 203 346 q 92 508 114 443 q 69 647 69 574 q 95 779 69 715 q 169 893 121 843 q 288 973 218 943 q 449 1003 358 1003 q 633 962 556 1003 q 759 849 710 921 q 832 682 808 778 q 856 476 856 586 q 832 260 856 364 q 756 76 808 156 q 621 -52 704 -4 q 419 -100 538 -100 m 249 647 q 263 565 249 603 q 303 500 278 528 q 365 456 329 472 q 446 440 401 440 q 585 492 525 440 q 674 621 646 543 q 595 786 654 728 q 449 844 536 844 q 365 829 401 844 q 302 787 328 814 q 263 724 276 760 q 249 647 249 689 z "}," ":{"ha":333,"x_min":0,"x_max":0,"o":""}," ":{"ha":333,"x_min":0,"x_max":0,"o":""},"!":{"ha":453,"x_min":122,"x_max":331,"o":"m 135 958 q 163 986 135 986 l 290 986 q 318 958 318 986 l 303 256 q 275 228 303 228 l 178 228 q 150 256 150 228 l 135 958 m 122 78 q 150 106 122 106 l 303 106 q 331 78 331 106 l 331 -72 q 303 -100 331 -100 l 150 -100 q 122 -72 122 -100 l 122 78 z "},"\"":{"ha":583,"x_min":83,"x_max":500,"o":"m 83 958 q 111 986 83 986 l 222 986 q 250 958 250 986 l 243 625 q 215 597 243 597 l 118 597 q 90 625 90 597 l 83 958 m 333 958 q 361 986 333 986 l 472 986 q 500 958 500 986 l 493 625 q 465 597 493 597 l 368 597 q 340 625 340 597 l 333 958 z "},"#":{"ha":1018,"x_min":42,"x_max":976,"o":"m 354 961 q 385 986 358 986 l 486 986 q 510 956 517 986 l 463 725 l 668 725 l 717 961 q 747 986 721 986 l 849 986 q 872 956 879 986 l 825 725 l 949 725 q 976 697 976 725 l 976 607 q 949 579 976 579 l 794 579 l 743 331 l 894 331 q 922 303 922 331 l 922 213 q 894 185 922 185 l 713 185 l 663 -58 q 632 -83 658 -83 l 531 -83 q 507 -53 500 -83 l 556 185 l 350 185 l 300 -58 q 269 -83 296 -83 l 168 -83 q 144 -53 138 -83 l 193 185 l 69 185 q 42 213 42 185 l 42 303 q 69 331 42 331 l 224 331 l 275 579 l 124 579 q 96 607 96 579 l 96 697 q 124 725 96 725 l 306 725 l 354 961 m 586 331 l 638 579 l 432 579 l 381 331 l 586 331 z "},"$":{"ha":872,"x_min":76,"x_max":789,"o":"m 506 -190 q 485 -211 506 -211 l 401 -211 q 381 -190 381 -211 l 381 -100 q 215 -70 289 -96 q 96 -14 140 -44 q 88 24 76 1 l 138 121 q 174 129 151 146 q 266 83 213 104 q 381 60 319 63 l 381 408 q 256 475 308 442 q 168 546 203 508 q 117 628 133 583 q 100 729 100 672 q 172 909 100 838 q 381 999 244 981 l 381 1093 q 401 1114 381 1114 l 485 1114 q 506 1093 506 1114 l 506 1001 q 649 973 585 994 q 754 924 714 951 q 764 888 775 911 l 714 789 q 697 776 707 778 q 675 781 686 774 q 597 817 640 801 q 506 840 554 833 l 506 543 l 519 538 q 727 397 665 478 q 789 203 789 315 q 716 9 789 88 q 506 -92 643 -69 l 506 -190 m 272 735 q 293 667 272 697 q 381 601 314 636 l 381 838 q 299 797 326 825 q 272 735 272 769 m 506 71 q 590 119 564 86 q 617 197 617 153 q 594 277 617 239 q 506 351 572 315 l 506 71 z "},"%":{"ha":1318,"x_min":69,"x_max":1249,"o":"m 885 967 q 918 986 896 986 l 1021 986 q 1043 976 1038 986 q 1040 953 1049 967 l 433 -64 q 400 -83 422 -83 l 297 -83 q 275 -74 281 -83 q 278 -50 269 -64 l 885 967 m 69 711 q 86 821 69 768 q 136 913 103 874 q 218 976 169 953 q 331 1000 267 1000 q 443 976 394 1000 q 525 913 492 953 q 575 821 558 874 q 592 711 592 768 q 575 601 592 654 q 525 509 558 549 q 443 446 492 469 q 331 422 394 422 q 218 446 267 422 q 136 509 169 469 q 86 601 103 549 q 69 711 69 654 m 208 711 q 215 651 208 681 q 238 600 222 622 q 276 564 253 578 q 331 550 299 550 q 385 564 363 550 q 424 600 408 578 q 446 651 439 622 q 453 711 453 681 q 446 771 453 742 q 424 822 439 800 q 385 858 408 844 q 331 872 363 872 q 276 858 299 872 q 238 822 253 844 q 215 771 222 800 q 208 711 208 742 m 726 192 q 743 301 726 249 q 793 394 760 354 q 875 457 826 433 q 988 481 924 481 q 1100 457 1051 481 q 1182 394 1149 433 q 1232 301 1215 354 q 1249 192 1249 249 q 1232 82 1249 135 q 1182 -10 1215 29 q 1100 -74 1149 -50 q 988 -97 1051 -97 q 875 -74 924 -97 q 793 -10 826 -50 q 743 82 760 29 q 726 192 726 135 m 865 192 q 872 132 865 161 q 894 81 879 103 q 933 44 910 58 q 988 31 956 31 q 1042 44 1019 31 q 1081 81 1065 58 q 1103 132 1096 103 q 1110 192 1110 161 q 1103 251 1110 222 q 1081 303 1096 281 q 1042 339 1065 325 q 988 353 1019 353 q 933 339 956 353 q 894 303 910 325 q 872 251 879 281 q 865 192 865 222 z "},"&":{"ha":985,"x_min":69,"x_max":960,"o":"m 69 190 q 122 358 69 283 q 283 494 175 432 l 240 546 q 179 638 206 586 q 153 743 153 689 q 174 845 153 797 q 235 928 196 893 q 329 983 274 963 q 453 1003 385 1003 q 576 983 521 1003 q 672 928 632 963 q 735 847 713 893 q 757 747 757 800 q 706 600 757 663 q 579 493 656 538 l 519 458 l 699 246 q 725 342 717 290 q 735 453 733 393 q 763 481 735 481 l 874 481 q 901 453 901 481 q 876 276 900 363 q 808 118 853 190 l 949 -49 q 956 -73 960 -62 q 933 -83 951 -83 l 793 -83 q 758 -68 772 -83 l 703 -3 q 577 -74 647 -47 q 419 -100 507 -100 q 269 -76 335 -100 q 160 -11 204 -51 q 92 81 115 29 q 69 190 69 133 m 239 203 q 250 149 239 175 q 283 101 261 122 q 338 68 304 81 q 415 56 371 56 q 604 114 529 56 l 376 383 q 267 292 296 338 q 239 203 239 247 m 322 743 q 335 689 322 715 q 367 639 347 663 l 425 569 l 456 586 q 558 658 526 622 q 590 738 590 694 q 553 819 590 788 q 453 850 515 850 q 356 819 390 850 q 322 743 322 789 z "},"'":{"ha":333,"x_min":83,"x_max":250,"o":"m 83 958 q 111 986 83 986 l 222 986 q 250 958 250 986 l 243 625 q 215 597 243 597 l 118 597 q 90 625 90 597 l 83 958 l 83 958 z "},"(":{"ha":444,"x_min":69,"x_max":432,"o":"m 272 1078 q 306 1097 283 1097 l 406 1097 q 426 1088 421 1097 q 424 1064 432 1079 q 282 747 328 904 q 236 429 236 589 q 282 112 236 269 q 424 -206 328 -46 q 426 -230 432 -221 q 406 -239 421 -239 l 306 -239 q 272 -219 283 -239 q 119 103 169 -56 q 69 429 69 263 q 119 755 69 596 q 272 1078 169 914 z "},")":{"ha":444,"x_min":13,"x_max":375,"o":"m 172 1078 q 325 755 275 914 q 375 429 375 596 q 325 103 375 263 q 172 -219 275 -56 q 139 -239 161 -239 l 39 -239 q 18 -230 24 -239 q 21 -206 13 -221 q 163 112 117 -46 q 208 429 208 269 q 163 747 208 589 q 21 1064 117 904 q 18 1088 13 1079 q 39 1097 24 1097 l 139 1097 q 172 1078 161 1097 z "},"*":{"ha":751,"x_min":63,"x_max":689,"o":"m 303 958 q 331 986 303 986 l 421 986 q 449 958 449 986 l 449 781 l 618 836 q 653 818 644 844 l 681 732 q 663 697 689 706 l 494 642 l 597 499 q 592 460 613 476 l 518 407 q 479 413 494 390 l 376 556 l 272 413 q 233 407 256 389 l 160 460 q 154 499 138 475 l 257 642 l 89 697 q 71 732 63 706 l 99 818 q 133 836 107 844 l 303 781 l 303 958 l 303 958 z "},"+":{"ha":833,"x_min":69,"x_max":764,"o":"m 490 74 q 463 46 490 46 l 372 46 q 344 74 344 46 l 344 321 l 97 321 q 69 349 69 321 l 69 439 q 97 467 69 467 l 344 467 l 344 713 q 372 740 344 740 l 463 740 q 490 713 490 740 l 490 467 l 736 467 q 764 439 764 467 l 764 349 q 736 321 764 321 l 490 321 l 490 74 l 490 74 z "},",":{"ha":425,"x_min":78,"x_max":319,"o":"m 111 78 q 139 106 114 106 l 296 106 q 314 97 308 106 q 315 75 319 88 l 228 -214 q 194 -239 219 -239 l 107 -239 q 86 -231 94 -239 q 79 -211 78 -224 l 111 78 l 111 78 z "},"-":{"ha":583,"x_min":69,"x_max":514,"o":"m 97 321 q 69 349 69 321 l 69 439 q 97 467 69 467 l 486 467 q 514 439 514 467 l 514 349 q 486 321 514 321 l 97 321 l 97 321 z "},".":{"ha":425,"x_min":101,"x_max":310,"o":"m 101 78 q 129 106 101 106 l 282 106 q 310 78 310 106 l 310 -72 q 282 -100 310 -100 l 129 -100 q 101 -72 101 -100 l 101 78 l 101 78 z "},"/":{"ha":694,"x_min":25,"x_max":669,"o":"m 50 -239 q 30 -230 35 -239 q 31 -206 25 -221 l 513 1072 q 525 1090 517 1083 q 544 1097 533 1097 l 644 1097 q 665 1088 660 1097 q 664 1064 669 1079 l 182 -214 q 169 -232 178 -225 q 150 -239 161 -239 l 50 -239 l 50 -239 z "},":":{"ha":453,"x_min":115,"x_max":324,"o":"m 115 189 q 143 217 115 217 l 296 217 q 324 189 324 217 l 324 39 q 296 11 324 11 l 143 11 q 115 39 115 11 l 115 189 m 115 754 q 143 782 115 782 l 296 782 q 324 754 324 782 l 324 604 q 296 576 324 576 l 143 576 q 115 604 115 576 l 115 754 z "},";":{"ha":453,"x_min":92,"x_max":333,"o":"m 125 189 q 153 217 128 217 l 310 217 q 328 208 322 217 q 329 186 333 199 l 242 -103 q 208 -128 233 -128 l 121 -128 q 100 -120 108 -128 q 93 -100 92 -112 l 125 189 m 115 754 q 143 782 115 782 l 296 782 q 324 754 324 782 l 324 604 q 296 576 324 576 l 143 576 q 115 604 115 576 l 115 754 z "},"<":{"ha":706,"x_min":69,"x_max":636,"o":"m 69 454 q 88 492 69 478 l 600 900 q 626 906 615 911 q 636 885 636 900 l 636 763 q 617 725 636 740 l 224 414 l 617 103 q 636 65 636 88 l 636 -57 q 626 -78 636 -72 q 600 -72 615 -83 l 88 336 q 73 353 76 344 q 69 374 69 363 l 69 454 l 69 454 z "},"=":{"ha":833,"x_min":56,"x_max":778,"o":"m 83 456 q 56 483 56 456 l 56 574 q 83 601 56 601 l 750 601 q 778 574 778 601 l 778 483 q 750 456 778 456 l 83 456 m 83 185 q 56 213 56 185 l 56 303 q 83 331 56 331 l 750 331 q 778 303 778 331 l 778 213 q 750 185 778 185 l 83 185 z "},">":{"ha":706,"x_min":69,"x_max":636,"o":"m 636 374 q 633 353 636 363 q 618 336 629 344 l 106 -72 q 80 -78 90 -83 q 69 -57 69 -72 l 69 65 q 89 103 69 88 l 482 414 l 89 725 q 69 763 69 740 l 69 885 q 80 906 69 900 q 106 900 90 911 l 618 492 q 633 474 629 483 q 636 454 636 465 l 636 374 l 636 374 z "},"?":{"ha":781,"x_min":53,"x_max":718,"o":"m 339 228 q 307 250 313 228 q 306 391 285 322 q 389 508 328 460 l 472 575 q 526 640 511 607 q 542 710 542 672 q 500 810 542 772 q 390 847 458 847 q 275 810 319 847 q 219 696 231 772 q 189 672 215 668 l 76 690 q 56 721 53 694 q 92 837 64 785 q 164 926 119 889 q 267 983 208 963 q 394 1003 325 1003 q 525 981 465 1003 q 627 922 585 960 q 694 831 669 883 q 718 718 718 779 q 681 578 718 633 q 582 475 643 522 l 506 417 q 458 348 467 386 q 457 258 449 310 q 433 228 461 228 l 339 228 m 289 78 q 317 106 289 106 l 469 106 q 497 78 497 106 l 497 -72 q 469 -100 497 -100 l 317 -100 q 289 -72 289 -100 l 289 78 z "},"@":{"ha":1374,"x_min":69,"x_max":1304,"o":"m 529 338 q 561 229 529 265 q 640 193 593 193 q 715 215 682 193 q 771 272 747 236 q 807 352 794 307 q 819 444 819 397 q 788 553 819 517 q 708 589 756 589 q 634 567 667 589 q 578 510 601 546 q 542 430 554 475 q 529 338 529 385 m 981 -129 q 983 -142 983 -137 q 965 -165 983 -157 q 651 -225 817 -225 q 417 -183 524 -225 q 233 -67 310 -142 q 113 112 156 8 q 69 339 69 215 q 122 599 69 478 q 265 809 175 719 q 476 951 356 899 q 735 1003 597 1003 q 955 965 851 1003 q 1136 858 1058 926 q 1259 694 1214 790 q 1304 485 1304 599 q 1278 324 1304 401 q 1204 185 1251 246 q 1092 89 1157 125 q 951 53 1028 53 q 842 85 882 53 q 806 183 801 118 q 714 108 768 139 q 592 78 660 78 q 505 97 543 78 q 440 150 467 115 q 399 233 414 185 q 385 338 385 281 q 406 466 385 401 q 467 582 428 531 q 564 665 507 633 q 692 697 621 697 q 756 688 728 697 q 805 663 785 678 q 838 629 825 647 q 858 594 851 611 l 871 661 q 900 686 875 686 l 975 686 q 1000 656 1004 686 l 925 231 q 933 185 919 203 q 975 168 947 168 q 1050 193 1014 168 q 1115 261 1086 218 q 1160 360 1143 304 q 1178 479 1178 417 q 1144 641 1178 568 q 1050 766 1110 714 q 909 847 990 818 q 735 875 828 875 q 525 833 622 875 q 356 717 428 790 q 244 547 285 644 q 203 339 203 449 q 234 160 203 240 q 324 22 265 79 q 465 -67 382 -36 q 651 -99 549 -99 q 791 -84 721 -99 q 918 -42 861 -69 q 933 -37 926 -37 q 954 -56 949 -37 l 981 -129 z "},"A":{"ha":983,"x_min":25,"x_max":907,"o":"m 610 964 q 717 773 665 883 q 811 531 769 663 q 878 251 853 400 q 907 -53 904 103 q 878 -83 907 -83 l 756 -83 q 735 -75 739 -83 q 732 -53 732 -67 q 729 67 733 6 q 717 194 725 129 l 292 194 l 188 -82 q 156 -94 179 -101 l 46 -57 q 30 -47 35 -53 q 31 -29 25 -42 l 418 960 q 456 986 429 986 l 564 986 q 590 983 581 986 q 610 964 599 979 m 689 350 q 618 595 661 476 q 522 810 575 714 l 350 350 l 689 350 z "},"B":{"ha":963,"x_min":118,"x_max":893,"o":"m 290 -56 q 263 -83 290 -83 l 146 -83 q 118 -56 118 -83 l 118 958 q 146 986 118 986 l 263 986 q 290 958 290 986 l 290 861 q 399 962 331 921 q 569 1003 467 1003 q 688 981 635 1003 q 779 923 742 960 q 838 837 817 886 q 858 733 858 788 q 657 465 858 538 q 829 367 765 439 q 893 186 893 294 q 869 71 893 124 q 800 -20 846 18 q 688 -79 754 -58 q 535 -100 621 -100 q 448 -95 486 -100 q 378 -82 410 -90 q 352 -68 358 -76 q 346 -42 346 -60 l 346 57 q 352 76 346 69 q 375 76 358 82 q 443 63 407 68 q 511 58 479 58 q 660 99 607 58 q 714 206 714 139 q 654 330 714 283 q 467 376 594 376 l 378 376 q 352 389 358 376 q 346 418 346 401 l 346 500 q 375 529 346 529 l 438 529 q 561 546 514 529 q 635 588 608 563 q 670 642 661 613 q 679 700 679 672 q 638 806 679 767 q 528 844 596 844 q 429 822 474 844 q 354 763 385 800 q 307 678 324 726 q 290 576 290 629 l 290 -56 l 290 -56 z "},"C":{"ha":1029,"x_min":63,"x_max":968,"o":"m 63 451 q 97 661 63 561 q 197 838 131 761 q 358 958 263 914 q 578 1003 454 1003 q 783 965 685 1003 q 953 843 882 926 q 953 807 968 826 l 881 722 q 860 713 872 711 q 840 724 849 714 q 725 810 793 775 q 574 844 657 844 q 436 814 497 844 q 332 730 375 783 q 266 605 289 676 q 243 451 243 533 q 266 298 243 369 q 332 173 289 226 q 436 89 375 119 q 574 58 497 58 q 725 93 657 58 q 840 179 793 128 q 860 190 849 189 q 881 181 872 192 l 953 96 q 953 60 968 76 q 783 -62 882 -24 q 578 -100 685 -100 q 358 -56 454 -100 q 197 65 263 -11 q 97 241 131 142 q 63 451 63 340 z "},"D":{"ha":1119,"x_min":118,"x_max":1057,"o":"m 1057 482 q 1024 269 1057 374 q 924 83 990 165 q 758 -50 857 0 q 528 -100 658 -100 q 444 -95 479 -100 q 378 -82 410 -90 q 352 -68 358 -76 q 346 -42 346 -60 l 346 57 q 352 76 346 69 q 375 76 358 82 q 443 63 407 68 q 511 58 479 58 q 659 89 592 58 q 775 175 726 119 q 850 308 824 231 q 876 482 876 386 q 854 629 876 563 q 794 744 832 696 q 702 818 756 792 q 586 844 649 844 q 472 821 524 844 q 381 756 419 797 q 319 656 343 714 q 290 526 296 597 l 290 -56 q 263 -83 290 -83 l 146 -83 q 118 -56 118 -83 l 118 958 q 146 986 118 986 l 263 986 q 290 958 290 986 l 290 846 q 418 959 339 915 q 615 1003 497 1003 q 792 966 711 1003 q 931 862 872 929 q 1024 698 990 794 q 1057 482 1057 601 z "},"E":{"ha":924,"x_min":118,"x_max":854,"o":"m 806 986 q 833 958 833 986 l 833 856 q 806 828 833 828 l 290 828 l 290 544 l 736 544 q 764 517 764 544 l 764 417 q 736 389 764 389 l 290 389 l 290 75 l 826 75 q 854 47 854 75 l 854 -56 q 826 -83 854 -83 l 146 -83 q 118 -56 118 -83 l 118 958 q 146 986 118 986 l 806 986 l 806 986 z "},"F":{"ha":889,"x_min":118,"x_max":833,"o":"m 118 958 q 146 986 118 986 l 806 986 q 833 958 833 986 l 833 856 q 806 828 833 828 l 290 828 l 290 544 l 736 544 q 764 517 764 544 l 764 417 q 736 389 764 389 l 290 389 l 290 -56 q 263 -83 290 -83 l 146 -83 q 118 -56 118 -83 l 118 958 l 118 958 z "},"G":{"ha":1082,"x_min":63,"x_max":999,"o":"m 585 343 q 554 374 554 343 l 554 465 q 585 496 554 496 l 971 496 q 999 468 999 496 l 999 -56 q 971 -83 999 -83 l 861 -83 q 833 -56 833 -83 l 833 64 q 699 -61 778 -22 q 532 -100 619 -100 q 348 -60 433 -100 q 199 52 263 -19 q 99 222 135 124 q 63 433 63 319 q 97 654 63 550 q 197 835 131 758 q 358 958 263 913 q 578 1003 454 1003 q 783 965 685 1003 q 953 843 882 926 q 953 807 968 826 l 881 722 q 860 713 872 711 q 840 724 849 714 q 725 810 793 775 q 574 844 657 844 q 436 813 497 844 q 332 727 375 782 q 266 597 289 672 q 243 433 243 522 q 268 273 243 343 q 335 155 293 203 q 431 83 376 107 q 542 58 485 58 q 649 77 599 58 q 737 132 699 96 q 801 221 775 168 q 833 343 826 274 l 585 343 l 585 343 z "},"H":{"ha":1047,"x_min":118,"x_max":929,"o":"m 118 958 q 146 986 118 986 l 263 986 q 290 958 290 986 l 290 546 l 757 546 l 757 958 q 785 986 757 986 l 901 986 q 929 958 929 986 l 929 -56 q 901 -83 929 -83 l 785 -83 q 757 -56 757 -83 l 757 388 l 290 388 l 290 -56 q 263 -83 290 -83 l 146 -83 q 118 -56 118 -83 l 118 958 l 118 958 z "},"I":{"ha":408,"x_min":118,"x_max":290,"o":"m 118 958 q 146 986 118 986 l 263 986 q 290 958 290 986 l 290 -56 q 263 -83 290 -83 l 146 -83 q 118 -56 118 -83 l 118 958 l 118 958 z "},"J":{"ha":664,"x_min":4,"x_max":542,"o":"m 258 -100 q 168 -90 207 -100 q 100 -62 129 -79 q 51 -26 71 -46 q 17 14 31 -6 q 7 33 10 24 q 14 51 4 42 l 100 133 q 136 133 121 154 q 156 108 144 121 q 181 83 167 94 q 214 65 196 72 q 254 58 232 58 q 338 89 306 58 q 369 178 369 119 l 369 958 q 397 986 369 986 l 514 986 q 542 958 542 986 l 542 178 q 520 57 542 108 q 460 -30 499 6 q 370 -83 422 -65 q 258 -100 318 -100 z "},"K":{"ha":953,"x_min":118,"x_max":908,"o":"m 290 -56 q 263 -83 290 -83 l 146 -83 q 118 -56 118 -83 l 118 958 q 146 986 118 986 l 263 986 q 290 958 290 986 l 290 -56 m 890 25 q 888 -14 908 4 l 796 -89 q 757 -86 775 -107 l 349 411 q 349 499 313 456 l 757 989 q 776 999 765 999 q 796 992 786 999 l 876 924 q 878 885 897 907 l 519 461 l 890 25 z "},"L":{"ha":868,"x_min":118,"x_max":826,"o":"m 799 75 q 826 47 826 75 l 826 -56 q 799 -83 826 -83 l 146 -83 q 118 -56 118 -83 l 118 958 q 146 986 118 986 l 263 986 q 290 958 290 986 l 290 75 l 799 75 l 799 75 z "},"M":{"ha":1322,"x_min":75,"x_max":1247,"o":"m 157 958 q 165 978 158 969 q 185 986 172 986 l 408 986 q 439 965 432 986 l 664 176 l 892 965 q 922 986 899 986 l 1138 986 q 1157 978 1150 986 q 1165 958 1164 969 l 1246 -56 q 1239 -76 1247 -68 q 1218 -83 1231 -83 l 1101 -83 q 1074 -56 1076 -83 l 1004 789 l 757 -62 q 729 -83 751 -83 l 589 -83 q 560 -62 565 -83 l 310 808 l 242 -56 q 214 -83 239 -83 l 104 -83 q 83 -76 92 -83 q 76 -56 75 -68 l 157 958 l 157 958 z "},"N":{"ha":1061,"x_min":118,"x_max":940,"o":"m 346 986 q 378 964 368 986 l 774 119 l 774 958 q 801 986 774 986 l 913 986 q 940 958 940 986 l 940 -56 q 913 -83 940 -83 l 713 -83 q 681 -61 690 -83 l 285 786 l 285 -56 q 257 -83 285 -83 l 146 -83 q 118 -56 118 -83 l 118 958 q 146 986 118 986 l 346 986 l 346 986 z "},"O":{"ha":1119,"x_min":63,"x_max":1057,"o":"m 1057 451 q 1024 242 1057 342 q 926 66 990 142 q 770 -55 863 -10 q 560 -100 678 -100 q 349 -55 442 -100 q 193 66 257 -10 q 96 242 129 142 q 63 451 63 342 q 96 660 63 561 q 193 836 129 760 q 349 958 257 913 q 560 1003 442 1003 q 770 958 678 1003 q 926 836 863 913 q 1024 660 990 760 q 1057 451 1057 561 m 243 451 q 265 299 243 371 q 327 174 286 228 q 427 90 368 121 q 560 58 486 58 q 692 90 633 58 q 792 174 751 121 q 855 299 833 228 q 876 451 876 371 q 855 603 876 532 q 792 728 833 675 q 692 813 751 782 q 560 844 633 844 q 427 813 486 844 q 327 728 368 782 q 265 603 286 675 q 243 451 243 532 z "},"P":{"ha":965,"x_min":118,"x_max":907,"o":"m 290 -56 q 263 -83 290 -83 l 146 -83 q 118 -56 118 -83 l 118 958 q 146 986 118 986 l 263 986 q 290 958 290 986 l 290 826 q 408 952 336 901 q 582 1003 479 1003 q 714 979 654 1003 q 817 913 774 956 q 883 809 860 869 q 907 676 907 749 q 869 506 907 581 q 769 381 832 432 q 625 302 707 329 q 456 275 543 275 q 411 276 432 275 q 371 281 390 278 q 346 313 346 285 l 346 404 q 354 428 346 418 q 376 436 363 438 q 401 434 389 435 q 428 433 414 433 q 553 451 497 433 q 647 501 608 469 q 707 576 686 533 q 728 668 728 619 q 679 798 728 751 q 553 844 631 844 q 450 815 496 844 q 370 738 404 786 q 315 628 336 690 q 290 500 294 565 l 290 -56 l 290 -56 z "},"Q":{"ha":1119,"x_min":63,"x_max":1057,"o":"m 1057 451 q 1030 272 1057 360 q 951 110 1003 185 l 1031 26 q 1031 -12 1050 7 l 949 -89 q 910 -87 929 -107 l 835 -10 q 708 -76 776 -53 q 560 -100 639 -100 q 349 -55 442 -100 q 193 66 257 -10 q 96 242 129 142 q 63 451 63 342 q 96 660 63 561 q 193 836 129 760 q 349 958 257 913 q 560 1003 442 1003 q 770 958 678 1003 q 926 836 863 913 q 1024 660 990 760 q 1057 451 1057 561 m 243 451 q 265 299 243 371 q 327 174 286 228 q 427 90 368 121 q 560 58 486 58 q 647 71 607 58 q 722 107 688 83 l 619 214 q 611 235 611 224 q 621 254 611 246 l 701 329 q 722 338 710 338 q 742 329 733 339 l 831 236 q 865 338 853 283 q 876 451 876 392 q 855 603 876 532 q 792 728 833 675 q 692 813 751 782 q 560 844 633 844 q 427 813 486 844 q 327 728 368 782 q 265 603 286 675 q 243 451 243 532 z "},"R":{"ha":960,"x_min":118,"x_max":890,"o":"m 290 -56 q 263 -83 290 -83 l 146 -83 q 118 -56 118 -83 l 118 958 q 146 986 118 986 l 263 986 q 290 958 290 986 l 290 819 q 344 892 314 858 q 410 950 374 925 q 492 989 447 975 q 590 1003 538 1003 q 724 979 668 1003 q 817 916 781 956 q 872 824 854 876 q 890 717 890 772 q 862 581 890 640 q 785 479 833 522 q 672 408 736 436 q 538 364 608 379 l 868 33 q 868 -6 888 14 l 782 -89 q 763 -97 774 -97 q 743 -87 751 -97 l 356 325 q 347 338 349 333 q 346 354 346 343 l 346 435 q 375 464 346 460 l 428 471 q 542 497 490 479 q 632 542 594 514 q 690 608 669 569 q 711 700 711 647 q 671 806 711 767 q 560 844 631 844 q 456 815 503 844 q 374 739 410 786 q 317 632 339 692 q 290 510 296 572 l 290 -56 l 290 -56 z "},"S":{"ha":851,"x_min":69,"x_max":782,"o":"m 396 -100 q 217 -73 296 -100 q 89 -14 138 -46 q 81 24 69 1 l 131 121 q 167 129 144 146 q 269 80 208 101 q 396 58 329 58 q 560 98 510 58 q 610 197 610 138 q 593 267 610 238 q 550 317 576 296 q 490 355 524 339 q 424 386 457 371 q 275 459 338 424 q 172 534 213 494 q 113 621 132 574 q 93 729 93 668 q 186 928 93 853 q 453 1003 279 1003 q 624 979 546 1003 q 747 924 701 956 q 757 888 768 911 l 707 789 q 690 776 700 778 q 668 781 679 774 q 567 826 624 808 q 444 844 510 844 q 310 812 354 844 q 265 735 265 779 q 274 688 265 710 q 306 645 282 667 q 375 600 331 624 q 490 547 419 576 q 608 490 554 519 q 700 420 661 460 q 760 328 739 381 q 782 203 782 275 q 756 80 782 136 q 681 -16 731 24 q 560 -78 632 -56 q 396 -100 489 -100 z "},"T":{"ha":896,"x_min":42,"x_max":853,"o":"m 69 828 q 42 856 42 828 l 42 958 q 69 986 42 986 l 825 986 q 853 958 853 986 l 853 856 q 825 828 853 828 l 535 828 l 535 -56 q 507 -83 535 -83 l 390 -83 q 363 -56 363 -83 l 363 828 l 69 828 l 69 828 z "},"U":{"ha":1035,"x_min":111,"x_max":922,"o":"m 922 306 q 894 136 922 211 q 812 9 865 61 q 683 -72 758 -43 q 517 -100 608 -100 q 350 -72 425 -100 q 222 9 275 -43 q 140 136 168 61 q 111 306 111 211 l 111 958 q 139 986 111 986 l 256 986 q 283 958 283 986 l 283 306 q 347 117 283 176 q 517 58 410 58 q 686 117 622 58 q 750 306 750 176 l 750 958 q 778 986 750 986 l 894 986 q 922 958 922 986 l 922 306 l 922 306 z "},"V":{"ha":997,"x_min":47,"x_max":931,"o":"m 421 -83 q 383 -57 393 -83 l 51 932 q 51 950 47 944 q 67 960 56 956 l 176 997 q 208 985 203 1006 l 494 94 q 587 285 543 182 q 665 499 631 388 q 722 726 699 610 q 753 956 744 843 q 759 978 754 969 q 781 986 764 986 l 903 986 q 928 956 931 986 q 878 651 915 799 q 792 372 842 503 q 686 130 743 240 q 575 -61 629 19 q 555 -80 564 -76 q 529 -83 546 -83 l 421 -83 l 421 -83 z "},"W":{"ha":1407,"x_min":47,"x_max":1338,"o":"m 915 -83 q 879 -54 885 -83 l 711 671 q 671 461 694 563 q 619 267 647 360 q 560 92 592 175 q 499 -58 529 10 q 482 -78 492 -74 q 456 -83 472 -83 l 326 -83 q 290 -54 296 -83 l 50 944 q 52 963 47 957 q 68 971 57 968 l 181 999 q 211 983 207 1004 l 414 92 q 481 290 449 185 q 538 505 513 394 q 580 726 563 615 q 604 942 597 838 q 614 975 606 964 q 646 986 622 986 l 763 986 q 790 978 782 986 q 800 956 797 969 l 992 108 q 1060 306 1029 201 q 1115 520 1092 411 q 1151 740 1138 629 q 1164 954 1164 850 q 1168 977 1164 968 q 1189 986 1172 986 l 1310 986 q 1338 958 1338 986 q 1313 672 1336 814 q 1252 397 1289 529 q 1170 148 1215 264 q 1081 -58 1125 32 q 1064 -78 1074 -74 q 1038 -83 1054 -83 l 915 -83 l 915 -83 z "},"X":{"ha":976,"x_min":61,"x_max":914,"o":"m 907 17 q 913 -4 914 7 q 901 -22 913 -15 l 803 -89 q 783 -94 793 -96 q 765 -82 772 -93 l 489 321 l 200 -82 q 161 -87 185 -104 l 74 -26 q 63 -10 64 -19 q 69 11 61 0 l 389 447 l 76 888 q 70 908 69 897 q 82 926 71 919 l 181 993 q 201 999 190 1000 q 218 986 211 997 l 490 589 l 776 986 q 815 992 792 1008 l 901 931 q 913 914 911 924 q 906 893 914 904 l 590 464 l 907 17 l 907 17 z "},"Y":{"ha":971,"x_min":28,"x_max":942,"o":"m 35 886 q 28 907 28 896 q 40 925 29 918 l 139 992 q 159 997 149 999 q 176 985 169 996 l 483 536 l 804 985 q 842 992 819 1007 l 928 931 q 940 913 938 924 q 933 892 942 903 l 574 399 l 574 -56 q 546 -83 574 -83 l 429 -83 q 401 -56 401 -83 l 401 367 l 35 886 l 35 886 z "},"Z":{"ha":940,"x_min":90,"x_max":847,"o":"m 847 861 q 836 826 847 842 l 311 75 l 813 75 q 840 47 840 75 l 840 -56 q 813 -83 840 -83 l 118 -83 q 90 -56 90 -83 l 90 42 q 101 76 90 61 l 628 828 l 132 828 q 104 856 104 828 l 104 958 q 132 986 104 986 l 819 986 q 847 958 847 986 l 847 861 l 847 861 z "},"[":{"ha":511,"x_min":118,"x_max":483,"o":"m 118 1069 q 146 1097 118 1097 l 456 1097 q 483 1069 483 1097 l 483 972 q 456 944 483 944 l 285 944 l 285 -86 l 456 -86 q 483 -114 483 -86 l 483 -211 q 456 -239 483 -239 l 146 -239 q 118 -211 118 -239 l 118 1069 l 118 1069 z "},"\\":{"ha":694,"x_min":25,"x_max":669,"o":"m 544 -239 q 525 -232 533 -239 q 513 -214 517 -225 l 31 1064 q 30 1088 25 1079 q 50 1097 35 1097 l 150 1097 q 169 1090 161 1097 q 182 1072 178 1083 l 664 -206 q 665 -230 669 -221 q 644 -239 660 -239 l 544 -239 l 544 -239 z "},"]":{"ha":511,"x_min":28,"x_max":393,"o":"m 393 -211 q 365 -239 393 -239 l 56 -239 q 28 -211 28 -239 l 28 -114 q 56 -86 28 -86 l 226 -86 l 226 944 l 56 944 q 28 972 28 944 l 28 1069 q 56 1097 28 1097 l 365 1097 q 393 1069 393 1097 l 393 -211 l 393 -211 z "},"^":{"ha":661,"x_min":31,"x_max":631,"o":"m 207 538 q 175 515 199 515 l 65 515 q 44 547 31 515 l 231 965 q 263 986 240 986 l 399 986 q 431 965 421 986 l 617 547 q 596 515 631 515 l 486 515 q 454 538 463 515 l 331 817 l 207 538 l 207 538 z "},"_":{"ha":625,"x_min":0,"x_max":625,"o":"m 28 -229 q 0 -201 0 -229 l 0 -111 q 28 -83 0 -83 l 597 -83 q 625 -111 625 -83 l 625 -201 q 597 -229 625 -229 l 28 -229 l 28 -229 z "},"`":{"ha":453,"x_min":65,"x_max":386,"o":"m 75 953 q 71 976 65 967 q 93 986 76 986 l 218 986 q 251 967 240 986 l 378 756 q 381 732 386 742 q 358 722 375 722 l 257 722 q 224 740 238 722 l 75 953 l 75 953 z "},"a":{"ha":875,"x_min":58,"x_max":775,"o":"m 608 33 q 517 -59 572 -21 q 378 -97 461 -97 q 248 -67 307 -97 q 147 17 189 -36 q 81 142 104 69 q 58 299 58 215 q 81 455 58 382 q 147 581 104 528 q 248 664 189 633 q 378 694 307 694 q 517 656 461 694 q 608 564 572 618 l 608 653 q 636 681 608 681 l 747 681 q 775 653 775 681 l 775 -56 q 747 -83 775 -83 l 636 -83 q 608 -56 608 -83 l 608 33 m 232 299 q 283 109 232 176 q 411 42 333 42 q 495 65 458 42 q 558 124 532 88 q 597 207 583 161 q 611 299 611 253 q 597 390 611 344 q 558 473 583 436 q 495 533 532 510 q 411 556 458 556 q 283 488 333 556 q 232 299 232 421 z "},"b":{"ha":875,"x_min":100,"x_max":817,"o":"m 267 -56 q 239 -83 267 -83 l 128 -83 q 100 -56 100 -83 l 100 958 q 128 986 100 986 l 239 986 q 267 958 267 986 l 267 564 q 358 656 303 618 q 497 694 414 694 q 627 664 568 694 q 728 581 686 633 q 794 455 771 528 q 817 299 817 382 q 794 142 817 215 q 728 17 771 69 q 627 -67 686 -36 q 497 -97 568 -97 q 358 -59 414 -97 q 267 33 303 -21 l 267 -56 m 264 299 q 278 207 264 253 q 317 124 292 161 q 380 65 343 88 q 464 42 417 42 q 592 109 542 42 q 643 299 643 176 q 592 488 643 421 q 464 556 542 556 q 380 533 417 556 q 317 473 343 510 q 278 390 292 436 q 264 299 264 344 z "},"c":{"ha":711,"x_min":58,"x_max":663,"o":"m 428 694 q 554 677 501 694 q 643 638 607 660 q 653 606 663 626 l 613 515 q 582 504 601 492 q 512 541 550 526 q 428 556 474 556 q 342 534 379 556 q 278 477 304 513 q 240 395 253 442 q 226 299 226 349 q 240 202 226 249 q 278 120 253 156 q 342 63 304 85 q 428 42 379 42 q 512 56 474 42 q 582 93 550 71 q 613 82 601 106 l 653 -8 q 643 -40 663 -29 q 554 -80 607 -62 q 428 -97 501 -97 q 270 -66 339 -97 q 154 19 201 -35 q 83 146 107 74 q 58 299 58 218 q 83 451 58 379 q 154 578 107 524 q 270 663 201 632 q 428 694 339 694 z "},"d":{"ha":875,"x_min":58,"x_max":775,"o":"m 608 33 q 517 -59 572 -21 q 378 -97 461 -97 q 248 -67 307 -97 q 147 17 189 -36 q 81 142 104 69 q 58 299 58 215 q 81 455 58 382 q 147 581 104 528 q 248 664 189 633 q 378 694 307 694 q 517 656 461 694 q 608 564 572 618 l 608 958 q 636 986 608 986 l 747 986 q 775 958 775 986 l 775 -56 q 747 -83 775 -83 l 636 -83 q 608 -56 608 -83 l 608 33 m 232 299 q 283 109 232 176 q 411 42 333 42 q 495 65 458 42 q 558 124 532 88 q 597 207 583 161 q 611 299 611 253 q 597 390 611 344 q 558 473 583 436 q 495 533 532 510 q 411 556 458 556 q 283 488 333 556 q 232 299 232 421 z "},"e":{"ha":771,"x_min":58,"x_max":714,"o":"m 299 321 q 387 333 342 324 q 468 358 432 342 q 527 398 504 374 q 550 457 550 422 q 523 527 550 497 q 435 557 496 557 q 351 538 389 557 q 285 486 313 519 q 242 405 257 453 q 226 299 226 357 q 238 201 226 247 q 275 119 250 154 q 339 63 300 83 q 432 42 378 42 q 536 62 489 42 q 622 110 583 82 q 654 103 642 125 l 704 18 q 697 -15 714 0 q 586 -72 656 -46 q 426 -97 517 -97 q 274 -67 342 -97 q 158 17 206 -36 q 84 143 110 71 q 58 299 58 215 q 88 456 58 383 q 169 581 117 528 q 293 664 221 633 q 451 694 365 694 q 647 632 581 694 q 713 474 713 569 q 678 354 713 404 q 586 272 643 304 q 457 222 529 239 q 310 201 385 206 q 293 206 297 200 q 288 222 289 211 l 281 294 q 299 321 278 319 z "},"f":{"ha":589,"x_min":24,"x_max":551,"o":"m 176 789 q 199 891 176 850 q 258 957 222 932 q 340 992 294 982 q 431 1003 385 1003 q 490 999 464 1003 q 529 992 515 996 q 547 983 542 988 q 551 965 551 978 l 551 874 q 545 856 551 863 q 525 851 539 849 q 485 860 506 857 q 446 864 465 864 q 415 860 433 864 q 381 848 397 857 q 354 822 365 839 q 343 776 343 804 l 343 681 l 511 681 q 538 654 538 681 l 538 571 q 511 544 538 544 l 343 544 l 343 -56 q 315 -83 343 -83 l 204 -83 q 176 -56 176 -83 l 176 544 l 50 544 q 24 571 24 544 l 24 654 q 50 681 24 681 l 176 681 l 176 789 l 176 789 z "},"g":{"ha":867,"x_min":58,"x_max":767,"o":"m 232 319 q 281 143 232 203 q 408 83 331 83 q 490 108 454 83 q 551 170 526 133 q 590 247 576 207 q 603 319 603 288 q 590 391 603 350 q 551 469 576 432 q 490 531 526 506 q 408 556 454 556 q 281 496 331 556 q 232 319 232 436 m 58 319 q 81 472 58 403 q 144 591 103 542 q 244 667 186 640 q 374 694 303 694 q 509 656 454 694 q 600 561 564 617 l 600 653 q 628 681 600 681 l 739 681 q 767 653 767 681 l 767 17 q 738 -133 767 -68 q 656 -243 708 -199 q 529 -310 603 -287 q 367 -333 456 -333 q 226 -317 290 -333 q 125 -282 161 -301 q 113 -269 117 -278 q 113 -250 108 -261 l 150 -157 q 160 -144 153 -150 q 181 -144 167 -137 q 265 -176 217 -162 q 371 -190 313 -190 q 460 -178 418 -190 q 533 -140 501 -165 q 582 -76 564 -115 q 600 15 600 -37 l 600 78 q 509 -17 564 22 q 374 -56 454 -56 q 244 -28 303 -56 q 144 48 186 -1 q 81 167 103 97 q 58 319 58 236 z "},"h":{"ha":858,"x_min":100,"x_max":765,"o":"m 267 -56 q 239 -83 267 -83 l 128 -83 q 100 -56 100 -83 l 100 958 q 128 986 100 986 l 239 986 q 267 958 267 986 l 267 471 q 392 638 318 581 q 547 694 465 694 q 636 676 596 694 q 705 619 676 658 q 749 517 733 579 q 765 368 765 456 l 765 -56 q 738 -83 765 -83 l 626 -83 q 599 -56 599 -83 l 599 332 q 592 441 599 399 q 572 508 585 483 q 540 542 558 532 q 500 551 522 551 q 437 531 469 551 q 373 465 404 510 q 314 349 342 419 q 267 179 286 278 l 267 -56 l 267 -56 z "},"i":{"ha":367,"x_min":85,"x_max":282,"o":"m 267 -56 q 239 -83 267 -83 l 128 -83 q 100 -56 100 -83 l 100 653 q 128 681 100 681 l 239 681 q 267 653 267 681 l 267 -56 m 85 892 q 107 950 85 928 q 165 972 129 972 l 201 972 q 260 950 238 972 q 282 892 282 928 l 282 857 q 260 799 282 821 q 201 776 238 776 l 165 776 q 107 799 129 776 q 85 857 85 821 l 85 892 z "},"j":{"ha":371,"x_min":-36,"x_max":286,"o":"m 89 892 q 111 950 89 928 q 169 972 133 972 l 206 972 q 264 950 242 972 q 286 892 286 928 l 286 857 q 264 799 286 821 q 206 776 242 776 l 169 776 q 111 799 133 776 q 89 857 89 821 l 89 892 m 271 -103 q 247 -226 271 -179 q 189 -300 224 -274 q 114 -335 154 -326 q 42 -344 74 -344 q 13 -344 25 -344 q -14 -340 1 -343 q -32 -332 -28 -337 q -36 -312 -36 -326 l -36 -219 q -10 -197 -36 -192 q 10 -201 1 -200 q 29 -201 18 -201 q 83 -179 61 -201 q 104 -86 104 -157 l 104 653 q 132 681 104 681 l 243 681 q 271 653 271 681 l 271 -103 z "},"k":{"ha":794,"x_min":100,"x_max":746,"o":"m 267 -56 q 239 -83 267 -83 l 128 -83 q 100 -56 100 -83 l 100 958 q 128 986 100 986 l 239 986 q 267 958 267 986 l 267 -56 m 296 310 q 313 350 296 331 l 619 685 q 658 686 638 704 l 726 625 q 726 586 746 608 l 479 321 l 726 21 q 722 -18 743 0 l 636 -90 q 617 -97 628 -97 q 597 -85 606 -96 l 314 267 q 299 290 303 281 q 296 310 296 299 z "},"l":{"ha":367,"x_min":100,"x_max":267,"o":"m 267 -56 q 239 -83 267 -83 l 128 -83 q 100 -56 100 -83 l 100 958 q 128 986 100 986 l 239 986 q 267 958 267 986 l 267 -56 l 267 -56 z "},"m":{"ha":1246,"x_min":100,"x_max":1153,"o":"m 267 -56 q 239 -83 267 -83 l 128 -83 q 100 -56 100 -83 l 100 653 q 128 681 100 681 l 239 681 q 267 653 267 681 l 267 486 q 376 642 311 589 q 519 694 440 694 q 647 642 599 694 q 707 478 696 590 q 817 640 751 585 q 963 694 882 694 q 1103 626 1054 694 q 1153 408 1153 558 l 1153 -56 q 1125 -83 1153 -83 l 1014 -83 q 986 -56 986 -83 l 986 332 q 970 503 986 456 q 915 551 954 551 q 864 531 892 551 q 808 465 836 510 q 755 349 781 419 q 710 179 729 278 l 710 -56 q 682 -83 710 -83 l 571 -83 q 543 -56 543 -83 l 543 332 q 527 503 543 456 q 472 551 511 551 q 421 531 449 551 q 365 465 393 510 q 312 349 338 419 q 267 179 286 278 l 267 -56 l 267 -56 z "},"n":{"ha":858,"x_min":100,"x_max":765,"o":"m 267 -56 q 239 -83 267 -83 l 128 -83 q 100 -56 100 -83 l 100 653 q 128 681 100 681 l 239 681 q 267 653 267 681 l 267 471 q 392 638 318 581 q 547 694 465 694 q 636 676 596 694 q 705 619 676 658 q 749 517 733 579 q 765 368 765 456 l 765 -56 q 738 -83 765 -83 l 626 -83 q 599 -56 599 -83 l 599 332 q 592 441 599 399 q 572 508 585 483 q 540 542 558 532 q 500 551 522 551 q 437 531 469 551 q 373 465 404 510 q 314 349 342 419 q 267 179 286 278 l 267 -56 l 267 -56 z "},"o":{"ha":836,"x_min":58,"x_max":778,"o":"m 604 299 q 552 488 604 419 q 418 556 500 556 q 284 488 336 556 q 232 299 232 419 q 284 110 232 178 q 418 42 336 42 q 552 110 500 42 q 604 299 604 178 m 58 299 q 82 448 58 376 q 151 574 106 519 q 265 662 197 629 q 418 694 332 694 q 572 662 504 694 q 685 574 639 629 q 754 448 731 519 q 778 299 778 376 q 754 149 778 221 q 685 23 731 78 q 572 -65 639 -32 q 418 -97 504 -97 q 265 -65 332 -97 q 151 23 197 -32 q 82 149 106 78 q 58 299 58 221 z "},"p":{"ha":876,"x_min":100,"x_max":817,"o":"m 267 -292 q 239 -319 267 -319 l 128 -319 q 100 -292 100 -319 l 100 653 q 128 681 100 681 l 239 681 q 267 653 267 681 l 267 564 q 358 656 303 618 q 497 694 414 694 q 627 664 568 694 q 728 581 686 633 q 794 455 771 528 q 817 299 817 382 q 794 142 817 215 q 728 17 771 69 q 627 -67 686 -36 q 497 -97 568 -97 q 358 -59 414 -97 q 267 33 303 -21 l 267 -292 m 264 299 q 278 207 264 253 q 317 124 292 161 q 380 65 343 88 q 464 42 417 42 q 592 109 542 42 q 643 299 643 176 q 592 488 643 421 q 464 556 542 556 q 380 533 417 556 q 317 473 343 510 q 278 390 292 436 q 264 299 264 344 z "},"q":{"ha":875,"x_min":58,"x_max":775,"o":"m 608 33 q 517 -59 572 -21 q 378 -97 461 -97 q 248 -67 307 -97 q 147 17 189 -36 q 81 142 104 69 q 58 299 58 215 q 81 455 58 382 q 147 581 104 528 q 248 664 189 633 q 378 694 307 694 q 517 656 461 694 q 608 564 572 618 l 608 653 q 636 681 608 681 l 747 681 q 775 653 775 681 l 775 -292 q 747 -319 775 -319 l 636 -319 q 608 -292 608 -319 l 608 33 m 232 299 q 283 109 232 176 q 411 42 333 42 q 495 65 458 42 q 558 124 532 88 q 597 207 583 161 q 611 299 611 253 q 597 390 611 344 q 558 473 583 436 q 495 533 532 510 q 411 556 458 556 q 283 488 333 556 q 232 299 232 421 z "},"r":{"ha":613,"x_min":100,"x_max":600,"o":"m 267 -56 q 239 -83 267 -83 l 128 -83 q 100 -56 100 -83 l 100 653 q 128 681 100 681 l 239 681 q 267 653 267 681 l 267 513 q 344 647 297 600 q 457 694 392 694 q 519 685 489 694 q 581 658 549 676 q 590 625 600 647 l 549 533 q 536 519 543 522 q 517 524 529 515 q 472 546 490 540 q 438 551 454 551 q 335 469 383 551 q 267 221 286 388 l 267 -56 l 267 -56 z "},"s":{"ha":699,"x_min":60,"x_max":632,"o":"m 363 694 q 499 677 432 694 q 611 633 567 660 q 622 601 632 622 l 582 503 q 551 492 574 479 q 459 535 511 515 q 354 556 407 556 q 280 536 306 556 q 254 493 254 517 q 262 463 254 476 q 289 437 269 450 q 340 408 308 424 q 421 375 372 393 q 520 326 481 351 q 584 270 560 300 q 619 206 608 240 q 629 133 629 172 q 607 35 629 78 q 544 -37 585 -8 q 449 -82 504 -67 q 325 -97 393 -97 q 190 -81 256 -97 q 79 -42 125 -65 q 67 -10 60 -31 l 104 90 q 133 103 113 115 q 226 60 175 79 q 333 42 276 40 q 395 49 371 42 q 434 69 419 57 q 454 95 449 81 q 460 125 460 110 q 439 180 460 153 q 347 233 418 207 q 239 278 288 256 q 156 330 190 301 q 104 394 122 358 q 86 475 86 429 q 103 563 86 522 q 153 632 119 603 q 240 678 188 661 q 363 694 292 694 z "},"t":{"ha":631,"x_min":24,"x_max":597,"o":"m 176 544 l 50 544 q 24 571 24 544 l 24 654 q 50 681 24 681 l 176 681 l 176 860 q 204 888 176 888 l 315 888 q 343 860 343 888 l 343 681 l 532 681 q 558 654 558 681 l 558 571 q 532 544 558 544 l 343 544 l 343 163 q 360 74 343 106 q 433 42 378 42 q 540 64 481 42 q 571 47 564 74 l 592 -43 q 575 -74 597 -67 q 413 -97 507 -97 q 176 117 176 -97 l 176 544 z "},"u":{"ha":858,"x_min":93,"x_max":758,"o":"m 592 653 q 619 681 592 681 l 731 681 q 758 653 758 681 l 758 -56 q 731 -83 758 -83 l 619 -83 q 592 -56 592 -83 l 592 126 q 467 -40 540 17 q 311 -97 393 -97 q 222 -79 263 -97 q 153 -22 182 -61 q 109 80 125 18 q 93 229 93 142 l 93 653 q 121 681 93 681 l 232 681 q 260 653 260 681 l 260 265 q 267 156 260 199 q 287 90 274 114 q 318 56 300 65 q 358 46 336 46 q 422 67 389 46 q 485 133 454 88 q 544 249 517 178 q 592 418 572 319 l 592 653 l 592 653 z "},"v":{"ha":758,"x_min":36,"x_max":725,"o":"m 303 -83 q 265 -57 275 -83 l 40 628 q 40 647 36 640 q 57 657 44 653 l 161 690 q 192 678 186 697 l 379 96 q 497 380 456 244 q 553 650 538 515 q 559 672 554 664 q 581 681 564 681 l 696 681 q 721 650 725 681 q 628 285 699 469 q 454 -61 558 100 q 435 -80 444 -76 q 408 -83 425 -83 l 303 -83 l 303 -83 z "},"w":{"ha":1185,"x_min":93,"x_max":1104,"o":"m 93 653 q 121 681 93 681 l 232 681 q 260 653 260 681 l 260 293 q 265 174 260 222 q 282 98 271 126 q 309 58 293 69 q 347 46 325 46 q 408 76 376 46 q 466 161 440 106 q 509 296 492 217 q 526 474 526 375 l 526 653 q 554 681 526 681 l 665 681 q 693 653 693 681 l 693 307 q 700 174 693 225 q 719 95 707 124 q 750 56 732 67 q 790 46 768 46 q 851 69 824 46 q 897 135 878 93 q 927 235 917 176 q 938 363 938 293 q 924 512 938 438 q 885 649 911 586 q 906 681 871 681 l 1019 681 q 1053 661 1043 681 q 1092 531 1079 607 q 1104 386 1104 456 q 1082 197 1104 285 q 1017 43 1060 108 q 913 -60 975 -22 q 769 -97 850 -97 q 633 -56 692 -97 q 550 86 575 -15 q 453 -51 513 -4 q 317 -97 393 -97 q 231 -81 271 -97 q 160 -28 190 -65 q 111 72 129 10 q 93 229 93 135 l 93 653 l 93 653 z "},"x":{"ha":728,"x_min":53,"x_max":678,"o":"m 263 292 l 67 588 q 75 626 53 610 l 168 689 q 188 693 178 696 q 206 679 199 690 l 369 425 l 543 682 q 582 688 558 704 l 656 636 q 668 619 665 629 q 663 597 671 608 l 464 311 l 664 10 q 656 -29 678 -12 l 563 -92 q 542 -96 553 -99 q 525 -82 532 -93 l 358 176 l 183 -83 q 146 -90 168 -106 l 69 -36 q 57 -19 60 -29 q 63 3 54 -8 l 263 292 z "},"y":{"ha":858,"x_min":93,"x_max":758,"o":"m 93 653 q 121 681 93 681 l 232 681 q 260 653 260 681 l 260 363 q 267 230 260 281 q 287 151 274 179 q 318 112 300 122 q 358 101 336 101 q 421 120 389 101 q 483 179 453 139 q 542 282 514 219 q 592 432 569 344 l 592 653 q 619 681 592 681 l 731 681 q 758 653 758 681 l 758 17 q 729 -133 758 -68 q 647 -243 700 -199 q 522 -310 594 -287 q 361 -333 449 -333 q 228 -319 285 -333 q 136 -285 172 -304 q 124 -272 128 -281 q 124 -253 119 -264 l 161 -160 q 171 -147 164 -153 q 192 -147 178 -140 q 269 -178 228 -165 q 365 -190 311 -190 q 452 -178 411 -190 q 524 -140 493 -165 q 574 -76 556 -115 q 592 15 592 -37 l 592 168 q 467 13 539 67 q 311 -42 394 -42 q 226 -26 265 -42 q 157 28 186 -10 q 110 128 128 65 q 93 285 93 190 l 93 653 l 93 653 z "},"z":{"ha":710,"x_min":65,"x_max":642,"o":"m 615 681 q 642 654 642 681 l 642 585 q 633 560 642 572 l 283 53 l 615 53 q 642 26 642 53 l 642 -57 q 615 -83 642 -83 l 92 -83 q 65 -57 65 -83 l 65 13 q 74 38 65 25 l 424 544 l 92 544 q 65 571 65 544 l 65 654 q 92 681 65 681 l 615 681 l 615 681 z "},"{":{"ha":494,"x_min":42,"x_max":467,"o":"m 132 800 q 129 914 118 860 q 174 1009 140 968 q 263 1074 207 1050 q 396 1097 318 1097 l 439 1097 q 467 1069 467 1097 l 467 972 q 439 944 467 944 l 396 944 q 311 906 333 944 q 304 801 289 868 l 346 625 q 341 496 365 543 q 268 429 317 449 q 341 363 317 410 q 346 233 365 315 l 304 57 q 311 -48 289 -10 q 396 -86 333 -86 l 439 -86 q 467 -114 467 -86 l 467 -211 q 439 -239 467 -239 l 396 -239 q 263 -215 318 -239 q 174 -151 207 -192 q 129 -56 140 -110 q 132 58 118 -3 l 178 260 q 174 328 189 307 q 111 350 158 350 l 69 350 q 42 378 42 350 l 42 481 q 69 508 42 508 l 111 508 q 174 530 158 508 q 178 599 189 551 l 132 800 l 132 800 z "},"|":{"ha":368,"x_min":111,"x_max":257,"o":"m 111 1069 q 139 1097 111 1097 l 229 1097 q 257 1069 257 1097 l 257 -211 q 229 -239 257 -239 l 139 -239 q 111 -211 111 -239 l 111 1069 l 111 1069 z "},"}":{"ha":494,"x_min":28,"x_max":453,"o":"m 317 599 q 321 530 306 551 q 383 508 336 508 l 425 508 q 453 481 453 508 l 453 378 q 425 350 453 350 l 383 350 q 321 328 336 350 q 317 260 306 307 l 363 58 q 365 -56 376 -3 q 321 -151 354 -110 q 231 -215 288 -192 q 99 -239 175 -239 l 56 -239 q 28 -211 28 -239 l 28 -114 q 56 -86 28 -86 l 99 -86 q 183 -48 161 -86 q 190 57 206 -10 l 149 233 q 153 363 129 315 q 226 429 178 410 q 153 496 178 449 q 149 625 129 543 l 190 801 q 183 906 206 868 q 99 944 161 944 l 56 944 q 28 972 28 944 l 28 1069 q 56 1097 28 1097 l 99 1097 q 231 1074 175 1097 q 321 1009 288 1050 q 365 914 354 968 q 363 800 376 860 l 317 599 l 317 599 z "},"~":{"ha":774,"x_min":68,"x_max":710,"o":"m 81 308 q 71 323 74 314 q 72 340 68 332 q 274 485 142 485 q 343 470 311 485 q 404 438 375 456 q 460 406 433 421 q 511 392 486 392 q 558 406 539 392 q 596 451 576 419 q 617 467 604 464 q 640 461 629 471 l 693 421 q 701 389 710 406 q 617 281 665 315 q 500 247 568 247 q 431 262 463 247 q 369 294 399 276 q 314 326 340 311 q 263 340 288 340 q 216 326 235 340 q 176 279 197 311 q 157 264 169 267 q 133 269 144 261 l 81 308 l 81 308 z "},"₩":{"ha":1371,"x_min":28,"x_max":1343,"o":"m 865 -83 q 831 -53 835 -83 l 760 344 l 619 344 q 551 126 588 228 q 476 -58 514 25 q 460 -78 469 -74 q 433 -83 450 -83 l 304 -83 q 269 -51 276 -83 l 196 344 l 49 344 q 28 365 28 344 l 28 449 q 49 469 28 469 l 172 469 l 82 951 q 84 969 79 964 q 100 976 89 974 l 214 999 q 244 982 240 1004 l 333 469 l 507 469 q 556 709 536 589 q 582 942 575 829 q 592 975 583 964 q 624 986 600 986 l 768 986 q 794 977 788 986 q 804 954 801 968 l 888 469 l 1051 469 q 1081 706 1071 585 q 1090 953 1090 826 q 1094 976 1090 967 q 1114 986 1097 986 l 1233 986 q 1263 960 1263 986 q 1249 713 1263 836 q 1214 469 1236 589 l 1322 469 q 1343 449 1343 469 l 1343 365 q 1322 344 1343 344 l 1186 344 q 1126 128 1158 229 q 1058 -57 1094 26 q 1017 -83 1047 -83 l 865 -83 m 397 104 q 438 221 418 161 q 475 344 457 281 l 356 344 l 397 104 m 738 469 l 696 711 q 676 588 686 649 q 651 469 665 528 l 738 469 m 954 83 q 994 210 976 146 q 1028 344 1013 275 l 910 344 l 954 83 z "},"‐":{"ha":583,"x_min":69,"x_max":514,"o":"m 97 321 q 69 349 69 321 l 69 439 q 97 467 69 467 l 486 467 q 514 439 514 467 l 514 349 q 486 321 514 321 l 97 321 l 97 321 z "},"©":{"ha":1250,"x_min":42,"x_max":1208,"o":"m 304 444 q 329 584 304 519 q 399 697 354 649 q 506 772 444 744 q 638 799 567 799 q 829 740 746 799 q 839 697 851 725 l 799 619 q 756 611 785 589 q 638 647 704 647 q 565 632 597 647 q 508 590 532 617 q 472 526 485 563 q 458 444 458 489 q 472 363 458 400 q 508 299 485 326 q 565 257 532 272 q 638 242 597 242 q 756 278 704 242 q 799 269 785 300 l 839 192 q 829 149 851 164 q 638 90 746 90 q 506 117 567 90 q 399 192 444 144 q 329 305 354 240 q 304 444 304 369 m 625 -146 q 398 -100 504 -146 q 213 25 292 -54 q 88 210 133 104 q 42 438 42 317 q 88 665 42 558 q 213 850 133 771 q 398 975 292 929 q 625 1021 504 1021 q 852 975 746 1021 q 1038 850 958 929 q 1163 665 1117 771 q 1208 438 1208 558 q 1163 210 1208 317 q 1038 25 1117 104 q 852 -100 958 -54 q 625 -146 746 -146 m 625 -76 q 824 -36 731 -76 q 988 74 918 4 q 1099 238 1058 144 q 1139 438 1139 331 q 1099 637 1139 543 q 988 800 1058 731 q 824 910 918 869 q 625 951 731 951 q 425 910 518 951 q 262 800 332 869 q 151 637 192 731 q 111 438 111 543 q 151 238 111 331 q 262 74 192 144 q 425 -36 332 4 q 625 -76 518 -76 z "},"　":{"ha":1250,"x_min":0,"x_max":0,"o":""},"、":{"ha":1250,"x_min":83,"x_max":456,"o":"m 431 54 q 456 24 456 46 l 456 -122 q 447 -142 456 -135 q 425 -142 438 -149 l 108 10 q 90 24 96 17 q 83 43 83 31 l 83 131 q 92 150 83 143 q 114 153 101 157 l 431 54 l 431 54 z "},"。":{"ha":1250,"x_min":83,"x_max":439,"o":"m 181 3 q 204 -54 181 -31 q 261 -78 228 -78 q 318 -54 294 -78 q 342 3 342 -31 q 318 60 342 36 q 261 83 294 83 q 204 60 228 83 q 181 3 181 36 m 83 3 q 97 72 83 40 q 135 128 111 104 q 192 167 160 153 q 261 181 224 181 q 331 167 299 181 q 387 128 363 153 q 425 72 411 104 q 439 3 439 40 q 425 -67 439 -35 q 387 -123 411 -99 q 331 -161 363 -147 q 261 -175 299 -175 q 192 -161 224 -175 q 135 -123 160 -147 q 97 -67 111 -99 q 83 3 83 -35 z "},"·":{"ha":425,"x_min":108,"x_max":317,"o":"m 108 499 q 136 526 108 526 l 289 526 q 317 499 317 526 l 317 349 q 289 321 317 321 l 136 321 q 108 349 108 321 l 108 499 l 108 499 z "},"‥":{"ha":850,"x_min":108,"x_max":742,"o":"m 108 499 q 136 526 108 526 l 289 526 q 317 499 317 526 l 317 349 q 289 321 317 321 l 136 321 q 108 349 108 321 l 108 499 m 533 499 q 561 526 533 526 l 714 526 q 742 499 742 526 l 742 349 q 714 321 742 321 l 561 321 q 533 349 533 321 l 533 499 z "},"…":{"ha":1275,"x_min":108,"x_max":1167,"o":"m 108 499 q 136 526 108 526 l 289 526 q 317 499 317 526 l 317 349 q 289 321 317 321 l 136 321 q 108 349 108 321 l 108 499 m 533 499 q 561 526 533 526 l 714 526 q 742 499 742 526 l 742 349 q 714 321 742 321 l 561 321 q 533 349 533 321 l 533 499 m 958 499 q 986 526 958 526 l 1139 526 q 1167 499 1167 526 l 1167 349 q 1139 321 1167 321 l 986 321 q 958 349 958 321 l 958 499 z "},"〃":{"ha":1250,"x_min":289,"x_max":956,"o":"m 421 650 q 453 672 426 672 l 586 672 q 608 664 601 672 q 608 640 615 656 l 429 197 q 397 175 421 175 l 321 175 q 299 207 289 175 l 421 650 m 761 650 q 793 672 767 672 l 926 672 q 949 664 942 672 q 949 640 956 656 l 769 197 q 738 175 761 175 l 661 175 q 639 207 629 175 l 761 650 z "},"–":{"ha":861,"x_min":69,"x_max":792,"o":"m 69 439 q 97 467 69 467 l 764 467 q 792 439 792 467 l 792 349 q 764 321 792 321 l 97 321 q 69 349 69 321 l 69 439 l 69 439 z "},"—":{"ha":1583,"x_min":69,"x_max":1514,"o":"m 69 439 q 97 467 69 467 l 1486 467 q 1514 439 1514 467 l 1514 349 q 1486 321 1514 321 l 97 321 q 69 349 69 321 l 69 439 l 69 439 z "},"‘":{"ha":425,"x_min":90,"x_max":332,"o":"m 299 714 q 271 686 296 686 l 114 686 q 96 695 101 686 q 94 717 90 704 l 182 1006 q 215 1031 190 1031 l 303 1031 q 324 1023 315 1031 q 331 1003 332 1015 l 299 714 l 299 714 z "},"’":{"ha":425,"x_min":92,"x_max":333,"o":"m 125 1003 q 153 1031 128 1031 l 310 1031 q 328 1022 322 1031 q 329 1000 333 1013 l 242 711 q 208 686 233 686 l 121 686 q 100 694 108 686 q 93 714 92 701 l 125 1003 l 125 1003 z "},"“":{"ha":692,"x_min":90,"x_max":599,"o":"m 565 714 q 538 686 563 686 l 381 686 q 363 695 368 686 q 361 717 357 704 l 449 1006 q 482 1031 457 1031 l 569 1031 q 590 1023 582 1031 q 597 1003 599 1015 l 565 714 m 299 714 q 271 686 296 686 l 114 686 q 96 695 101 686 q 94 717 90 704 l 182 1006 q 215 1031 190 1031 l 303 1031 q 324 1023 315 1031 q 331 1003 332 1015 l 299 714 z "},"”":{"ha":692,"x_min":92,"x_max":600,"o":"m 125 1003 q 153 1031 128 1031 l 310 1031 q 328 1022 322 1031 q 329 1000 333 1013 l 242 711 q 208 686 233 686 l 121 686 q 100 694 108 686 q 93 714 92 701 l 125 1003 m 392 1003 q 419 1031 394 1031 l 576 1031 q 594 1022 589 1031 q 596 1000 600 1013 l 508 711 q 475 686 500 686 l 388 686 q 367 694 375 686 q 360 714 358 701 l 392 1003 z "},"〔":{"ha":486,"x_min":139,"x_max":472,"o":"m 139 861 q 153 894 139 879 l 326 1082 q 361 1097 342 1097 l 444 1097 q 467 1087 463 1097 q 460 1063 472 1076 l 250 838 l 250 21 l 460 -204 q 467 -228 472 -218 q 444 -239 463 -239 l 361 -239 q 326 -224 342 -239 l 153 -36 q 139 -3 139 -21 l 139 861 l 139 861 z "},"〕":{"ha":486,"x_min":14,"x_max":347,"o":"m 347 -3 q 333 -36 347 -21 l 160 -224 q 125 -239 144 -239 l 42 -239 q 19 -228 24 -239 q 26 -204 14 -218 l 236 21 l 236 838 l 26 1063 q 19 1087 14 1076 q 42 1097 24 1097 l 125 1097 q 160 1082 144 1097 l 333 894 q 347 861 347 879 l 347 -3 l 347 -3 z "},"〈":{"ha":597,"x_min":69,"x_max":586,"o":"m 489 -239 q 456 -219 467 -239 l 81 410 q 81 449 69 429 l 456 1078 q 489 1097 467 1097 l 558 1097 q 581 1088 575 1097 q 578 1064 586 1078 l 200 429 l 578 -206 q 581 -229 586 -219 q 558 -239 575 -239 l 489 -239 l 489 -239 z "},"〉":{"ha":597,"x_min":11,"x_max":528,"o":"m 108 1097 q 142 1078 131 1097 l 517 449 q 517 410 528 429 l 142 -219 q 108 -239 131 -239 l 39 -239 q 17 -229 22 -239 q 19 -206 11 -219 l 397 429 l 19 1064 q 17 1088 11 1078 q 39 1097 22 1097 l 108 1097 l 108 1097 z "},"《":{"ha":811,"x_min":69,"x_max":800,"o":"m 489 -239 q 456 -219 467 -239 l 81 410 q 81 449 69 429 l 456 1078 q 489 1097 467 1097 l 558 1097 q 581 1088 575 1097 q 578 1064 586 1078 l 200 429 l 578 -206 q 581 -229 586 -219 q 558 -239 575 -239 l 489 -239 m 703 -239 q 669 -219 681 -239 l 294 410 q 294 449 283 429 l 669 1078 q 703 1097 681 1097 l 772 1097 q 794 1088 789 1097 q 792 1064 800 1078 l 414 429 l 792 -206 q 794 -229 800 -219 q 772 -239 789 -239 l 703 -239 z "},"》":{"ha":811,"x_min":11,"x_max":742,"o":"m 253 -239 q 231 -229 236 -239 q 233 -206 225 -219 l 611 429 l 233 1064 q 231 1088 225 1078 q 253 1097 236 1097 l 322 1097 q 356 1078 344 1097 l 731 449 q 731 410 742 429 l 356 -219 q 322 -239 344 -239 l 253 -239 m 39 -239 q 17 -229 22 -239 q 19 -206 11 -219 l 397 429 l 19 1064 q 17 1088 11 1078 q 39 1097 22 1097 l 108 1097 q 142 1078 131 1097 l 517 449 q 517 410 528 429 l 142 -219 q 108 -239 131 -239 l 39 -239 z "},"「":{"ha":556,"x_min":139,"x_max":542,"o":"m 542 1014 q 514 986 542 986 l 250 986 l 250 457 q 222 429 250 429 l 167 429 q 139 457 139 429 l 139 1069 q 167 1097 139 1097 l 514 1097 q 542 1069 542 1097 l 542 1014 l 542 1014 z "},"」":{"ha":556,"x_min":14,"x_max":417,"o":"m 14 -156 q 42 -128 14 -128 l 306 -128 l 306 401 q 333 429 306 429 l 389 429 q 417 401 417 429 l 417 -211 q 389 -239 417 -239 l 42 -239 q 14 -211 14 -239 l 14 -156 l 14 -156 z "},"『":{"ha":556,"x_min":139,"x_max":542,"o":"m 514 1097 q 542 1069 542 1097 l 542 917 q 514 889 542 889 l 347 889 l 347 457 q 319 429 347 429 l 167 429 q 139 457 139 429 l 139 1069 q 167 1097 139 1097 l 514 1097 m 472 958 l 472 1028 l 208 1028 l 208 499 l 278 499 l 278 958 l 472 958 z "},"』":{"ha":556,"x_min":14,"x_max":417,"o":"m 42 -239 q 14 -211 14 -239 l 14 -58 q 42 -31 14 -31 l 208 -31 l 208 401 q 236 429 208 429 l 389 429 q 417 401 417 429 l 417 -211 q 389 -239 417 -239 l 42 -239 m 83 -100 l 83 -169 l 347 -169 l 347 360 l 278 360 l 278 -100 l 83 -100 z "},"【":{"ha":569,"x_min":139,"x_max":558,"o":"m 167 -239 q 139 -211 139 -239 l 139 1069 q 167 1097 139 1097 l 532 1097 q 555 1085 551 1097 q 543 1061 558 1074 q 422 938 476 1007 q 328 789 368 869 q 267 617 289 708 q 246 429 246 526 q 267 241 246 332 q 328 69 289 150 q 422 -80 368 -11 q 543 -203 476 -149 q 555 -227 558 -215 q 532 -239 551 -239 l 167 -239 l 167 -239 z "},"】":{"ha":569,"x_min":11,"x_max":431,"o":"m 38 -239 q 15 -227 18 -239 q 26 -203 11 -215 q 147 -80 93 -149 q 241 69 201 -11 q 302 241 281 150 q 324 429 324 332 q 302 617 324 526 q 241 789 281 708 q 147 938 201 869 q 26 1061 93 1007 q 15 1085 11 1074 q 38 1097 18 1097 l 403 1097 q 431 1069 431 1097 l 431 -211 q 403 -239 431 -239 l 38 -239 l 38 -239 z "},"±":{"ha":833,"x_min":69,"x_max":764,"o":"m 97 385 q 69 413 69 385 l 69 503 q 97 531 69 531 l 344 531 l 344 740 q 372 768 344 768 l 463 768 q 490 740 490 768 l 490 531 l 736 531 q 764 503 764 531 l 764 413 q 736 385 764 385 l 490 385 l 490 175 q 463 147 490 147 l 372 147 q 344 175 344 147 l 344 385 l 97 385 m 97 -83 q 69 -56 69 -83 l 69 35 q 97 63 69 63 l 736 63 q 764 35 764 63 l 764 -56 q 736 -83 764 -83 l 97 -83 z "},"×":{"ha":833,"x_min":79,"x_max":754,"o":"m 733 181 q 733 140 754 160 l 669 76 q 631 76 650 57 l 417 290 l 203 76 q 164 76 183 57 l 100 140 q 100 181 79 160 l 314 394 l 100 607 q 100 646 81 626 l 164 710 q 204 710 183 731 l 417 497 l 629 710 q 669 710 650 731 l 733 646 q 733 607 753 626 l 519 394 l 733 181 l 733 181 z "},"÷":{"ha":833,"x_min":76,"x_max":757,"o":"m 104 321 q 76 349 76 321 l 76 439 q 104 467 76 467 l 729 467 q 757 439 757 467 l 757 349 q 729 321 757 321 l 104 321 m 333 710 q 361 738 333 738 l 474 738 q 501 710 501 738 l 501 597 q 474 569 501 569 l 361 569 q 333 597 333 569 l 333 710 m 333 193 q 361 221 333 221 l 474 221 q 501 193 501 221 l 501 81 q 474 53 501 53 l 361 53 q 333 81 333 53 l 333 193 z "},"≠":{"ha":833,"x_min":83,"x_max":750,"o":"m 111 481 q 83 508 83 481 l 83 599 q 111 626 83 626 l 722 626 q 750 599 750 626 l 750 508 q 722 481 750 481 l 111 481 m 111 161 q 83 189 83 161 l 83 279 q 111 307 83 307 l 722 307 q 750 279 750 307 l 750 189 q 722 161 750 161 l 111 161 z "},"≤":{"ha":833,"x_min":69,"x_max":764,"o":"m 97 -83 q 69 -56 69 -83 l 69 35 q 97 63 69 63 l 736 63 q 764 35 764 63 l 764 -56 q 736 -83 764 -83 l 97 -83 m 92 381 q 69 413 69 389 l 69 517 q 92 549 69 540 l 732 764 q 756 763 747 769 q 764 742 764 757 l 764 643 q 742 613 764 621 l 297 465 l 742 317 q 764 286 764 308 l 764 188 q 756 166 764 172 q 732 165 747 160 l 92 381 z "},"≥":{"ha":833,"x_min":69,"x_max":764,"o":"m 97 -83 q 69 -56 69 -83 l 69 35 q 97 63 69 63 l 736 63 q 764 35 764 63 l 764 -56 q 736 -83 764 -83 l 97 -83 m 101 165 q 78 166 86 160 q 69 188 69 172 l 69 286 q 92 317 69 308 l 536 465 l 92 613 q 69 643 69 621 l 69 742 q 78 763 69 757 q 101 764 86 769 l 742 549 q 764 517 764 540 l 764 413 q 742 381 764 389 l 101 165 z "},"∞":{"ha":1250,"x_min":89,"x_max":1161,"o":"m 367 182 q 461 216 415 182 q 549 326 507 250 q 461 438 507 404 q 367 472 415 472 q 270 433 311 472 q 229 326 229 393 q 270 221 229 260 q 367 182 311 182 m 883 182 q 980 221 939 182 q 1021 326 1021 260 q 980 433 1021 393 q 883 472 939 472 q 788 438 833 472 q 701 326 742 404 q 788 216 742 250 q 883 182 833 182 m 89 326 q 113 448 89 396 q 176 534 138 500 q 263 585 215 568 q 356 603 310 603 q 443 590 403 603 q 517 555 483 576 q 578 504 551 533 q 625 443 604 475 q 672 504 646 475 q 733 555 699 533 q 807 590 767 576 q 894 603 847 603 q 988 585 940 603 q 1074 534 1035 568 q 1137 448 1113 500 q 1161 326 1161 396 q 1137 205 1161 257 q 1074 118 1113 153 q 988 67 1035 83 q 894 50 940 50 q 807 63 847 50 q 733 99 767 76 q 672 149 699 121 q 625 210 646 178 q 578 149 604 178 q 517 99 551 121 q 443 63 483 76 q 356 50 403 50 q 263 67 310 50 q 176 118 215 83 q 113 205 138 153 q 89 326 89 257 z "},"∴":{"ha":1250,"x_min":236,"x_max":1000,"o":"m 236 247 q 264 275 236 275 l 417 275 q 444 247 444 275 l 444 97 q 417 69 444 69 l 264 69 q 236 97 236 69 l 236 247 m 792 247 q 819 275 792 275 l 972 275 q 1000 247 1000 275 l 1000 97 q 972 69 1000 69 l 819 69 q 792 97 792 69 l 792 247 m 514 733 q 542 761 514 761 l 694 761 q 722 733 722 761 l 722 583 q 694 556 722 556 l 542 556 q 514 583 514 556 l 514 733 z "},"°":{"ha":603,"x_min":83,"x_max":519,"o":"m 301 565 q 217 583 257 565 q 148 630 178 600 q 101 699 118 660 q 83 783 83 739 q 101 869 83 829 q 148 938 118 908 q 217 985 178 968 q 301 1003 257 1003 q 385 985 346 1003 q 455 938 425 968 q 502 869 485 908 q 519 783 519 829 q 502 699 519 739 q 455 630 485 660 q 385 583 425 600 q 301 565 346 565 m 301 688 q 368 715 342 688 q 394 783 394 743 q 368 852 394 824 q 301 881 342 881 q 235 852 261 881 q 208 783 208 824 q 235 715 208 743 q 301 688 261 688 z "},"′":{"ha":431,"x_min":76,"x_max":358,"o":"m 160 964 q 172 981 163 975 q 192 986 181 986 l 325 986 q 347 954 358 986 l 214 581 q 182 558 206 558 l 106 558 q 83 590 76 558 l 160 964 l 160 964 z "},"″":{"ha":733,"x_min":76,"x_max":661,"o":"m 160 964 q 172 981 163 975 q 192 986 181 986 l 325 986 q 347 954 358 986 l 214 581 q 182 558 206 558 l 106 558 q 83 590 76 558 l 160 964 m 463 964 q 474 981 465 975 q 494 986 483 986 l 628 986 q 650 954 661 986 l 517 581 q 485 558 508 558 l 408 558 q 386 590 379 558 l 463 964 z "},"￠":{"ha":707,"x_min":58,"x_max":663,"o":"m 474 46 q 582 93 533 58 q 613 82 601 106 l 653 -8 q 643 -40 663 -29 q 571 -74 613 -60 q 474 -94 529 -89 l 474 -190 q 453 -211 474 -211 l 369 -211 q 349 -190 349 -211 l 349 -90 q 225 -41 279 -76 q 134 47 171 -6 q 78 163 97 99 q 58 299 58 228 q 78 434 58 369 q 134 551 97 499 q 225 638 171 603 q 349 688 279 674 l 349 788 q 369 808 349 808 l 453 808 q 474 788 474 808 l 474 692 q 571 672 529 686 q 643 638 613 657 q 653 606 663 626 l 613 515 q 582 504 601 492 q 474 551 533 539 l 474 46 m 226 299 q 258 154 226 221 q 349 60 289 88 l 349 538 q 258 443 289 510 q 226 299 226 376 z "},"￡":{"ha":917,"x_min":69,"x_max":857,"o":"m 507 1006 q 695 962 615 1006 q 840 843 775 918 q 838 804 857 824 l 758 731 q 719 733 738 710 q 623 818 676 789 q 507 847 569 847 q 432 837 468 847 q 369 805 396 826 q 326 751 342 783 q 310 674 310 718 q 326 573 310 618 q 363 486 343 528 l 686 486 q 714 458 714 486 l 714 382 q 686 354 714 354 l 413 354 q 417 308 417 331 q 385 176 417 233 q 310 75 354 118 l 796 75 q 824 47 824 75 l 824 -56 q 796 -83 824 -83 l 97 -83 q 69 -56 69 -83 l 69 13 q 88 46 69 33 q 207 161 163 100 q 251 304 251 222 q 246 354 251 332 l 99 354 q 71 382 71 354 l 71 458 q 99 486 71 486 l 199 486 q 162 580 179 532 q 144 681 144 628 q 175 822 144 761 q 256 923 206 882 q 372 985 307 964 q 507 1006 438 1006 z "},"￥":{"ha":971,"x_min":28,"x_max":942,"o":"m 35 886 q 28 907 28 896 q 40 925 29 918 l 139 992 q 159 997 149 999 q 176 985 169 996 l 483 536 l 804 985 q 842 992 819 1007 l 928 931 q 940 913 938 924 q 933 892 942 903 l 643 493 l 821 493 q 849 465 849 493 l 849 389 q 821 361 849 361 l 574 361 l 574 257 l 821 257 q 849 229 849 257 l 849 153 q 821 125 849 125 l 574 125 l 574 -56 q 546 -83 574 -83 l 429 -83 q 401 -56 401 -83 l 401 125 l 149 125 q 121 153 121 125 l 121 229 q 149 257 121 257 l 401 257 l 401 361 l 149 361 q 121 389 121 361 l 121 465 q 149 493 121 493 l 313 493 l 35 886 l 35 886 z "},"≒":{"ha":833,"x_min":56,"x_max":778,"o":"m 83 456 q 56 483 56 456 l 56 574 q 83 601 56 601 l 750 601 q 778 574 778 601 l 778 483 q 750 456 778 456 l 83 456 m 83 185 q 56 213 56 185 l 56 303 q 83 331 56 331 l 750 331 q 778 303 778 331 l 778 213 q 750 185 778 185 l 83 185 m 136 860 q 164 888 136 888 l 304 888 q 332 860 332 888 l 332 719 q 304 692 332 692 l 164 692 q 136 719 136 692 l 136 860 m 501 67 q 529 94 501 94 l 669 94 q 697 67 697 94 l 697 -74 q 669 -101 697 -101 l 529 -101 q 501 -74 501 -101 l 501 67 z "},"※":{"ha":1250,"x_min":78,"x_max":1172,"o":"m 144 -17 q 144 22 125 3 l 546 424 l 144 825 q 144 864 125 844 l 185 904 q 224 904 204 924 l 625 503 l 1026 904 q 1065 904 1046 924 l 1106 864 q 1106 825 1125 844 l 704 424 l 1106 22 q 1106 -17 1125 3 l 1065 -57 q 1026 -57 1046 -76 l 625 344 l 224 -57 q 185 -57 204 -76 l 144 -17 m 604 950 q 643 950 625 971 l 751 842 q 751 803 772 824 l 646 697 q 607 697 625 676 l 499 806 q 499 844 478 824 l 604 950 m 604 150 q 643 150 625 171 l 751 42 q 751 3 772 24 l 646 -103 q 607 -103 625 -124 l 499 6 q 499 44 478 24 l 604 150 m 1151 444 q 1151 406 1172 424 l 1043 297 q 1004 297 1025 276 l 899 403 q 899 442 878 424 l 1007 550 q 1046 550 1025 571 l 1151 444 m 351 444 q 351 406 372 424 l 243 297 q 204 297 225 276 l 99 403 q 99 442 78 424 l 207 550 q 246 550 225 571 l 351 444 z "},"☆":{"ha":1250,"x_min":69,"x_max":1181,"o":"m 1154 592 q 1177 580 1174 592 q 1165 557 1181 568 l 868 318 l 988 -51 q 985 -78 994 -71 q 958 -74 975 -85 l 625 143 l 292 -74 q 265 -78 275 -85 q 263 -51 256 -71 l 382 318 l 85 557 q 73 580 69 568 q 96 592 76 592 l 476 592 l 607 956 q 625 974 614 974 q 643 956 636 974 l 774 592 l 1154 592 m 506 358 l 424 129 l 625 267 l 826 129 l 744 358 l 928 497 l 697 497 l 625 713 l 553 497 l 322 497 l 506 358 z "},"★":{"ha":1250,"x_min":69,"x_max":1181,"o":"m 1154 592 q 1177 580 1174 592 q 1165 557 1181 568 l 868 318 l 988 -51 q 985 -78 994 -71 q 958 -74 975 -85 l 625 143 l 292 -74 q 265 -78 275 -85 q 263 -51 256 -71 l 382 318 l 85 557 q 73 580 69 568 q 96 592 76 592 l 476 592 l 607 956 q 625 974 614 974 q 643 956 636 974 l 774 592 l 1154 592 l 1154 592 z "},"○":{"ha":1250,"x_min":69,"x_max":1181,"o":"m 181 424 q 215 251 181 332 q 310 109 250 169 q 452 14 371 49 q 625 -21 533 -21 q 798 14 717 -21 q 940 109 879 49 q 1035 251 1000 169 q 1069 424 1069 332 q 1035 597 1069 515 q 940 738 1000 678 q 798 833 879 799 q 625 868 717 868 q 452 833 533 868 q 310 738 371 799 q 215 597 250 678 q 181 424 181 515 m 625 -132 q 408 -88 510 -132 q 232 31 307 -44 q 113 207 157 106 q 69 424 69 308 q 113 640 69 539 q 232 817 157 742 q 408 935 307 892 q 625 979 510 979 q 842 935 740 979 q 1018 817 943 892 q 1137 640 1093 742 q 1181 424 1181 539 q 1137 207 1181 308 q 1018 31 1093 106 q 842 -88 943 -44 q 625 -132 740 -132 z "},"●":{"ha":1250,"x_min":69,"x_max":1181,"o":"m 625 -132 q 408 -88 510 -132 q 232 31 307 -44 q 113 207 157 106 q 69 424 69 308 q 113 640 69 539 q 232 817 157 742 q 408 935 307 892 q 625 979 510 979 q 842 935 740 979 q 1018 817 943 892 q 1137 640 1093 742 q 1181 424 1181 539 q 1137 207 1181 308 q 1018 31 1093 106 q 842 -88 943 -44 q 625 -132 740 -132 z "},"◎":{"ha":1250,"x_min":69,"x_max":1181,"o":"m 625 118 q 506 142 561 118 q 408 207 450 165 q 343 304 367 249 q 319 424 319 360 q 343 543 319 488 q 408 640 367 599 q 506 706 450 682 q 625 729 561 729 q 744 706 689 729 q 842 640 800 682 q 907 543 883 599 q 931 424 931 488 q 907 304 931 360 q 842 207 883 249 q 744 142 800 165 q 625 118 689 118 m 181 424 q 215 251 181 332 q 310 109 250 169 q 452 14 371 49 q 625 -21 533 -21 q 798 14 717 -21 q 940 109 879 49 q 1035 251 1000 169 q 1069 424 1069 332 q 1035 597 1069 515 q 940 738 1000 678 q 798 833 879 799 q 625 868 717 868 q 452 833 533 868 q 310 738 371 799 q 215 597 250 678 q 181 424 181 515 m 625 -132 q 408 -88 510 -132 q 232 31 307 -44 q 113 207 157 106 q 69 424 69 308 q 113 640 69 539 q 232 817 157 742 q 408 935 307 892 q 625 979 510 979 q 842 935 740 979 q 1018 817 943 892 q 1137 640 1093 742 q 1181 424 1181 539 q 1137 207 1181 308 q 1018 31 1093 106 q 842 -88 943 -44 q 625 -132 740 -132 m 431 424 q 446 348 431 383 q 488 286 461 313 q 549 244 514 260 q 625 229 585 229 q 701 244 665 229 q 763 286 736 260 q 804 348 789 313 q 819 424 819 383 q 804 499 819 464 q 763 561 789 535 q 701 603 736 588 q 625 618 665 618 q 549 603 585 618 q 488 561 514 588 q 446 499 461 535 q 431 424 431 464 z "},"◇":{"ha":1250,"x_min":42,"x_max":1208,"o":"m 61 404 q 61 443 42 424 l 606 988 q 644 988 625 1007 l 1189 443 q 1189 404 1208 424 l 644 -140 q 606 -140 625 -160 l 61 404 m 1051 424 l 625 850 l 199 424 l 625 -3 l 1051 424 z "},"◆":{"ha":1250,"x_min":42,"x_max":1208,"o":"m 61 404 q 61 443 42 424 l 606 988 q 644 988 625 1007 l 1189 443 q 1189 404 1208 424 l 644 -140 q 606 -140 625 -160 l 61 404 l 61 404 z "},"□":{"ha":1250,"x_min":111,"x_max":1139,"o":"m 1028 826 l 222 826 l 222 21 l 1028 21 l 1028 826 m 139 -90 q 111 -62 111 -90 l 111 910 q 139 938 111 938 l 1111 938 q 1139 910 1139 938 l 1139 -62 q 1111 -90 1139 -90 l 139 -90 z "},"■":{"ha":1250,"x_min":111,"x_max":1139,"o":"m 139 -90 q 111 -62 111 -90 l 111 910 q 139 938 111 938 l 1111 938 q 1139 910 1139 938 l 1139 -62 q 1111 -90 1139 -90 l 139 -90 l 139 -90 z "},"△":{"ha":1250,"x_min":67,"x_max":1183,"o":"m 606 943 q 625 958 614 958 q 644 943 636 958 l 1176 -57 q 1178 -81 1183 -72 q 1157 -90 1172 -90 l 93 -90 q 72 -81 78 -90 q 74 -57 67 -72 l 606 943 m 1010 21 l 625 743 l 240 21 l 1010 21 z "},"▲":{"ha":1250,"x_min":67,"x_max":1183,"o":"m 606 943 q 625 958 614 958 q 644 943 636 958 l 1176 -57 q 1178 -81 1183 -72 q 1157 -90 1172 -90 l 93 -90 q 72 -81 78 -90 q 74 -57 67 -72 l 606 943 l 606 943 z "},"▽":{"ha":1250,"x_min":67,"x_max":1183,"o":"m 74 904 q 72 928 67 919 q 93 938 78 938 l 1157 938 q 1178 928 1172 938 q 1176 904 1183 919 l 644 -96 q 625 -111 636 -111 q 606 -96 614 -111 l 74 904 m 625 104 l 1010 826 l 240 826 l 625 104 z "},"▼":{"ha":1250,"x_min":67,"x_max":1183,"o":"m 74 904 q 72 928 67 919 q 93 938 78 938 l 1157 938 q 1178 928 1172 938 q 1176 904 1183 919 l 644 -96 q 625 -111 636 -111 q 606 -96 614 -111 l 74 904 l 74 904 z "},"→":{"ha":1250,"x_min":69,"x_max":1208,"o":"m 964 179 q 925 179 944 160 l 885 218 q 885 257 865 238 l 996 368 l 97 368 q 69 396 69 368 l 69 451 q 97 479 69 479 l 996 479 l 885 590 q 885 629 865 610 l 925 668 q 964 668 944 688 l 1189 443 q 1189 404 1208 424 l 964 179 l 964 179 z "},"←":{"ha":1250,"x_min":42,"x_max":1181,"o":"m 61 404 q 61 443 42 424 l 286 668 q 325 668 306 688 l 365 629 q 365 590 385 610 l 254 479 l 1153 479 q 1181 451 1181 479 l 1181 396 q 1153 368 1181 368 l 254 368 l 365 257 q 365 218 385 238 l 325 179 q 286 179 306 160 l 61 404 l 61 404 z "},"↑":{"ha":1250,"x_min":361,"x_max":889,"o":"m 869 763 q 869 724 889 743 l 831 683 q 792 683 811 664 l 681 794 l 681 -104 q 653 -132 681 -132 l 597 -132 q 569 -104 569 -132 l 569 794 l 458 683 q 419 683 439 664 l 381 724 q 381 763 361 743 l 606 988 q 644 988 625 1007 l 869 763 l 869 763 z "},"↓":{"ha":1250,"x_min":361,"x_max":889,"o":"m 644 -140 q 606 -140 625 -160 l 381 85 q 381 124 361 104 l 419 164 q 458 164 439 183 l 569 53 l 569 951 q 597 979 569 979 l 653 979 q 681 951 681 979 l 681 53 l 792 164 q 831 164 811 183 l 869 124 q 869 85 889 104 l 644 -140 l 644 -140 z "},"↔":{"ha":1250,"x_min":42,"x_max":1208,"o":"m 885 590 q 885 629 865 610 l 925 668 q 964 668 944 688 l 1189 443 q 1189 404 1208 424 l 964 179 q 925 179 944 160 l 885 218 q 885 257 865 238 l 996 368 l 254 368 l 365 257 q 365 218 385 238 l 325 179 q 286 179 306 160 l 61 404 q 61 443 42 424 l 286 668 q 325 668 306 688 l 365 629 q 365 590 385 610 l 254 479 l 996 479 l 885 590 l 885 590 z "},"«":{"ha":875,"x_min":42,"x_max":824,"o":"m 279 664 q 313 681 290 681 l 449 681 q 471 672 465 681 q 465 647 476 663 l 240 340 l 465 33 q 471 9 476 18 q 449 0 465 0 l 313 0 q 279 17 290 0 l 56 321 q 56 360 42 340 l 279 664 m 626 664 q 660 681 638 681 l 796 681 q 818 672 813 681 q 813 647 824 663 l 588 340 l 813 33 q 818 9 824 18 q 796 0 813 0 l 660 0 q 626 17 638 0 l 403 321 q 403 360 389 340 l 626 664 z "},"»":{"ha":875,"x_min":51,"x_max":833,"o":"m 819 360 q 819 321 833 340 l 596 17 q 563 0 585 0 l 426 0 q 404 9 410 0 q 410 33 399 18 l 635 340 l 410 647 q 404 672 399 663 q 426 681 410 681 l 563 681 q 596 664 585 681 l 819 360 m 472 360 q 472 321 486 340 l 249 17 q 215 0 238 0 l 79 0 q 57 9 63 0 q 63 33 51 18 l 288 340 l 63 647 q 57 672 51 663 q 79 681 63 681 l 215 681 q 249 664 238 681 l 472 360 z "},"√":{"ha":885,"x_min":56,"x_max":860,"o":"m 685 963 q 715 986 692 986 l 832 986 q 853 978 847 986 q 856 954 860 969 l 539 -60 q 508 -83 532 -83 l 376 -83 q 344 -62 351 -83 l 190 313 l 83 313 q 56 340 56 313 l 56 444 q 83 472 56 472 l 272 472 q 304 450 296 472 l 433 135 l 685 963 l 685 963 z "},"∵":{"ha":1250,"x_min":236,"x_max":1000,"o":"m 236 733 q 264 761 236 761 l 417 761 q 444 733 444 761 l 444 583 q 417 556 444 556 l 264 556 q 236 583 236 556 l 236 733 m 792 733 q 819 761 792 761 l 972 761 q 1000 733 1000 761 l 1000 583 q 972 556 1000 556 l 819 556 q 792 583 792 556 l 792 733 m 514 247 q 542 275 514 275 l 694 275 q 722 247 722 275 l 722 97 q 694 69 722 69 l 542 69 q 514 97 514 69 l 514 247 z "},"¡":{"ha":451,"x_min":122,"x_max":331,"o":"m 150 344 q 178 372 150 372 l 275 372 q 303 344 303 372 l 318 -358 q 290 -386 318 -386 l 163 -386 q 135 -358 135 -386 l 150 344 m 122 672 q 150 700 122 700 l 303 700 q 331 672 331 700 l 331 522 q 303 494 331 494 l 150 494 q 122 522 122 494 l 122 672 z "},"¿":{"ha":781,"x_min":56,"x_max":721,"o":"m 435 372 q 467 350 461 372 q 467 209 489 278 q 385 92 446 140 l 301 25 q 247 -40 263 -7 q 232 -110 232 -72 q 274 -210 232 -172 q 383 -247 315 -247 q 499 -210 454 -247 q 554 -96 543 -172 q 585 -72 558 -68 l 697 -90 q 718 -121 721 -94 q 682 -237 710 -185 q 610 -326 654 -289 q 506 -383 565 -362 q 379 -403 447 -403 q 249 -381 308 -403 q 147 -322 189 -360 q 80 -231 104 -283 q 56 -118 56 -179 q 93 22 56 -33 q 192 125 131 78 l 268 183 q 316 252 307 214 q 317 342 325 290 q 340 372 313 372 l 435 372 m 485 522 q 457 494 485 494 l 304 494 q 276 522 276 494 l 276 672 q 304 700 276 700 l 457 700 q 485 672 485 700 l 485 522 z "},"∑":{"ha":911,"x_min":69,"x_max":842,"o":"m 79 839 q 69 872 69 857 l 69 958 q 97 986 69 986 l 814 986 q 842 958 842 986 l 842 854 q 814 826 842 826 l 279 826 l 569 353 q 569 314 582 333 l 279 -160 l 814 -160 q 842 -187 842 -160 l 842 -292 q 814 -319 842 -319 l 97 -319 q 69 -292 69 -319 l 69 -206 q 79 -172 69 -190 l 388 333 l 79 839 l 79 839 z "},"∏":{"ha":1014,"x_min":83,"x_max":931,"o":"m 83 958 q 111 986 83 986 l 903 986 q 931 958 931 986 l 931 -292 q 903 -319 931 -319 l 792 -319 q 764 -292 764 -319 l 764 826 l 250 826 l 250 -292 q 222 -319 250 -319 l 111 -319 q 83 -292 83 -319 l 83 958 l 83 958 z "},"¤":{"ha":835,"x_min":61,"x_max":775,"o":"m 417 118 q 261 164 331 118 l 168 71 q 129 71 149 51 l 79 119 q 79 158 61 138 l 172 253 q 140 326 151 286 q 128 408 128 365 q 140 491 128 451 q 172 564 151 531 l 81 657 q 81 696 63 675 l 129 746 q 168 746 147 767 l 261 653 q 335 685 296 674 q 417 697 374 697 q 499 685 460 697 q 572 651 538 674 l 667 746 q 706 746 688 767 l 754 696 q 754 657 772 675 l 660 563 q 706 408 706 493 q 694 326 706 365 q 661 253 682 288 l 756 158 q 756 119 775 139 l 706 71 q 667 71 686 51 l 572 164 q 417 118 503 118 m 417 243 q 480 256 450 243 q 532 292 510 269 q 567 344 554 314 q 581 408 581 375 q 567 472 581 442 q 532 524 554 501 q 480 559 510 546 q 417 572 450 572 q 353 559 383 572 q 301 524 324 546 q 266 472 279 501 q 253 408 253 442 q 266 344 253 374 q 301 292 279 314 q 353 256 324 269 q 417 243 383 243 z "},"‰":{"ha":1899,"x_min":69,"x_max":1829,"o":"m 885 967 q 918 986 896 986 l 1021 986 q 1043 976 1038 986 q 1040 953 1049 967 l 433 -64 q 400 -83 422 -83 l 297 -83 q 275 -74 281 -83 q 278 -50 269 -64 l 885 967 m 69 711 q 86 821 69 768 q 136 913 103 874 q 218 976 169 953 q 331 1000 267 1000 q 443 976 394 1000 q 525 913 492 953 q 575 821 558 874 q 592 711 592 768 q 575 601 592 654 q 525 509 558 549 q 443 446 492 469 q 331 422 394 422 q 218 446 267 422 q 136 509 169 469 q 86 601 103 549 q 69 711 69 654 m 208 711 q 215 651 208 681 q 238 600 222 622 q 276 564 253 578 q 331 550 299 550 q 385 564 363 550 q 424 600 408 578 q 446 651 439 622 q 453 711 453 681 q 446 771 453 742 q 424 822 439 800 q 385 858 408 844 q 331 872 363 872 q 276 858 299 872 q 238 822 253 844 q 215 771 222 800 q 208 711 208 742 m 726 192 q 743 301 726 249 q 793 394 760 354 q 875 457 826 433 q 988 481 924 481 q 1100 457 1051 481 q 1182 394 1149 433 q 1232 301 1215 354 q 1249 192 1249 249 q 1232 82 1249 135 q 1182 -10 1215 29 q 1100 -74 1149 -50 q 988 -97 1051 -97 q 875 -74 924 -97 q 793 -10 826 -50 q 743 82 760 29 q 726 192 726 135 m 865 192 q 872 132 865 161 q 894 81 879 103 q 933 44 910 58 q 988 31 956 31 q 1042 44 1019 31 q 1081 81 1065 58 q 1103 132 1096 103 q 1110 192 1110 161 q 1103 251 1110 222 q 1081 303 1096 281 q 1042 339 1065 325 q 988 353 1019 353 q 933 339 956 353 q 894 303 910 325 q 872 251 879 281 q 865 192 865 222 m 1307 192 q 1324 301 1307 249 q 1374 394 1340 354 q 1456 457 1407 433 q 1568 481 1504 481 q 1681 457 1632 481 q 1763 394 1729 433 q 1813 301 1796 354 q 1829 192 1829 249 q 1813 82 1829 135 q 1763 -10 1796 29 q 1681 -74 1729 -50 q 1568 -97 1632 -97 q 1456 -74 1504 -97 q 1374 -10 1407 -50 q 1324 82 1340 29 q 1307 192 1307 135 m 1446 192 q 1453 132 1446 161 q 1475 81 1460 103 q 1513 44 1490 58 q 1568 31 1536 31 q 1623 44 1600 31 q 1661 81 1646 58 q 1683 132 1676 103 q 1690 192 1690 161 q 1683 251 1690 222 q 1661 303 1676 281 q 1623 339 1646 325 q 1568 353 1600 353 q 1513 339 1536 353 q 1475 303 1490 325 q 1453 251 1460 281 q 1446 192 1446 222 z "},"◁":{"ha":1250,"x_min":90,"x_max":1139,"o":"m 1106 975 q 1130 976 1121 982 q 1139 956 1139 971 l 1139 -108 q 1130 -129 1139 -124 q 1106 -128 1121 -135 l 106 404 q 90 424 90 413 q 106 443 90 435 l 1106 975 m 306 424 l 1028 39 l 1028 808 l 306 424 z "},"◀":{"ha":1250,"x_min":90,"x_max":1139,"o":"m 1106 975 q 1130 976 1121 982 q 1139 956 1139 971 l 1139 -108 q 1130 -129 1139 -124 q 1106 -128 1121 -135 l 106 404 q 90 424 90 413 q 106 443 90 435 l 1106 975 l 1106 975 z "},"▷":{"ha":1250,"x_min":111,"x_max":1160,"o":"m 1144 443 q 1160 424 1160 435 q 1144 404 1160 413 l 144 -128 q 120 -129 129 -135 q 111 -108 111 -124 l 111 956 q 120 976 111 971 q 144 975 129 982 l 1144 443 m 222 39 l 944 424 l 222 808 l 222 39 z "},"▶":{"ha":1250,"x_min":111,"x_max":1160,"o":"m 1144 443 q 1160 424 1160 435 q 1144 404 1160 413 l 144 -128 q 120 -129 129 -135 q 111 -108 111 -124 l 111 956 q 120 976 111 971 q 144 975 129 982 l 1144 443 l 1144 443 z "},"♤":{"ha":1250,"x_min":83,"x_max":1167,"o":"m 625 876 q 474 762 550 822 q 335 635 397 701 q 233 496 272 568 q 194 347 194 424 q 238 208 194 260 q 360 157 282 157 q 424 168 393 157 q 481 199 456 179 q 526 247 507 218 q 554 308 546 275 q 582 353 563 339 q 625 368 601 368 q 668 353 649 368 q 696 308 688 339 q 724 247 704 275 q 769 199 743 218 q 826 168 794 179 q 890 157 857 157 q 1012 208 968 157 q 1056 347 1056 260 q 1017 496 1056 424 q 915 635 978 568 q 776 762 853 701 q 625 876 700 822 m 83 336 q 127 522 83 433 q 244 692 171 611 q 411 849 317 774 q 606 993 506 924 q 644 993 625 1007 q 838 849 744 924 q 1005 692 932 774 q 1122 522 1078 611 q 1167 336 1167 433 q 1144 219 1167 272 q 1085 128 1122 167 q 1000 69 1049 90 q 899 49 951 49 q 823 60 860 49 q 754 92 786 71 q 699 142 722 113 q 664 207 675 171 l 722 -101 q 697 -132 726 -132 l 553 -132 q 528 -101 524 -132 l 586 207 q 551 142 575 171 q 496 92 528 113 q 427 60 464 71 q 351 49 390 49 q 250 69 299 49 q 165 128 201 90 q 106 219 128 167 q 83 336 83 272 z "},"♠":{"ha":1250,"x_min":83,"x_max":1167,"o":"m 83 336 q 127 522 83 433 q 244 692 171 611 q 411 849 317 774 q 606 993 506 924 q 644 993 625 1007 q 838 849 744 924 q 1005 692 932 774 q 1122 522 1078 611 q 1167 336 1167 433 q 1144 219 1167 272 q 1085 128 1122 167 q 1000 69 1049 90 q 899 49 951 49 q 823 60 860 49 q 754 92 786 71 q 699 142 722 113 q 664 207 675 171 l 722 -101 q 697 -132 726 -132 l 553 -132 q 528 -101 524 -132 l 586 207 q 551 142 575 171 q 496 92 528 113 q 427 60 464 71 q 351 49 390 49 q 250 69 299 49 q 165 128 201 90 q 106 219 128 167 q 83 336 83 272 z "},"♡":{"ha":1250,"x_min":83,"x_max":1167,"o":"m 625 13 q 778 139 701 68 q 916 289 854 210 q 1017 453 978 368 q 1056 621 1056 538 q 1008 783 1056 725 q 886 840 961 840 q 766 797 817 840 q 696 685 715 753 q 668 640 688 654 q 625 625 649 625 q 582 640 601 625 q 554 685 563 654 q 484 797 535 753 q 364 840 433 840 q 242 783 289 840 q 194 621 194 725 q 233 453 194 538 q 334 289 272 368 q 472 139 396 210 q 625 13 549 68 m 83 632 q 108 765 83 706 q 172 865 132 824 q 262 929 211 907 q 364 951 313 951 q 528 899 460 951 q 625 758 596 846 q 722 899 654 846 q 886 951 790 951 q 988 929 938 951 q 1078 865 1039 907 q 1142 765 1118 824 q 1167 632 1167 706 q 1124 433 1167 532 q 1011 242 1082 335 q 847 63 940 149 q 650 -100 753 -24 q 600 -100 625 -119 q 403 63 497 -24 q 239 242 310 149 q 126 433 168 335 q 83 632 83 532 z "},"♥":{"ha":1250,"x_min":83,"x_max":1167,"o":"m 83 632 q 108 765 83 706 q 172 865 132 824 q 262 929 211 907 q 364 951 313 951 q 528 899 460 951 q 625 758 596 846 q 722 899 654 846 q 886 951 790 951 q 988 929 938 951 q 1078 865 1039 907 q 1142 765 1118 824 q 1167 632 1167 706 q 1124 433 1167 532 q 1011 242 1082 335 q 847 63 940 149 q 650 -100 753 -24 q 600 -100 625 -119 q 403 63 497 -24 q 239 242 310 149 q 126 433 168 335 q 83 632 83 532 z "},"♧":{"ha":1250,"x_min":83,"x_max":1167,"o":"m 625 868 q 565 857 593 868 q 516 826 538 846 q 482 780 494 807 q 469 719 469 753 q 492 624 469 667 q 546 547 515 582 q 561 502 564 528 q 544 456 558 476 q 506 427 529 436 q 458 431 483 418 q 399 456 431 446 q 339 465 367 465 q 235 426 278 465 q 192 308 192 386 q 204 245 192 274 q 238 196 217 217 q 285 163 258 175 q 343 151 313 151 q 408 163 379 151 q 458 194 436 175 q 494 235 479 213 q 519 279 510 257 q 560 328 535 311 q 625 346 586 346 q 690 328 664 346 q 731 279 715 311 q 756 235 740 257 q 792 194 771 213 q 842 163 814 175 q 907 151 871 151 q 965 163 938 151 q 1013 196 992 175 q 1046 245 1033 217 q 1058 308 1058 274 q 1015 426 1058 386 q 911 465 972 465 q 851 456 883 465 q 792 431 819 446 q 744 427 767 418 q 706 456 721 436 q 689 502 692 476 q 704 547 686 528 q 758 624 735 582 q 781 719 781 667 q 768 780 781 753 q 734 826 756 807 q 684 857 713 846 q 625 868 656 868 m 83 306 q 103 409 83 363 q 157 488 124 456 q 235 539 190 521 q 328 557 279 557 q 403 543 363 557 q 472 510 444 529 q 394 601 428 546 q 361 719 361 657 q 383 822 361 775 q 442 903 406 868 q 526 957 478 938 q 625 976 574 976 q 724 957 676 976 q 808 903 772 938 q 867 822 844 868 q 889 719 889 775 q 856 601 889 657 q 778 510 822 546 q 847 543 806 529 q 922 557 888 557 q 1015 539 971 557 q 1093 488 1060 521 q 1147 409 1126 456 q 1167 306 1167 363 q 1146 204 1167 251 q 1090 122 1125 157 q 1009 68 1056 88 q 913 49 963 49 q 830 62 871 49 q 755 99 789 75 q 695 156 721 122 q 658 229 669 189 l 722 -101 q 697 -132 729 -132 l 553 -132 q 528 -101 521 -132 l 592 229 q 555 156 581 189 q 495 99 529 122 q 420 62 461 75 q 338 49 379 49 q 241 68 288 49 q 160 122 194 88 q 104 204 125 157 q 83 306 83 251 z "},"♣":{"ha":1250,"x_min":83,"x_max":1167,"o":"m 83 306 q 103 409 83 363 q 157 488 124 456 q 235 539 190 521 q 328 557 279 557 q 403 543 363 557 q 472 510 444 529 q 394 601 428 546 q 361 719 361 657 q 383 822 361 775 q 442 903 406 868 q 526 957 478 938 q 625 976 574 976 q 724 957 676 976 q 808 903 772 938 q 867 822 844 868 q 889 719 889 775 q 856 601 889 657 q 778 510 822 546 q 847 543 806 529 q 922 557 888 557 q 1015 539 971 557 q 1093 488 1060 521 q 1147 409 1126 456 q 1167 306 1167 363 q 1146 204 1167 251 q 1090 122 1125 157 q 1009 68 1056 88 q 913 49 963 49 q 830 62 871 49 q 755 99 789 75 q 695 156 721 122 q 658 229 669 189 l 722 -101 q 697 -132 729 -132 l 553 -132 q 528 -101 521 -132 l 592 229 q 555 156 581 189 q 495 99 529 122 q 420 62 461 75 q 338 49 379 49 q 241 68 288 49 q 160 122 194 88 q 104 204 125 157 q 83 306 83 251 z "},"♨":{"ha":1250,"x_min":83,"x_max":1167,"o":"m 369 376 q 355 463 369 422 q 324 544 340 504 q 292 625 307 583 q 278 715 278 667 q 282 773 278 743 q 297 833 286 803 q 329 893 308 864 q 382 949 350 922 q 422 944 404 967 l 449 914 q 447 875 464 896 q 402 802 415 839 q 389 726 389 765 q 403 640 389 681 q 435 558 418 599 q 466 475 451 517 q 481 388 481 433 q 461 267 481 331 q 378 138 442 204 q 338 139 358 118 l 303 176 q 306 218 286 194 q 369 376 369 290 m 994 342 q 1031 356 1006 369 q 1126 281 1085 328 q 1167 175 1167 233 q 1134 68 1167 118 q 1034 -21 1101 18 q 865 -82 967 -60 q 625 -104 763 -104 q 385 -82 488 -104 q 216 -21 283 -60 q 116 68 149 18 q 83 175 83 118 q 124 281 83 233 q 219 356 165 328 q 256 342 244 369 l 263 325 q 251 288 272 301 q 194 189 194 253 q 219 117 194 150 q 297 59 244 83 q 430 21 349 35 q 625 7 511 7 q 820 21 739 7 q 953 59 901 35 q 1031 117 1006 83 q 1056 189 1056 150 q 999 288 1056 253 q 988 325 978 301 l 994 342 m 833 376 q 819 463 833 422 q 788 544 804 504 q 756 625 771 583 q 742 715 742 667 q 746 773 742 743 q 761 833 750 803 q 793 893 772 864 q 846 949 814 922 q 886 944 868 967 l 913 914 q 911 875 928 896 q 866 802 879 839 q 853 726 853 765 q 867 640 853 681 q 899 558 882 599 q 930 475 915 517 q 944 388 944 433 q 925 267 944 331 q 842 138 906 204 q 801 139 822 118 l 767 176 q 769 218 750 194 q 833 376 833 290 m 601 363 q 587 456 601 413 q 556 543 572 500 q 524 631 539 586 q 510 729 510 676 q 514 789 510 757 q 529 853 518 821 q 561 917 540 886 q 614 976 582 949 q 654 972 635 996 l 681 942 q 679 903 696 924 q 634 822 647 864 q 621 740 621 779 q 635 647 621 692 q 667 558 650 603 q 698 469 683 514 q 713 374 713 424 q 708 313 713 346 q 693 247 704 281 q 662 178 682 213 q 610 110 642 143 q 569 111 590 90 l 535 149 q 538 190 518 167 q 585 274 569 229 q 601 363 601 319 z "},"↕":{"ha":1250,"x_min":361,"x_max":889,"o":"m 792 164 q 831 164 811 183 l 869 124 q 869 85 889 104 l 644 -140 q 606 -140 625 -160 l 381 85 q 381 124 361 104 l 419 164 q 458 164 439 183 l 569 53 l 569 794 l 458 683 q 419 683 439 664 l 381 724 q 381 763 361 743 l 606 988 q 644 988 625 1007 l 869 763 q 869 724 889 743 l 831 683 q 792 683 811 664 l 681 794 l 681 53 l 792 164 l 792 164 z "},"↗":{"ha":1250,"x_min":183,"x_max":1028,"o":"m 1028 482 q 1000 454 1028 454 l 944 454 q 917 482 917 454 l 917 638 l 281 3 q 242 3 261 -17 l 203 42 q 203 81 183 61 l 839 715 l 682 715 q 654 742 654 715 l 654 800 q 682 826 654 826 l 1000 826 q 1028 800 1028 826 l 1028 482 l 1028 482 z "},"↙":{"ha":1250,"x_min":222,"x_max":1067,"o":"m 222 365 q 250 393 222 393 l 306 393 q 333 365 333 393 l 333 210 l 969 844 q 1008 844 989 864 l 1047 806 q 1047 767 1067 786 l 411 132 l 568 132 q 596 106 596 132 l 596 47 q 568 21 596 21 l 250 21 q 222 47 222 21 l 222 365 l 222 365 z "},"↖":{"ha":1250,"x_min":222,"x_max":1067,"o":"m 222 800 q 250 826 222 826 l 568 826 q 596 800 596 826 l 596 742 q 568 715 596 715 l 411 715 l 1047 81 q 1047 42 1067 61 l 1008 3 q 969 3 989 -17 l 333 638 l 333 482 q 306 454 333 454 l 250 454 q 222 482 222 454 l 222 800 l 222 800 z "},"↘":{"ha":1250,"x_min":183,"x_max":1028,"o":"m 1028 47 q 1000 21 1028 21 l 682 21 q 654 47 654 21 l 654 106 q 682 132 654 132 l 839 132 l 203 767 q 203 806 183 786 l 242 844 q 281 844 261 864 l 917 210 l 917 365 q 944 393 917 393 l 1000 393 q 1028 365 1028 393 l 1028 47 l 1028 47 z "},"♭":{"ha":903,"x_min":208,"x_max":722,"o":"m 292 951 q 319 924 319 951 l 319 485 q 401 563 350 526 q 518 599 451 599 q 603 581 565 599 q 668 530 642 563 q 708 454 694 497 q 722 361 722 411 q 688 212 722 283 q 591 78 654 140 q 439 -34 528 15 q 240 -117 350 -83 q 217 -115 225 -121 q 208 -93 208 -108 l 208 924 q 236 951 208 951 l 292 951 m 319 36 q 431 92 378 58 q 524 169 485 126 q 588 260 564 211 q 611 361 611 308 q 583 452 611 417 q 507 488 556 488 q 408 443 463 488 q 319 321 354 399 l 319 36 z "},"♩":{"ha":861,"x_min":161,"x_max":514,"o":"m 392 -94 q 323 -115 357 -110 q 259 -116 289 -121 q 206 -97 229 -111 q 172 -58 183 -82 q 165 -8 161 -35 q 184 45 168 19 q 226 94 200 71 q 286 133 251 117 q 403 156 346 160 l 403 924 q 431 951 403 951 l 486 951 q 514 924 514 951 l 514 61 q 481 -25 514 18 q 392 -94 449 -68 z "},"♪":{"ha":972,"x_min":161,"x_max":790,"o":"m 392 -94 q 323 -115 357 -110 q 259 -116 289 -121 q 206 -97 229 -111 q 172 -58 183 -82 q 165 -8 161 -35 q 184 45 168 19 q 226 94 200 71 q 286 133 251 117 q 403 156 346 160 l 403 924 q 431 951 403 951 l 486 951 q 514 924 514 951 l 514 896 q 524 827 514 857 q 551 772 533 797 q 595 725 569 747 q 653 679 621 703 q 759 565 728 622 q 790 428 790 508 q 767 304 790 368 q 708 188 743 240 q 675 169 696 169 l 638 169 q 616 178 621 169 q 619 203 611 188 q 663 312 647 254 q 679 417 679 369 q 635 544 679 492 q 514 625 590 597 l 514 61 q 481 -25 514 18 q 392 -94 449 -68 z "},"♬":{"ha":1250,"x_min":128,"x_max":1036,"o":"m 358 -94 q 290 -115 324 -110 q 226 -116 256 -121 q 173 -97 196 -111 q 139 -58 150 -82 q 131 -8 128 -35 q 151 45 135 19 q 192 94 167 71 q 253 133 218 117 q 369 156 313 160 l 369 865 q 394 894 369 890 l 1006 1007 q 1036 982 1036 1011 l 1036 163 q 1003 76 1036 119 q 914 7 971 33 q 845 -14 879 -8 q 781 -15 811 -19 q 728 5 751 -10 q 694 43 706 19 q 687 94 683 67 q 706 147 690 121 q 748 195 722 172 q 808 235 774 218 q 925 257 868 261 l 925 532 l 481 450 l 481 61 q 448 -25 481 18 q 358 -94 415 -68 m 925 726 l 925 797 l 481 715 l 481 644 l 925 726 z "},"㉿":{"ha":1250,"x_min":42,"x_max":1208,"o":"m 558 182 q 531 154 558 154 l 461 154 q 433 182 433 154 l 433 713 q 461 740 433 740 l 531 740 q 558 713 558 740 l 558 474 l 768 736 q 808 740 785 760 l 860 699 q 863 660 881 682 l 688 447 l 869 238 q 867 199 888 217 l 817 154 q 778 157 796 135 l 558 417 l 558 182 m 42 438 q 88 665 42 558 q 213 850 133 771 q 398 975 292 929 q 625 1021 504 1021 q 810 990 722 1021 q 972 906 899 960 q 1099 777 1044 851 q 1181 615 1153 703 q 1178 598 1183 604 q 1163 592 1174 592 l 1133 592 q 1110 608 1115 592 q 1035 747 1082 683 q 924 855 988 810 q 784 926 860 900 q 625 951 708 951 q 436 915 525 951 q 278 816 347 879 q 166 668 210 753 q 114 486 122 583 l 308 486 q 331 464 331 486 l 331 439 q 308 417 331 417 l 63 417 q 42 438 42 417 m 60 288 q 62 305 57 299 q 78 311 67 311 l 107 311 q 131 293 125 311 q 201 146 154 214 q 314 28 249 78 q 458 -49 379 -21 q 625 -76 538 -76 q 821 -37 729 -76 q 982 68 913 1 q 1093 224 1051 135 q 1139 417 1135 314 l 926 417 q 904 439 904 417 l 904 464 q 926 486 904 486 l 1186 486 q 1208 465 1208 486 l 1208 438 q 1163 210 1208 317 q 1038 25 1117 104 q 852 -100 958 -54 q 625 -146 746 -146 q 432 -113 524 -146 q 266 -22 340 -81 q 138 115 192 36 q 60 288 85 194 z "},"㈜":{"ha":1250,"x_min":28,"x_max":1222,"o":"m 1007 349 q 1033 322 1033 349 l 1033 240 q 1007 215 1033 215 l 704 215 l 704 -94 q 679 -119 704 -119 l 571 -119 q 546 -94 546 -119 l 546 215 l 242 215 q 217 240 217 215 l 217 322 q 242 349 217 349 l 1007 349 m 958 961 q 983 936 983 961 l 983 857 q 958 831 983 831 l 724 831 q 686 739 711 782 q 756 687 717 711 q 835 643 794 663 q 914 610 875 624 q 982 589 953 596 q 999 581 994 586 q 1001 563 1004 575 l 982 481 q 971 465 979 471 q 950 461 963 458 q 872 486 917 469 q 780 526 826 503 q 688 576 733 549 q 607 638 642 604 q 455 526 539 571 q 296 460 371 481 q 267 476 274 453 l 247 558 q 265 588 242 581 q 358 624 311 601 q 447 677 406 646 q 522 747 489 708 q 571 831 554 785 l 292 831 q 267 857 267 831 l 267 936 q 292 961 267 961 l 958 961 m 175 1078 q 208 1097 185 1097 l 247 1097 q 265 1064 279 1097 q 173 747 201 904 q 144 429 144 589 q 173 112 144 269 q 265 -206 201 -46 q 247 -239 279 -239 l 208 -239 q 175 -219 185 -239 q 63 103 97 -56 q 28 429 28 263 q 63 755 28 596 q 175 1078 97 914 m 1075 1078 q 1188 755 1153 914 q 1222 429 1222 596 q 1188 103 1222 263 q 1075 -219 1153 -56 q 1042 -239 1065 -239 l 1003 -239 q 985 -206 971 -239 q 1077 112 1049 -46 q 1106 429 1106 269 q 1077 747 1106 589 q 985 1064 1049 904 q 1003 1097 971 1097 l 1042 1097 q 1075 1078 1065 1097 z "},"™":{"ha":1111,"x_min":63,"x_max":1044,"o":"m 90 868 q 63 896 63 868 l 63 956 q 90 983 63 983 l 422 983 q 450 956 450 983 l 450 896 q 422 868 450 868 l 319 868 l 319 517 q 292 489 319 489 l 222 489 q 194 517 194 489 l 194 868 l 90 868 m 503 489 q 476 518 474 489 l 511 957 q 539 983 514 983 l 653 983 q 685 960 679 983 l 761 676 l 838 960 q 869 983 843 983 l 983 983 q 1011 957 1008 983 l 1043 518 q 1017 489 1044 489 l 950 489 q 922 515 925 489 l 904 815 l 825 513 q 794 489 818 489 l 722 489 q 692 513 699 489 l 617 815 l 592 515 q 563 489 589 489 l 503 489 z "},"ㄱ":{"ha":1250,"x_min":190,"x_max":1076,"o":"m 938 822 q 1038 784 1000 822 q 1076 683 1076 746 l 1076 600 q 1058 326 1076 463 q 1008 64 1040 189 q 976 43 1000 39 l 860 65 q 842 78 847 68 q 840 100 838 88 q 888 342 871 218 q 904 585 904 467 l 904 649 q 876 676 904 676 l 218 676 q 190 704 190 676 l 190 794 q 218 822 190 822 l 938 822 l 938 822 z "},"ㄲ":{"ha":1250,"x_min":133,"x_max":1110,"o":"m 971 818 q 1072 780 1033 818 q 1110 679 1110 742 l 1110 611 q 1106 476 1110 546 q 1093 335 1101 406 q 1072 196 1085 264 q 1043 68 1060 128 q 1032 49 1040 57 q 1010 44 1024 42 l 900 64 q 884 76 889 67 q 882 99 879 86 q 909 219 897 156 q 928 349 921 283 q 940 478 936 414 q 943 597 943 542 l 943 647 q 915 675 943 675 l 675 675 q 647 703 647 675 l 647 790 q 675 818 647 818 l 971 818 m 457 818 q 558 780 519 818 q 596 679 596 742 l 596 611 q 592 476 596 546 q 579 335 588 406 q 558 196 571 264 q 529 68 546 128 q 518 49 526 57 q 496 44 510 42 l 386 64 q 370 76 375 67 q 368 99 365 86 q 395 219 383 156 q 415 349 407 283 q 426 478 422 414 q 429 597 429 542 l 429 647 q 401 675 429 675 l 161 675 q 133 703 133 675 l 133 790 q 161 818 133 818 l 457 818 z "},"ㄳ":{"ha":1250,"x_min":122,"x_max":1156,"o":"m 578 122 q 550 94 578 94 l 440 94 q 413 122 413 94 l 413 619 q 385 647 413 647 l 150 647 q 122 675 122 647 l 122 765 q 150 793 122 793 l 439 793 q 540 755 501 793 q 578 654 578 717 l 578 122 m 628 189 q 698 312 665 243 q 757 458 731 381 q 802 618 783 535 q 831 785 821 701 q 840 804 832 796 q 860 810 849 813 l 968 793 q 984 781 979 790 q 988 760 989 772 q 973 647 983 704 q 947 532 963 590 q 1045 358 992 439 q 1146 219 1099 276 q 1153 194 1156 208 q 1142 172 1150 181 l 1074 97 q 1033 104 1054 76 q 960 208 999 149 q 883 335 921 268 q 824 203 856 265 q 757 88 792 140 q 740 75 749 76 q 717 85 732 74 l 626 147 q 616 166 614 156 q 628 189 618 176 z "},"ㄴ":{"ha":1250,"x_min":151,"x_max":1115,"o":"m 151 778 q 179 806 151 806 l 296 806 q 324 778 324 806 l 324 254 q 351 226 324 226 l 1088 226 q 1115 199 1115 226 l 1115 111 q 1088 83 1115 83 l 290 83 q 190 122 228 83 q 151 222 151 160 l 151 778 l 151 778 z "},"ㄵ":{"ha":1250,"x_min":140,"x_max":1171,"o":"m 140 743 q 168 771 140 771 l 279 771 q 307 743 307 771 l 307 301 q 335 274 307 274 l 526 274 q 554 246 554 274 l 554 156 q 526 128 554 128 l 279 128 q 178 166 217 128 q 140 267 140 204 l 140 743 m 599 243 q 723 411 668 311 q 807 624 778 511 l 622 624 q 594 651 594 624 l 594 733 q 622 761 594 761 l 1119 761 q 1147 733 1147 761 l 1147 650 q 1119 622 1147 622 l 968 622 q 931 496 956 561 q 1033 357 976 421 q 1146 249 1089 293 q 1156 210 1171 228 l 1092 131 q 1053 128 1075 110 q 956 221 1006 167 q 861 342 906 275 q 787 221 826 276 q 708 125 747 165 q 691 117 699 115 q 672 128 683 118 l 597 204 q 599 243 578 222 z "},"ㄶ":{"ha":1250,"x_min":140,"x_max":1178,"o":"m 875 100 q 677 153 749 100 q 606 296 606 206 q 677 442 606 389 q 875 496 749 496 q 1073 442 1001 496 q 1144 296 1144 389 q 1073 153 1144 206 q 875 100 1001 100 m 875 226 q 965 247 933 226 q 996 296 996 267 q 965 349 996 328 q 875 371 933 371 q 785 349 817 371 q 754 296 754 328 q 785 247 754 267 q 875 226 817 226 m 596 542 q 568 569 568 542 l 568 658 q 596 686 568 686 l 782 686 l 782 778 q 810 806 782 806 l 922 806 q 950 778 950 806 l 950 686 l 1150 686 q 1178 658 1178 686 l 1178 569 q 1150 542 1178 542 l 596 542 m 140 749 q 168 776 140 776 l 279 776 q 307 749 307 776 l 307 296 q 335 268 307 268 l 533 268 q 561 240 561 268 l 561 149 q 533 121 561 121 l 279 121 q 178 159 217 121 q 140 260 140 197 l 140 749 z "},"ㄷ":{"ha":1250,"x_min":147,"x_max":1106,"o":"m 319 239 q 347 211 319 211 l 1078 211 q 1106 183 1106 211 l 1106 97 q 1078 69 1106 69 l 286 69 q 185 108 224 69 q 147 208 147 146 l 147 679 q 185 780 147 742 q 286 818 224 818 l 1075 818 q 1103 790 1103 818 l 1103 704 q 1075 676 1103 676 l 347 676 q 319 649 319 676 l 319 239 l 319 239 z "},"ㄸ":{"ha":1250,"x_min":139,"x_max":1111,"o":"m 304 238 q 332 210 304 210 l 354 210 q 438 219 393 210 q 531 249 483 229 q 551 251 542 253 q 564 238 560 249 l 592 158 q 574 122 600 133 q 303 71 457 71 l 278 71 q 177 109 215 71 q 139 210 139 147 l 139 679 q 177 780 139 742 q 278 818 215 818 l 550 818 q 578 790 578 818 l 578 707 q 550 679 578 679 l 332 679 q 304 651 304 679 l 304 238 m 806 238 q 833 210 806 210 l 1083 210 q 1111 182 1111 210 l 1111 99 q 1083 71 1111 71 l 778 71 q 677 109 715 71 q 639 210 639 147 l 639 679 q 677 780 639 742 q 778 818 715 818 l 1068 818 q 1096 790 1096 818 l 1096 707 q 1068 679 1096 679 l 833 679 q 806 651 806 679 l 806 238 z "},"ㄹ":{"ha":1250,"x_min":147,"x_max":1117,"o":"m 964 824 q 1065 785 1026 824 q 1103 685 1103 747 q 1099 597 1103 635 q 1086 518 1096 558 q 1041 419 1072 460 q 947 379 1010 379 l 344 379 q 317 351 317 379 l 317 229 q 344 201 317 201 l 1089 201 q 1117 174 1117 201 l 1117 93 q 1089 65 1117 65 l 286 65 q 185 103 224 65 q 147 204 147 142 l 147 374 q 185 474 147 436 q 286 513 224 513 l 886 513 q 918 540 908 513 q 930 594 926 564 q 933 660 933 624 q 906 688 933 688 l 175 688 q 147 715 147 688 l 147 796 q 175 824 147 824 l 964 824 l 964 824 z "},"ㄺ":{"ha":1250,"x_min":131,"x_max":1118,"o":"m 1118 138 q 1090 110 1118 110 l 981 110 q 953 138 953 110 l 953 617 q 925 644 953 644 l 693 644 q 665 672 665 644 l 665 757 q 693 785 665 785 l 979 785 q 1080 747 1042 785 q 1118 646 1118 708 l 1118 138 m 269 110 q 169 148 207 110 q 131 249 131 186 l 131 374 q 169 474 131 436 q 269 513 207 513 l 442 513 q 465 536 465 513 l 465 629 q 442 653 465 653 l 168 653 q 140 681 140 653 l 140 757 q 168 785 140 785 l 476 785 q 577 747 539 785 q 615 646 615 708 l 615 526 q 577 426 615 464 q 476 388 539 388 l 307 388 q 283 364 283 388 l 283 265 q 307 242 283 242 l 643 242 q 671 214 671 242 l 671 138 q 643 110 671 110 l 269 110 z "},"ㄻ":{"ha":1250,"x_min":131,"x_max":1124,"o":"m 825 654 q 800 629 800 654 l 800 268 q 825 243 800 243 l 946 243 q 971 268 971 243 l 971 629 q 946 654 971 654 l 825 654 m 649 646 q 687 747 649 708 q 788 785 725 785 l 985 785 q 1085 747 1047 785 q 1124 646 1124 708 l 1124 249 q 1085 148 1124 186 q 985 110 1047 110 l 788 110 q 687 148 725 110 q 649 249 649 186 l 649 646 m 269 110 q 169 148 207 110 q 131 249 131 186 l 131 374 q 169 474 131 436 q 269 513 207 513 l 418 513 q 442 536 442 513 l 442 629 q 418 653 442 653 l 168 653 q 140 681 140 653 l 140 757 q 168 785 140 785 l 453 785 q 553 747 515 785 q 592 646 592 708 l 592 526 q 553 426 592 464 q 453 388 515 388 l 307 388 q 283 364 283 388 l 283 265 q 307 242 283 242 l 574 242 q 601 214 601 242 l 601 138 q 574 110 601 110 l 269 110 z "},"ㄼ":{"ha":1250,"x_min":131,"x_max":1118,"o":"m 790 110 q 690 148 728 110 q 651 249 651 186 l 651 750 q 679 778 651 778 l 771 778 q 799 750 799 778 l 799 561 l 971 561 l 971 750 q 999 778 971 778 l 1090 778 q 1118 750 1118 778 l 1118 249 q 1080 148 1118 186 q 979 110 1042 110 l 790 110 m 269 110 q 169 148 207 110 q 131 249 131 186 l 131 374 q 169 474 131 436 q 269 513 207 513 l 418 513 q 442 536 442 513 l 442 629 q 418 653 442 653 l 168 653 q 140 681 140 653 l 140 757 q 168 785 140 785 l 453 785 q 553 747 515 785 q 592 646 592 708 l 592 526 q 553 426 592 464 q 453 388 515 388 l 307 388 q 283 364 283 388 l 283 265 q 307 242 283 242 l 574 242 q 601 214 601 242 l 601 138 q 574 110 601 110 l 269 110 m 799 269 q 826 242 799 242 l 939 242 q 971 269 971 242 l 971 433 l 799 433 l 799 269 z "},"ㄽ":{"ha":1250,"x_min":131,"x_max":1190,"o":"m 624 217 q 711 327 671 261 q 781 468 751 393 q 831 619 811 543 q 857 763 850 696 q 866 781 858 774 q 885 785 874 788 l 993 767 q 1009 759 1004 764 q 1013 742 1014 754 q 998 640 1010 697 q 967 521 986 583 q 1066 366 1010 440 q 1176 242 1122 292 q 1189 224 1188 231 q 1182 206 1190 217 l 1113 114 q 1078 111 1096 92 q 989 213 1038 151 q 897 343 940 274 q 827 215 865 276 q 744 110 789 154 q 707 107 726 90 l 625 176 q 614 195 615 185 q 624 217 613 206 m 269 110 q 169 148 207 110 q 131 249 131 186 l 131 374 q 169 474 131 436 q 269 513 207 513 l 468 513 q 492 536 492 513 l 492 629 q 468 653 492 653 l 168 653 q 140 681 140 653 l 140 757 q 168 785 140 785 l 503 785 q 603 747 565 785 q 642 646 642 708 l 642 526 q 603 426 642 464 q 503 388 565 388 l 307 388 q 283 364 283 388 l 283 265 q 307 242 283 242 l 551 242 q 579 214 579 242 l 579 138 q 551 110 579 110 l 269 110 z "},"ㄾ":{"ha":1250,"x_min":131,"x_max":1121,"o":"m 803 297 q 831 269 803 269 l 1093 269 q 1121 242 1121 269 l 1121 151 q 1093 124 1121 124 l 792 124 q 691 162 729 124 q 653 263 653 200 l 653 629 q 691 733 653 696 q 792 771 729 771 l 1082 771 q 1110 743 1110 771 l 1110 664 q 1082 636 1110 636 l 831 636 q 803 608 803 636 l 803 522 l 1063 522 q 1090 494 1090 522 l 1090 415 q 1063 388 1090 388 l 803 388 l 803 297 m 269 124 q 169 162 207 124 q 131 263 131 200 l 131 374 q 169 474 131 436 q 269 513 207 513 l 432 513 q 456 536 456 513 l 456 615 q 432 639 456 639 l 168 639 q 140 667 140 639 l 140 743 q 168 771 140 771 l 467 771 q 567 733 529 771 q 606 632 606 694 l 606 526 q 567 426 606 464 q 467 388 529 388 l 307 388 q 283 364 283 388 l 283 279 q 307 256 283 256 l 585 256 q 613 228 613 256 l 613 151 q 585 124 613 124 l 269 124 z "},"ㄿ":{"ha":1250,"x_min":131,"x_max":1132,"o":"m 647 124 q 619 151 619 124 l 619 228 q 647 256 619 256 l 694 256 l 694 640 l 657 640 q 629 668 629 640 l 629 743 q 657 771 629 771 l 1092 771 q 1119 743 1119 771 l 1119 668 q 1092 640 1119 640 l 1050 640 l 1050 256 l 1104 256 q 1132 228 1132 256 l 1132 151 q 1104 124 1132 124 l 647 124 m 829 256 l 914 256 l 914 640 l 829 640 l 829 256 m 269 124 q 169 162 207 124 q 131 263 131 200 l 131 374 q 169 474 131 436 q 269 513 207 513 l 418 513 q 442 536 442 513 l 442 615 q 418 639 442 639 l 168 639 q 140 667 140 639 l 140 743 q 168 771 140 771 l 453 771 q 553 733 515 771 q 592 632 592 694 l 592 526 q 553 426 592 464 q 453 388 515 388 l 307 388 q 283 364 283 388 l 283 279 q 307 256 283 256 l 550 256 q 578 228 578 256 l 578 151 q 550 124 578 124 l 269 124 z "},"ㅀ":{"ha":1250,"x_min":131,"x_max":1160,"o":"m 890 113 q 713 169 775 113 q 650 311 650 225 q 713 452 650 396 q 890 508 775 508 q 1068 452 1006 508 q 1131 311 1131 396 q 1068 169 1131 225 q 890 113 1006 113 m 890 229 q 966 253 942 229 q 990 311 990 276 q 966 369 990 344 q 890 393 942 393 q 815 369 839 393 q 790 311 790 344 q 815 253 790 276 q 890 229 839 229 m 664 551 q 636 579 636 551 l 636 654 q 664 682 636 682 l 800 682 l 800 772 q 828 800 800 800 l 935 800 q 963 772 963 800 l 963 682 l 1132 682 q 1160 654 1160 682 l 1160 579 q 1132 551 1160 551 l 664 551 m 269 124 q 169 162 207 124 q 131 263 131 200 l 131 374 q 169 474 131 436 q 269 513 207 513 l 418 513 q 442 536 442 513 l 442 615 q 418 639 442 639 l 168 639 q 140 667 140 639 l 140 743 q 168 771 140 771 l 453 771 q 553 733 515 771 q 592 632 592 694 l 592 526 q 553 426 592 464 q 453 388 515 388 l 307 388 q 283 364 283 388 l 283 279 q 307 256 283 256 l 574 256 q 601 228 601 256 l 601 151 q 574 124 601 124 l 269 124 z "},"ㅁ":{"ha":1250,"x_min":146,"x_max":1104,"o":"m 285 71 q 184 109 222 71 q 146 210 146 147 l 146 679 q 184 780 146 742 q 285 818 222 818 l 965 818 q 1066 780 1028 818 q 1104 679 1104 742 l 1104 210 q 1066 109 1104 147 q 965 71 1028 71 l 285 71 m 314 239 q 342 211 314 211 l 908 211 q 936 239 936 211 l 936 650 q 908 678 936 678 l 342 678 q 314 650 314 678 l 314 239 z "},"ㅂ":{"ha":1250,"x_min":146,"x_max":1104,"o":"m 285 67 q 184 105 222 67 q 146 206 146 143 l 146 794 q 174 822 146 822 l 285 822 q 313 794 313 822 l 313 531 q 547 562 417 551 q 811 572 676 572 l 938 572 l 938 794 q 965 822 938 822 l 1076 822 q 1104 794 1104 822 l 1104 206 q 1066 105 1104 143 q 965 67 1028 67 l 285 67 m 313 233 q 340 206 313 206 l 910 206 q 938 233 938 206 l 938 436 l 811 436 q 540 426 669 436 q 313 392 410 415 l 313 233 z "},"ㅃ":{"ha":1250,"x_min":125,"x_max":1125,"o":"m 264 71 q 163 109 201 71 q 125 210 125 147 l 125 796 q 153 824 125 824 l 257 824 q 285 796 285 824 l 285 590 l 438 590 l 438 796 q 465 824 438 824 l 567 824 q 594 796 594 824 l 594 210 q 556 109 594 147 q 456 71 518 71 l 264 71 m 794 71 q 694 109 732 71 q 656 210 656 147 l 656 796 q 683 824 656 824 l 785 824 q 813 796 813 824 l 813 590 l 965 590 l 965 796 q 993 824 965 824 l 1097 824 q 1125 796 1125 824 l 1125 210 q 1087 109 1125 147 q 986 71 1049 71 l 794 71 m 285 235 q 313 207 285 207 l 410 207 q 438 235 438 207 l 438 457 l 285 457 l 285 235 m 813 235 q 840 207 813 207 l 938 207 q 965 235 965 207 l 965 457 l 813 457 l 813 235 z "},"ㅄ":{"ha":1250,"x_min":119,"x_max":1190,"o":"m 632 203 q 718 316 679 247 q 785 463 757 385 q 833 624 814 542 q 858 776 851 706 q 867 794 860 788 q 886 799 875 801 l 994 781 q 1010 773 1006 778 q 1014 756 1015 768 q 999 642 1011 706 q 965 508 986 578 q 1065 352 1010 426 q 1176 228 1121 278 q 1189 210 1188 217 q 1182 192 1190 203 l 1113 100 q 1078 97 1096 78 q 990 198 1038 138 q 899 326 942 258 q 831 199 868 258 q 753 96 794 140 q 715 93 735 76 l 633 163 q 622 181 624 171 q 632 203 621 192 m 258 88 q 158 126 196 88 q 119 226 119 164 l 119 765 q 147 793 119 793 l 246 793 q 274 765 274 793 l 274 565 l 453 565 l 453 765 q 481 793 453 793 l 579 793 q 607 765 607 793 l 607 226 q 569 126 607 164 q 468 88 531 88 l 258 88 m 274 239 q 301 211 274 211 l 421 211 q 453 239 453 211 l 453 444 l 274 444 l 274 239 z "},"ㅅ":{"ha":1250,"x_min":97,"x_max":1151,"o":"m 122 226 q 262 318 190 261 q 397 447 333 375 q 510 606 461 519 q 583 788 560 692 q 598 804 586 799 q 621 806 610 810 l 728 769 q 740 756 739 767 q 738 733 740 744 q 712 659 726 696 q 678 586 697 622 q 783 479 725 532 q 902 379 842 426 q 1021 292 963 332 q 1128 226 1079 253 q 1139 193 1151 215 l 1088 106 q 1073 92 1081 94 q 1053 96 1065 89 q 944 164 1003 124 q 824 251 885 204 q 705 351 764 299 q 597 457 646 403 q 504 341 554 396 q 401 239 454 286 q 297 155 349 192 q 197 93 244 118 q 161 104 175 81 l 111 189 q 122 226 97 213 z "},"ㅆ":{"ha":1250,"x_min":86,"x_max":1169,"o":"m 100 215 q 185 333 146 267 q 256 475 224 400 q 311 630 288 550 q 350 789 335 710 q 383 814 356 821 l 481 794 q 500 763 504 790 q 478 647 492 703 q 446 538 464 590 q 526 390 482 460 q 615 272 569 321 q 685 367 651 311 q 746 490 718 424 q 794 631 774 557 q 822 779 814 704 q 833 801 825 796 q 854 803 840 806 l 950 788 q 971 754 975 783 q 917 533 954 642 q 1029 359 965 443 q 1151 218 1093 275 q 1165 199 1161 208 q 1158 178 1169 189 l 1094 108 q 1076 96 1085 97 q 1056 106 1068 94 q 949 226 1004 154 q 849 369 893 299 q 759 222 808 290 q 651 101 710 154 q 624 86 636 86 q 593 100 611 86 q 535 153 564 122 q 478 219 507 183 q 424 293 450 254 q 376 369 399 332 q 299 232 340 296 q 215 115 257 168 q 193 99 204 100 q 167 113 182 99 l 103 168 q 87 190 88 181 q 100 215 86 200 z "},"ㅇ":{"ha":1250,"x_min":125,"x_max":1125,"o":"m 625 63 q 408 92 501 63 q 251 172 314 121 q 157 292 189 222 q 125 442 125 361 q 157 591 125 522 q 251 711 189 660 q 408 792 314 763 q 625 821 501 821 q 842 792 749 821 q 999 711 936 763 q 1093 591 1061 660 q 1125 442 1125 522 q 1093 292 1125 361 q 999 172 1061 222 q 842 92 936 121 q 625 63 749 63 m 625 203 q 875 269 793 203 q 957 442 957 335 q 875 615 957 549 q 625 681 793 681 q 375 615 457 681 q 293 442 293 549 q 375 269 293 335 q 625 203 457 203 z "},"ㅈ":{"ha":1250,"x_min":106,"x_max":1143,"o":"m 1089 813 q 1117 785 1117 813 l 1117 699 q 1089 671 1117 671 l 747 671 q 721 602 736 636 q 688 536 706 568 q 788 437 733 485 q 899 347 842 389 q 1012 272 956 306 q 1119 215 1068 239 q 1129 179 1143 204 l 1082 93 q 1049 82 1071 71 q 939 142 997 107 q 822 220 881 178 q 708 311 764 263 q 606 411 653 360 q 510 303 561 354 q 407 210 460 253 q 301 135 354 168 q 200 81 249 103 q 164 93 175 71 l 118 179 q 131 214 106 203 q 259 288 193 243 q 385 392 325 333 q 494 522 444 451 q 576 671 544 592 l 161 671 q 133 699 133 671 l 133 785 q 161 813 133 813 l 1089 813 l 1089 813 z "},"ㅉ":{"ha":1250,"x_min":88,"x_max":1168,"o":"m 101 199 q 240 413 181 286 q 329 682 299 539 l 158 682 q 131 710 131 682 l 131 789 q 158 817 131 817 l 579 817 q 607 789 607 817 l 607 710 q 579 682 607 682 l 483 682 q 466 597 476 638 q 443 517 456 557 q 522 376 478 442 q 614 261 565 310 q 729 438 679 328 q 801 682 779 547 l 671 682 q 643 710 643 682 l 643 789 q 671 817 643 817 l 1092 817 q 1119 789 1119 817 l 1119 710 q 1092 682 1119 682 l 953 682 q 911 510 939 594 q 964 422 935 465 q 1024 339 993 379 q 1088 263 1056 299 q 1150 201 1121 228 q 1164 182 1160 192 q 1157 161 1168 172 l 1093 92 q 1075 79 1083 81 q 1054 89 1067 78 q 999 143 1028 113 q 943 207 971 174 q 890 276 915 240 q 843 344 864 311 q 651 89 764 192 q 624 74 636 75 q 593 88 611 74 q 534 140 564 110 q 476 203 504 169 q 422 274 449 238 q 374 346 396 310 q 297 212 338 274 q 217 99 257 150 q 194 83 206 83 q 168 96 183 82 l 104 151 q 88 174 89 164 q 101 199 88 183 z "},"ㅊ":{"ha":1250,"x_min":108,"x_max":1142,"o":"m 1093 751 q 1121 724 1121 751 l 1121 639 q 1093 611 1121 611 l 731 611 q 674 506 710 558 q 775 419 719 461 q 889 340 831 376 q 1006 274 947 304 q 1117 226 1064 244 q 1128 193 1142 218 l 1081 104 q 1046 94 1071 85 q 931 147 992 115 q 808 217 869 178 q 690 299 747 256 q 585 388 632 343 q 496 297 543 340 q 400 215 449 253 q 301 147 351 178 q 206 93 251 115 q 169 104 182 82 l 122 189 q 133 226 108 215 q 255 295 194 254 q 371 386 315 336 q 473 494 426 436 q 551 611 519 551 l 157 611 q 129 639 129 611 l 129 724 q 157 751 129 751 l 539 751 l 539 858 q 567 886 539 886 l 683 886 q 711 858 711 886 l 711 751 l 1093 751 l 1093 751 z "},"ㅋ":{"ha":1250,"x_min":146,"x_max":1099,"o":"m 960 808 q 1060 770 1022 808 q 1099 669 1099 732 l 1099 606 q 1079 304 1099 444 q 1024 56 1060 164 q 990 39 1015 35 l 878 63 q 863 76 867 65 q 861 99 858 88 q 915 351 899 211 l 174 351 q 146 379 146 351 l 146 467 q 174 494 146 494 l 926 494 l 929 593 l 929 638 q 901 665 929 665 l 200 665 q 172 693 172 665 l 172 781 q 200 808 172 808 l 960 808 l 960 808 z "},"ㅌ":{"ha":1250,"x_min":147,"x_max":1106,"o":"m 319 231 q 347 203 319 203 l 1078 203 q 1106 175 1106 203 l 1106 93 q 1078 65 1106 65 l 286 65 q 185 103 224 65 q 147 204 147 142 l 147 686 q 185 787 147 749 q 286 825 224 825 l 1075 825 q 1103 797 1103 825 l 1103 715 q 1075 688 1103 688 l 347 688 q 319 660 319 688 l 319 514 l 1061 514 q 1089 486 1089 514 l 1089 407 q 1061 379 1089 379 l 319 379 l 319 231 l 319 231 z "},"ㅍ":{"ha":1250,"x_min":124,"x_max":1126,"o":"m 767 594 q 794 622 767 622 l 908 622 q 936 594 936 622 l 936 207 l 1099 207 q 1126 179 1126 207 l 1126 99 q 1099 71 1126 71 l 151 71 q 124 99 124 71 l 124 179 q 151 207 124 207 l 767 207 l 767 594 m 483 631 q 490 469 483 544 q 513 313 497 393 q 511 290 515 301 q 496 276 507 279 l 381 257 q 360 261 369 254 q 347 279 350 268 q 322 451 329 367 q 314 631 314 536 l 314 681 l 163 681 q 135 708 135 681 l 135 790 q 163 818 135 818 l 1088 818 q 1115 790 1115 818 l 1115 708 q 1088 681 1115 681 l 483 681 l 483 631 z "},"ㅎ":{"ha":1250,"x_min":108,"x_max":1142,"o":"m 625 36 q 399 60 489 36 q 254 121 308 83 q 178 206 200 158 q 156 301 156 253 q 178 397 156 350 q 254 482 200 444 q 399 543 308 519 q 625 567 489 567 q 851 543 761 567 q 996 482 942 519 q 1072 397 1050 444 q 1094 301 1094 350 q 1072 206 1094 253 q 996 121 1050 158 q 851 60 942 83 q 625 36 761 36 m 625 176 q 767 186 710 176 q 860 213 825 196 q 911 252 896 229 q 926 301 926 275 q 911 351 926 328 q 860 391 896 374 q 767 419 825 408 q 625 429 710 429 q 483 419 540 429 q 390 392 425 408 q 339 353 354 375 q 324 306 324 331 q 339 257 324 281 q 390 216 354 233 q 483 188 425 199 q 625 176 540 176 m 136 626 q 108 654 108 626 l 108 742 q 136 769 108 769 l 539 769 l 539 878 q 567 906 539 906 l 683 906 q 711 878 711 906 l 711 769 l 1114 769 q 1142 742 1142 769 l 1142 654 q 1114 626 1142 626 l 136 626 z "},"ㅏ":{"ha":1250,"x_min":481,"x_max":924,"o":"m 481 1014 q 508 1042 481 1042 l 625 1042 q 653 1014 653 1042 l 653 557 l 896 557 q 924 529 924 557 l 924 435 q 896 407 924 407 l 653 407 l 653 -139 q 625 -167 653 -167 l 508 -167 q 481 -139 481 -167 l 481 1014 l 481 1014 z "},"ㅐ":{"ha":1250,"x_min":388,"x_max":863,"o":"m 388 1008 q 415 1036 388 1036 l 522 1036 q 550 1008 550 1036 l 550 557 l 697 557 l 697 1014 q 725 1042 697 1042 l 835 1042 q 863 1014 863 1042 l 863 -139 q 835 -167 863 -167 l 725 -167 q 697 -139 697 -167 l 697 413 l 550 413 l 550 -125 q 522 -153 550 -153 l 415 -153 q 388 -125 388 -153 l 388 1008 l 388 1008 z "},"ㅑ":{"ha":1250,"x_min":481,"x_max":924,"o":"m 481 1014 q 508 1042 481 1042 l 625 1042 q 653 1014 653 1042 l 653 738 l 896 738 q 924 710 924 738 l 924 618 q 896 590 924 590 l 653 590 l 653 401 l 896 401 q 924 374 924 401 l 924 282 q 896 254 924 254 l 653 254 l 653 -139 q 625 -167 653 -167 l 508 -167 q 481 -139 481 -167 l 481 1014 l 481 1014 z "},"ㅒ":{"ha":1250,"x_min":388,"x_max":863,"o":"m 388 1008 q 415 1036 388 1036 l 521 1036 q 549 1008 549 1036 l 549 751 l 699 751 l 699 1014 q 726 1042 699 1042 l 835 1042 q 863 1014 863 1042 l 863 -139 q 835 -167 863 -167 l 726 -167 q 699 -139 699 -167 l 699 249 l 549 249 l 549 -125 q 521 -153 549 -153 l 415 -153 q 388 -125 388 -153 l 388 1008 m 699 390 l 699 610 l 549 610 l 549 390 l 699 390 z "},"ㅓ":{"ha":1250,"x_min":326,"x_max":769,"o":"m 769 -139 q 742 -167 769 -167 l 625 -167 q 597 -139 597 -167 l 597 407 l 354 407 q 326 435 326 407 l 326 529 q 354 557 326 557 l 597 557 l 597 1014 q 625 1042 597 1042 l 742 1042 q 769 1014 769 1042 l 769 -139 l 769 -139 z "},"ㅔ":{"ha":1250,"x_min":257,"x_max":918,"o":"m 461 1008 q 489 1036 461 1036 l 596 1036 q 624 1008 624 1036 l 624 -125 q 596 -153 624 -153 l 489 -153 q 461 -125 461 -153 l 461 411 l 285 411 q 257 439 257 411 l 257 529 q 285 557 257 557 l 461 557 l 461 1008 m 753 1014 q 781 1042 753 1042 l 890 1042 q 918 1014 918 1042 l 918 -139 q 890 -167 918 -167 l 781 -167 q 753 -139 753 -167 l 753 1014 z "},"ㅕ":{"ha":1250,"x_min":326,"x_max":769,"o":"m 769 -139 q 742 -167 769 -167 l 625 -167 q 597 -139 597 -167 l 597 254 l 354 254 q 326 282 326 254 l 326 374 q 354 401 326 401 l 597 401 l 597 590 l 354 590 q 326 618 326 590 l 326 710 q 354 738 326 738 l 597 738 l 597 1014 q 625 1042 597 1042 l 742 1042 q 769 1014 769 1042 l 769 -139 l 769 -139 z "},"ㅖ":{"ha":1250,"x_min":299,"x_max":960,"o":"m 503 1008 q 531 1036 503 1036 l 638 1036 q 665 1008 665 1036 l 665 -125 q 638 -153 665 -153 l 531 -153 q 503 -125 503 -153 l 503 263 l 326 263 q 299 290 299 263 l 299 376 q 326 404 299 404 l 503 404 l 503 596 l 326 596 q 299 624 299 596 l 299 710 q 326 738 299 738 l 503 738 l 503 1008 m 794 1014 q 822 1042 794 1042 l 932 1042 q 960 1014 960 1042 l 960 -139 q 932 -167 960 -167 l 822 -167 q 794 -139 794 -167 l 794 1014 z "},"ㅗ":{"ha":1250,"x_min":78,"x_max":1172,"o":"m 1144 242 q 1172 214 1172 242 l 1172 125 q 1144 97 1172 97 l 106 97 q 78 125 78 97 l 78 214 q 106 242 78 242 l 539 242 l 539 626 q 567 654 539 654 l 683 654 q 711 626 711 654 l 711 242 l 1144 242 l 1144 242 z "},"ㅘ":{"ha":1250,"x_min":69,"x_max":1229,"o":"m 97 -111 q 69 -83 69 -111 l 69 3 q 97 31 69 31 l 132 31 q 259 33 196 31 q 385 42 322 36 l 385 415 q 413 443 385 443 l 521 443 q 549 415 549 443 l 549 61 q 694 90 628 74 q 811 129 761 107 q 833 129 822 135 q 847 113 843 124 l 876 35 q 876 15 881 24 q 860 0 871 6 q 716 -48 800 -28 q 535 -83 632 -68 q 333 -104 438 -97 q 132 -111 229 -111 l 97 -111 m 911 1014 q 939 1042 911 1042 l 1056 1042 q 1083 1014 1083 1042 l 1083 557 l 1201 557 q 1229 529 1229 557 l 1229 435 q 1201 407 1229 407 l 1083 407 l 1083 -139 q 1056 -167 1083 -167 l 939 -167 q 911 -139 911 -167 l 911 1014 z "},"ㅙ":{"ha":1250,"x_min":69,"x_max":1132,"o":"m 713 1008 q 740 1036 713 1036 l 844 1036 q 872 1008 872 1036 l 872 556 l 969 556 l 969 1014 q 997 1042 969 1042 l 1104 1042 q 1132 1014 1132 1042 l 1132 -139 q 1104 -167 1132 -167 l 997 -167 q 969 -139 969 -167 l 969 413 l 872 413 l 872 -125 q 844 -153 872 -153 l 740 -153 q 713 -125 713 -153 l 713 1008 m 97 -96 q 69 -68 69 -96 l 69 18 q 97 46 69 46 l 132 46 q 278 50 207 46 l 278 394 q 306 422 278 422 l 404 422 q 432 394 432 422 l 432 65 q 611 106 533 79 q 644 90 638 114 l 665 4 q 646 -29 671 -21 q 419 -78 554 -61 q 132 -96 283 -96 l 97 -96 z "},"ㅚ":{"ha":1250,"x_min":83,"x_max":1111,"o":"m 939 1014 q 967 1042 939 1042 l 1083 1042 q 1111 1014 1111 1042 l 1111 -139 q 1083 -167 1111 -167 l 967 -167 q 939 -139 939 -167 l 939 1014 m 111 -97 q 83 -69 83 -97 l 83 17 q 111 44 83 44 l 146 44 q 273 47 210 44 q 399 56 336 50 l 399 388 q 426 415 399 415 l 535 415 q 563 388 563 415 l 563 75 q 708 104 642 88 q 825 143 775 121 q 847 143 836 149 q 861 126 857 138 l 890 49 q 890 28 894 38 q 874 14 885 19 q 730 -34 814 -14 q 549 -69 646 -54 q 347 -90 451 -83 q 146 -97 243 -97 l 111 -97 z "},"ㅛ":{"ha":1250,"x_min":78,"x_max":1172,"o":"m 1144 242 q 1172 214 1172 242 l 1172 125 q 1144 97 1172 97 l 106 97 q 78 125 78 97 l 78 214 q 106 242 78 242 l 354 242 l 354 626 q 382 654 354 654 l 492 654 q 519 626 519 654 l 519 242 l 731 242 l 731 626 q 758 654 731 654 l 868 654 q 896 626 896 654 l 896 242 l 1144 242 l 1144 242 z "},"ㅜ":{"ha":1250,"x_min":78,"x_max":1172,"o":"m 567 -118 q 539 -90 539 -118 l 539 360 l 106 360 q 78 388 78 360 l 78 478 q 106 506 78 506 l 1144 506 q 1172 478 1172 506 l 1172 388 q 1144 360 1172 360 l 711 360 l 711 -90 q 683 -118 711 -118 l 567 -118 l 567 -118 z "},"ㅝ":{"ha":1250,"x_min":83,"x_max":1111,"o":"m 111 254 q 83 282 83 254 l 83 367 q 111 394 83 394 l 149 394 q 548 419 374 394 q 828 482 722 443 q 864 465 854 492 l 890 386 q 875 350 899 361 q 733 303 817 322 q 544 274 649 285 l 544 -132 q 517 -160 544 -160 l 407 -160 q 379 -132 379 -160 l 379 260 q 266 256 324 257 q 149 254 208 254 l 111 254 m 939 1014 q 967 1042 939 1042 l 1083 1042 q 1111 1014 1111 1042 l 1111 -139 q 1083 -167 1111 -167 l 967 -167 q 939 -139 939 -167 l 939 74 l 731 74 q 703 101 703 74 l 703 181 q 731 208 703 208 l 939 208 l 939 1014 z "},"ㅞ":{"ha":1250,"x_min":76,"x_max":1132,"o":"m 721 1008 q 749 1036 721 1036 l 853 1036 q 881 1008 881 1036 l 881 -125 q 853 -153 881 -153 l 749 -153 q 721 -125 721 -153 l 721 67 l 557 67 q 529 94 529 67 l 529 181 q 557 208 529 208 l 721 208 l 721 1008 m 969 1014 q 997 1042 969 1042 l 1104 1042 q 1132 1014 1132 1042 l 1132 -139 q 1104 -167 1132 -167 l 997 -167 q 969 -139 969 -167 l 969 1014 m 104 236 q 76 264 76 236 l 76 350 q 104 378 76 378 l 139 378 q 408 392 282 378 q 622 433 535 407 q 656 418 649 442 l 676 331 q 657 297 683 304 q 447 256 564 271 l 447 -125 q 419 -153 447 -153 l 311 -153 q 283 -125 283 -153 l 283 240 q 139 236 214 236 l 104 236 z "},"ㅟ":{"ha":1250,"x_min":75,"x_max":1111,"o":"m 939 1014 q 967 1042 939 1042 l 1083 1042 q 1111 1014 1111 1042 l 1111 -139 q 1083 -167 1111 -167 l 967 -167 q 939 -139 939 -167 l 939 1014 m 103 239 q 75 267 75 239 l 75 351 q 103 379 75 379 l 140 379 q 549 401 376 379 q 826 465 721 424 q 863 449 853 475 l 889 369 q 874 333 897 343 q 551 261 751 285 l 551 -132 q 524 -160 551 -160 l 414 -160 q 386 -132 386 -160 l 386 246 q 267 241 328 243 q 140 239 206 239 l 103 239 z "},"ㅠ":{"ha":1250,"x_min":78,"x_max":1172,"o":"m 285 -106 q 269 -91 274 -103 q 268 -69 265 -79 q 290 8 281 -35 q 303 99 299 51 q 310 194 308 146 q 313 290 313 243 l 313 360 l 106 360 q 78 388 78 360 l 78 478 q 106 506 78 506 l 1144 506 q 1172 478 1172 506 l 1172 388 q 1144 360 1172 360 l 950 360 l 950 -90 q 922 -118 950 -118 l 806 -118 q 778 -90 778 -118 l 778 360 l 485 360 l 485 290 q 482 185 485 239 q 473 78 479 131 q 456 -23 467 26 q 429 -112 444 -72 q 394 -129 421 -133 l 285 -106 l 285 -106 z "},"ㅡ":{"ha":1250,"x_min":78,"x_max":1172,"o":"m 1144 478 q 1172 450 1172 478 l 1172 360 q 1144 332 1172 332 l 106 332 q 78 360 78 332 l 78 450 q 106 478 78 478 l 1144 478 l 1144 478 z "},"ㅢ":{"ha":1250,"x_min":83,"x_max":1111,"o":"m 939 1014 q 967 1042 939 1042 l 1083 1042 q 1111 1014 1111 1042 l 1111 -139 q 1083 -167 1111 -167 l 967 -167 q 939 -139 939 -167 l 939 1014 m 111 -111 q 83 -83 83 -111 l 83 3 q 111 31 83 31 l 146 31 q 339 37 242 31 q 526 56 436 43 q 692 86 615 68 q 825 129 768 104 q 847 129 836 135 q 861 113 857 124 l 890 35 q 890 15 894 24 q 874 0 885 6 q 730 -48 814 -28 q 549 -83 646 -68 q 347 -104 451 -97 q 146 -111 243 -111 l 111 -111 z "},"ㅣ":{"ha":1250,"x_min":539,"x_max":711,"o":"m 711 -139 q 683 -167 711 -167 l 567 -167 q 539 -139 539 -167 l 539 1014 q 567 1042 539 1042 l 683 1042 q 711 1014 711 1042 l 711 -139 l 711 -139 z "},"Σ":{"ha":883,"x_min":69,"x_max":814,"o":"m 82 825 q 69 860 69 842 l 69 958 q 97 986 69 986 l 786 986 q 814 958 814 986 l 814 854 q 786 826 814 826 l 281 826 l 569 471 q 569 432 585 451 l 281 76 l 786 76 q 814 49 814 76 l 814 -56 q 786 -83 814 -83 l 97 -83 q 69 -56 69 -83 l 69 43 q 82 78 69 61 l 374 451 l 82 825 l 82 825 z "},"Ω":{"ha":1050,"x_min":69,"x_max":981,"o":"m 111 -83 q 83 -56 83 -83 l 83 49 q 111 76 83 76 l 288 76 q 207 158 246 113 q 138 260 168 204 q 88 383 107 317 q 69 528 69 450 q 96 698 69 613 q 178 851 122 783 q 320 960 235 918 q 525 1003 406 1003 q 729 960 643 1003 q 872 851 815 918 q 954 698 928 783 q 981 528 981 613 q 962 383 981 450 q 913 260 943 317 q 843 158 882 204 q 763 76 804 113 l 939 76 q 967 49 967 76 l 967 -56 q 939 -83 967 -83 l 624 -83 q 596 -56 596 -83 l 596 99 q 608 124 596 113 q 758 297 704 201 q 813 514 813 392 q 792 648 813 586 q 733 754 771 710 q 643 824 696 799 q 525 850 590 850 q 407 824 460 850 q 317 754 354 799 q 258 648 279 710 q 238 514 238 586 q 292 297 238 392 q 442 124 346 201 q 454 99 454 113 l 454 -56 q 426 -83 454 -83 l 111 -83 l 111 -83 z "},"α":{"ha":875,"x_min":58,"x_max":775,"o":"m 608 33 q 517 -59 572 -21 q 378 -97 461 -97 q 248 -67 307 -97 q 147 17 189 -36 q 81 142 104 69 q 58 299 58 215 q 81 455 58 382 q 147 581 104 528 q 248 664 189 633 q 378 694 307 694 q 517 656 461 694 q 608 564 572 618 l 608 653 q 636 681 608 681 l 747 681 q 775 653 775 681 l 775 -56 q 747 -83 775 -83 l 636 -83 q 608 -56 608 -83 l 608 33 m 232 299 q 283 109 232 176 q 411 42 333 42 q 495 65 458 42 q 558 124 532 88 q 597 207 583 161 q 611 299 611 253 q 597 390 611 344 q 558 473 583 436 q 495 533 532 510 q 411 556 458 556 q 283 488 333 556 q 232 299 232 421 z "},"β":{"ha":919,"x_min":97,"x_max":850,"o":"m 264 -292 q 236 -319 264 -319 l 125 -319 q 97 -292 97 -319 l 97 613 q 122 763 97 692 q 195 887 146 833 q 317 972 244 940 q 485 1003 389 1003 q 617 981 556 1003 q 724 919 679 958 q 795 828 769 881 q 821 714 821 775 q 780 573 821 642 q 657 465 739 504 q 797 365 744 433 q 850 201 850 296 q 826 83 850 139 q 760 -12 803 28 q 658 -76 717 -53 q 526 -100 599 -100 q 264 -17 383 -100 l 264 -292 m 264 147 q 385 74 324 97 q 515 51 447 51 q 636 94 590 51 q 682 201 682 136 q 623 330 682 283 q 446 376 564 376 l 385 376 q 357 404 357 376 l 357 501 q 385 529 357 529 l 444 529 q 603 576 550 529 q 656 697 656 624 q 606 804 656 763 q 481 846 557 846 q 386 828 426 846 q 319 778 346 810 q 278 703 292 746 q 264 613 264 661 l 264 147 z "},"μ":{"ha":865,"x_min":100,"x_max":765,"o":"m 599 653 q 626 681 599 681 l 738 681 q 765 653 765 681 l 765 -56 q 738 -83 765 -83 l 626 -83 q 599 -56 599 -83 l 599 126 q 474 -40 547 17 q 318 -97 400 -97 q 267 -92 289 -97 l 267 -292 q 239 -319 267 -319 l 128 -319 q 100 -292 100 -319 l 100 653 q 128 681 100 681 l 239 681 q 267 653 267 681 l 267 265 q 274 156 267 199 q 294 90 281 114 q 325 56 307 65 q 365 46 343 46 q 428 67 396 46 q 492 133 461 88 q 551 249 524 178 q 599 418 579 319 l 599 653 l 599 653 z "},"π":{"ha":986,"x_min":69,"x_max":917,"o":"m 69 653 q 97 681 69 681 l 889 681 q 917 653 917 681 l 917 556 q 889 528 917 528 l 750 528 l 750 106 q 775 53 750 67 q 844 58 800 40 q 879 43 872 69 l 901 -44 q 885 -79 908 -69 q 836 -93 861 -89 q 778 -97 811 -97 q 630 -44 676 -97 q 583 96 583 10 l 583 528 l 361 528 l 361 -56 q 333 -83 361 -83 l 222 -83 q 194 -56 194 -83 l 194 528 l 97 528 q 69 556 69 528 l 69 653 l 69 653 z "},"①":{"ha":1250,"x_min":42,"x_max":1208,"o":"m 625 -146 q 398 -100 504 -146 q 213 25 292 -54 q 88 210 133 104 q 42 438 42 317 q 88 665 42 558 q 213 850 133 771 q 398 975 292 929 q 625 1021 504 1021 q 852 975 746 1021 q 1038 850 958 929 q 1163 665 1117 771 q 1208 438 1208 558 q 1163 210 1208 317 q 1038 25 1117 104 q 852 -100 958 -54 q 625 -146 746 -146 m 625 -76 q 824 -36 731 -76 q 988 74 918 4 q 1099 238 1058 144 q 1139 438 1139 331 q 1099 637 1139 543 q 988 800 1058 731 q 824 910 918 869 q 625 951 731 951 q 425 910 518 951 q 262 800 332 869 q 151 637 192 731 q 111 438 111 543 q 151 238 111 331 q 262 74 192 144 q 425 -36 332 4 q 625 -76 518 -76 m 726 103 q 699 75 726 75 l 604 75 q 576 103 576 75 l 576 613 l 475 551 q 438 561 451 539 l 393 633 q 401 671 378 656 l 601 790 q 635 800 617 800 l 699 800 q 726 772 726 800 l 726 103 z "},"②":{"ha":1250,"x_min":42,"x_max":1208,"o":"m 625 -146 q 398 -100 504 -146 q 213 25 292 -54 q 88 210 133 104 q 42 438 42 317 q 88 665 42 558 q 213 850 133 771 q 398 975 292 929 q 625 1021 504 1021 q 852 975 746 1021 q 1038 850 958 929 q 1163 665 1117 771 q 1208 438 1208 558 q 1163 210 1208 317 q 1038 25 1117 104 q 852 -100 958 -54 q 625 -146 746 -146 m 625 -76 q 824 -36 731 -76 q 988 74 918 4 q 1099 238 1058 144 q 1139 438 1139 331 q 1099 637 1139 543 q 988 800 1058 731 q 824 910 918 869 q 625 951 731 951 q 425 910 518 951 q 262 800 332 869 q 151 637 192 731 q 111 438 111 543 q 151 238 111 331 q 262 74 192 144 q 425 -36 332 4 q 625 -76 518 -76 m 519 581 q 485 561 511 553 l 399 588 q 378 621 372 596 q 406 690 388 654 q 456 753 425 725 q 533 801 488 782 q 639 819 578 819 q 741 802 694 819 q 820 753 788 785 q 871 678 853 722 q 889 582 889 635 q 867 483 889 532 q 807 389 844 435 q 720 301 769 343 q 617 225 671 260 l 854 225 q 882 197 882 225 l 882 113 q 854 85 882 85 l 419 85 q 392 113 392 85 l 392 196 q 411 229 392 218 q 542 318 482 274 q 647 407 603 363 q 715 494 690 451 q 740 579 740 538 q 713 653 740 625 q 638 681 686 681 q 563 653 592 681 q 519 581 533 625 z "},"③":{"ha":1250,"x_min":42,"x_max":1208,"o":"m 639 206 q 726 230 697 206 q 756 288 756 254 q 721 345 756 322 q 615 368 686 368 l 585 368 q 557 396 557 368 l 557 463 q 585 490 557 490 l 607 490 q 713 521 682 490 q 744 586 744 551 q 715 647 744 625 q 638 668 686 668 q 563 652 594 668 q 508 607 532 636 q 469 601 489 586 l 403 651 q 396 690 379 669 q 490 772 431 736 q 640 807 550 807 q 747 790 700 807 q 826 744 793 772 q 875 678 858 715 q 892 599 892 640 q 858 503 892 546 q 776 439 825 461 q 869 383 831 424 q 907 279 907 343 q 888 199 907 238 q 835 131 869 160 q 750 84 800 101 q 638 67 700 67 q 540 77 582 67 q 465 104 497 88 q 409 142 433 121 q 367 186 385 164 q 369 225 350 206 l 438 288 q 476 283 458 308 q 639 206 533 206 m 625 -146 q 398 -100 504 -146 q 213 25 292 -54 q 88 210 133 104 q 42 438 42 317 q 88 665 42 558 q 213 850 133 771 q 398 975 292 929 q 625 1021 504 1021 q 852 975 746 1021 q 1038 850 958 929 q 1163 665 1117 771 q 1208 438 1208 558 q 1163 210 1208 317 q 1038 25 1117 104 q 852 -100 958 -54 q 625 -146 746 -146 m 625 -76 q 824 -36 731 -76 q 988 74 918 4 q 1099 238 1058 144 q 1139 438 1139 331 q 1099 637 1139 543 q 988 800 1058 731 q 824 910 918 869 q 625 951 731 951 q 425 910 518 951 q 262 800 332 869 q 151 637 192 731 q 111 438 111 543 q 151 238 111 331 q 262 74 192 144 q 425 -36 332 4 q 625 -76 518 -76 z "},"④":{"ha":1250,"x_min":42,"x_max":1208,"o":"m 328 233 q 300 261 300 233 l 300 319 q 311 354 300 339 l 628 783 q 661 800 639 800 l 764 800 q 792 772 792 800 l 792 367 l 867 367 q 894 339 894 367 l 894 261 q 867 233 894 233 l 792 233 l 792 103 q 764 75 792 75 l 669 75 q 642 103 642 75 l 642 233 l 328 233 m 642 367 l 642 606 l 469 367 l 642 367 m 625 -146 q 398 -100 504 -146 q 213 25 292 -54 q 88 210 133 104 q 42 438 42 317 q 88 665 42 558 q 213 850 133 771 q 398 975 292 929 q 625 1021 504 1021 q 852 975 746 1021 q 1038 850 958 929 q 1163 665 1117 771 q 1208 438 1208 558 q 1163 210 1208 317 q 1038 25 1117 104 q 852 -100 958 -54 q 625 -146 746 -146 m 625 -76 q 824 -36 731 -76 q 988 74 918 4 q 1099 238 1058 144 q 1139 438 1139 331 q 1099 637 1139 543 q 988 800 1058 731 q 824 910 918 869 q 625 951 731 951 q 425 910 518 951 q 262 800 332 869 q 151 637 192 731 q 111 438 111 543 q 151 238 111 331 q 262 74 192 144 q 425 -36 332 4 q 625 -76 518 -76 z "},"⑤":{"ha":1250,"x_min":42,"x_max":1208,"o":"m 610 200 q 706 231 669 200 q 742 308 742 263 q 705 384 742 354 q 606 414 668 414 q 537 405 567 414 q 479 383 507 396 q 442 383 460 374 l 400 407 q 382 442 378 418 l 428 765 q 458 790 432 790 l 847 790 q 875 763 875 790 l 875 685 q 847 657 875 657 l 560 657 l 539 518 q 585 530 560 525 q 635 535 610 535 q 731 521 685 535 q 813 478 778 507 q 870 407 849 450 q 892 306 892 364 q 873 215 892 258 q 817 137 854 171 q 728 83 781 103 q 610 63 676 63 q 468 92 532 63 q 354 174 404 121 q 354 213 336 192 l 413 272 q 454 269 431 293 q 610 200 524 200 m 625 -146 q 398 -100 504 -146 q 213 25 292 -54 q 88 210 133 104 q 42 438 42 317 q 88 665 42 558 q 213 850 133 771 q 398 975 292 929 q 625 1021 504 1021 q 852 975 746 1021 q 1038 850 958 929 q 1163 665 1117 771 q 1208 438 1208 558 q 1163 210 1208 317 q 1038 25 1117 104 q 852 -100 958 -54 q 625 -146 746 -146 m 625 -76 q 824 -36 731 -76 q 988 74 918 4 q 1099 238 1058 144 q 1139 438 1139 331 q 1099 637 1139 543 q 988 800 1058 731 q 824 910 918 869 q 625 951 731 951 q 425 910 518 951 q 262 800 332 869 q 151 637 192 731 q 111 438 111 543 q 151 238 111 331 q 262 74 192 144 q 425 -36 332 4 q 625 -76 518 -76 z "},"⑥":{"ha":1250,"x_min":42,"x_max":1208,"o":"m 626 200 q 712 233 681 200 q 743 314 743 267 q 710 397 743 367 q 629 428 678 428 q 547 400 585 428 q 492 328 508 372 q 540 235 503 269 q 626 200 578 200 m 336 419 q 353 560 336 490 q 408 684 371 629 q 504 773 446 739 q 646 807 563 807 q 777 781 725 807 q 869 713 829 756 q 867 674 886 693 l 814 625 q 775 625 794 606 q 715 668 746 653 q 644 683 685 683 q 533 631 578 683 q 478 467 488 579 q 553 523 508 503 q 647 543 599 543 q 749 526 704 543 q 826 478 794 508 q 876 404 858 447 q 893 311 893 361 q 876 222 893 265 q 824 143 858 178 q 740 88 790 108 q 626 67 690 67 q 498 97 553 67 q 407 176 443 126 q 353 288 371 225 q 336 419 336 351 m 625 -146 q 398 -100 504 -146 q 213 25 292 -54 q 88 210 133 104 q 42 438 42 317 q 88 665 42 558 q 213 850 133 771 q 398 975 292 929 q 625 1021 504 1021 q 852 975 746 1021 q 1038 850 958 929 q 1163 665 1117 771 q 1208 438 1208 558 q 1163 210 1208 317 q 1038 25 1117 104 q 852 -100 958 -54 q 625 -146 746 -146 m 625 -76 q 824 -36 731 -76 q 988 74 918 4 q 1099 238 1058 144 q 1139 438 1139 331 q 1099 637 1139 543 q 988 800 1058 731 q 824 910 918 869 q 625 951 731 951 q 425 910 518 951 q 262 800 332 869 q 151 637 192 731 q 111 438 111 543 q 151 238 111 331 q 262 74 192 144 q 425 -36 332 4 q 625 -76 518 -76 z "},"⑦":{"ha":1250,"x_min":42,"x_max":1208,"o":"m 463 104 q 450 142 438 118 l 715 642 l 404 642 q 376 669 376 642 l 376 753 q 404 781 376 781 l 871 781 q 899 753 899 781 l 899 693 q 890 658 899 675 l 582 75 q 544 64 569 50 l 463 104 m 625 -146 q 398 -100 504 -146 q 213 25 292 -54 q 88 210 133 104 q 42 438 42 317 q 88 665 42 558 q 213 850 133 771 q 398 975 292 929 q 625 1021 504 1021 q 852 975 746 1021 q 1038 850 958 929 q 1163 665 1117 771 q 1208 438 1208 558 q 1163 210 1208 317 q 1038 25 1117 104 q 852 -100 958 -54 q 625 -146 746 -146 m 625 -76 q 824 -36 731 -76 q 988 74 918 4 q 1099 238 1058 144 q 1139 438 1139 331 q 1099 637 1139 543 q 988 800 1058 731 q 824 910 918 869 q 625 951 731 951 q 425 910 518 951 q 262 800 332 869 q 151 637 192 731 q 111 438 111 543 q 151 238 111 331 q 262 74 192 144 q 425 -36 332 4 q 625 -76 518 -76 z "},"⑧":{"ha":1250,"x_min":42,"x_max":1208,"o":"m 351 278 q 363 339 351 311 q 394 388 375 367 q 437 424 413 410 q 486 444 461 438 q 444 467 465 453 q 407 503 424 482 q 380 550 390 524 q 369 608 369 576 q 386 683 369 647 q 435 747 403 719 q 515 790 467 774 q 625 807 563 807 q 735 790 688 807 q 815 747 783 774 q 864 683 847 719 q 881 608 881 647 q 870 550 881 576 q 843 503 860 524 q 806 467 826 482 q 764 444 785 453 q 813 424 789 438 q 856 388 838 410 q 887 339 875 367 q 899 278 899 311 q 880 194 899 232 q 826 128 861 156 q 740 84 790 100 q 625 68 689 68 q 510 84 561 68 q 424 128 460 100 q 370 194 389 156 q 351 278 351 232 m 517 588 q 545 525 517 551 q 625 499 574 499 q 705 525 676 499 q 733 588 733 551 q 705 649 733 624 q 625 675 676 675 q 545 649 574 675 q 517 588 517 624 m 625 204 q 719 230 688 204 q 750 292 750 256 q 719 353 750 326 q 625 379 688 379 q 531 353 563 379 q 500 292 500 326 q 531 230 500 256 q 625 204 563 204 m 625 -146 q 398 -100 504 -146 q 213 25 292 -54 q 88 210 133 104 q 42 438 42 317 q 88 665 42 558 q 213 850 133 771 q 398 975 292 929 q 625 1021 504 1021 q 852 975 746 1021 q 1038 850 958 929 q 1163 665 1117 771 q 1208 438 1208 558 q 1163 210 1208 317 q 1038 25 1117 104 q 852 -100 958 -54 q 625 -146 746 -146 m 625 -76 q 824 -36 731 -76 q 988 74 918 4 q 1099 238 1058 144 q 1139 438 1139 331 q 1099 637 1139 543 q 988 800 1058 731 q 824 910 918 869 q 625 951 731 951 q 425 910 518 951 q 262 800 332 869 q 151 637 192 731 q 111 438 111 543 q 151 238 111 331 q 262 74 192 144 q 425 -36 332 4 q 625 -76 518 -76 z "},"⑨":{"ha":1250,"x_min":42,"x_max":1208,"o":"m 625 -146 q 398 -100 504 -146 q 213 25 292 -54 q 88 210 133 104 q 42 438 42 317 q 88 665 42 558 q 213 850 133 771 q 398 975 292 929 q 625 1021 504 1021 q 852 975 746 1021 q 1038 850 958 929 q 1163 665 1117 771 q 1208 438 1208 558 q 1163 210 1208 317 q 1038 25 1117 104 q 852 -100 958 -54 q 625 -146 746 -146 m 625 -76 q 824 -36 731 -76 q 988 74 918 4 q 1099 238 1058 144 q 1139 438 1139 331 q 1099 637 1139 543 q 988 800 1058 731 q 824 910 918 869 q 625 951 731 951 q 425 910 518 951 q 262 800 332 869 q 151 637 192 731 q 111 438 111 543 q 151 238 111 331 q 262 74 192 144 q 425 -36 332 4 q 625 -76 518 -76 m 643 674 q 558 640 589 674 q 526 560 526 607 q 559 476 526 507 q 640 446 592 446 q 723 474 685 446 q 778 546 761 501 q 729 639 767 604 q 643 674 692 674 m 933 454 q 916 314 933 383 q 861 190 899 244 q 765 101 824 135 q 624 67 707 67 q 492 92 544 67 q 400 161 440 118 q 403 200 383 181 l 456 249 q 494 249 475 268 q 554 206 524 221 q 625 190 585 190 q 737 242 692 190 q 792 407 782 294 q 716 351 761 371 q 622 331 671 331 q 519 348 565 331 q 442 396 474 365 q 392 469 410 426 q 375 563 375 513 q 393 652 375 608 q 445 731 411 696 q 529 786 479 765 q 643 807 579 807 q 772 778 718 807 q 863 699 826 749 q 916 586 899 650 q 933 454 933 522 z "},"⑩":{"ha":1236,"x_min":28,"x_max":1194,"o":"m 611 -146 q 384 -100 490 -146 q 199 25 278 -54 q 74 210 119 104 q 28 438 28 317 q 74 665 28 558 q 199 850 119 771 q 384 975 278 929 q 611 1021 490 1021 q 838 975 732 1021 q 1024 850 944 929 q 1149 665 1103 771 q 1194 438 1194 558 q 1149 210 1194 317 q 1024 25 1103 104 q 838 -100 944 -54 q 611 -146 732 -146 m 611 -76 q 810 -36 717 -76 q 974 74 904 4 q 1085 238 1044 144 q 1125 438 1125 331 q 1085 637 1125 543 q 974 800 1044 731 q 810 910 904 869 q 611 951 717 951 q 411 910 504 951 q 248 800 318 869 q 138 637 178 731 q 97 438 97 543 q 138 238 97 331 q 248 74 178 144 q 411 -36 318 4 q 611 -76 504 -76 m 1015 438 q 1002 293 1015 361 q 958 174 989 225 q 880 94 928 124 q 764 64 832 64 q 647 94 694 64 q 569 174 600 124 q 526 293 539 225 q 513 438 513 361 q 526 582 513 514 q 569 701 539 650 q 647 781 600 751 q 764 811 694 811 q 880 781 832 811 q 958 701 928 751 q 1002 582 989 650 q 1015 438 1015 514 m 663 438 q 685 264 663 329 q 763 199 708 199 q 840 264 817 199 q 863 438 863 329 q 840 611 863 546 q 763 676 817 676 q 685 611 708 676 q 663 438 663 546 m 461 103 q 433 75 461 75 l 346 75 q 318 103 318 75 l 318 611 l 290 590 q 251 596 267 572 l 213 656 q 219 694 196 678 l 344 789 q 379 800 360 800 l 433 800 q 461 772 461 800 l 461 103 z "},"⑪":{"ha":1236,"x_min":28,"x_max":1194,"o":"m 611 -146 q 384 -100 490 -146 q 199 25 278 -54 q 74 210 119 104 q 28 438 28 317 q 74 665 28 558 q 199 850 119 771 q 384 975 278 929 q 611 1021 490 1021 q 838 975 732 1021 q 1024 850 944 929 q 1149 665 1103 771 q 1194 438 1194 558 q 1149 210 1194 317 q 1024 25 1103 104 q 838 -100 944 -54 q 611 -146 732 -146 m 611 -76 q 810 -36 717 -76 q 974 74 904 4 q 1085 238 1044 144 q 1125 438 1125 331 q 1085 637 1125 543 q 974 800 1044 731 q 810 910 904 869 q 611 951 717 951 q 411 910 504 951 q 248 800 318 869 q 138 637 178 731 q 97 438 97 543 q 138 238 97 331 q 248 74 178 144 q 411 -36 318 4 q 611 -76 504 -76 m 540 103 q 513 75 540 75 l 425 75 q 397 103 397 75 l 397 611 l 361 582 q 322 588 338 563 l 283 647 q 289 686 267 671 l 424 789 q 458 800 439 800 l 513 800 q 540 772 540 800 l 540 103 m 857 103 q 829 75 857 75 l 742 75 q 714 103 714 75 l 714 611 l 678 582 q 639 588 654 563 l 600 647 q 606 686 583 671 l 740 789 q 775 800 756 800 l 829 800 q 857 772 857 800 l 857 103 z "},"⑫":{"ha":1250,"x_min":42,"x_max":1208,"o":"m 544 590 q 524 622 518 599 q 547 689 531 656 q 591 749 564 722 q 656 792 618 775 q 743 808 693 808 q 838 791 797 808 q 908 743 879 774 q 951 669 936 713 q 965 575 965 626 q 944 473 965 525 q 892 372 924 421 q 820 281 860 324 q 743 208 781 239 l 933 208 q 961 181 961 208 l 961 103 q 933 75 961 75 l 560 75 q 532 103 532 75 l 532 178 q 549 211 532 199 q 656 304 607 257 q 740 398 704 351 q 795 490 775 444 q 815 576 815 535 q 746 672 815 672 q 695 651 718 672 q 661 588 672 629 q 629 565 654 557 l 544 590 m 625 -146 q 398 -100 504 -146 q 213 25 292 -54 q 88 210 133 104 q 42 438 42 317 q 88 665 42 558 q 213 850 133 771 q 398 975 292 929 q 625 1021 504 1021 q 852 975 746 1021 q 1038 850 958 929 q 1163 665 1117 771 q 1208 438 1208 558 q 1163 210 1208 317 q 1038 25 1117 104 q 852 -100 958 -54 q 625 -146 746 -146 m 625 -76 q 824 -36 731 -76 q 988 74 918 4 q 1099 238 1058 144 q 1139 438 1139 331 q 1099 637 1139 543 q 988 800 1058 731 q 824 910 918 869 q 625 951 731 951 q 425 910 518 951 q 262 800 332 869 q 151 637 192 731 q 111 438 111 543 q 151 238 111 331 q 262 74 192 144 q 425 -36 332 4 q 625 -76 518 -76 m 475 103 q 447 75 475 75 l 360 75 q 332 103 332 75 l 332 611 l 304 590 q 265 596 281 572 l 226 656 q 233 694 210 678 l 358 789 q 393 800 374 800 l 447 800 q 475 772 475 800 l 475 103 z "},"⑬":{"ha":1250,"x_min":42,"x_max":1208,"o":"m 625 -146 q 398 -100 504 -146 q 213 25 292 -54 q 88 210 133 104 q 42 438 42 317 q 88 665 42 558 q 213 850 133 771 q 398 975 292 929 q 625 1021 504 1021 q 852 975 746 1021 q 1038 850 958 929 q 1163 665 1117 771 q 1208 438 1208 558 q 1163 210 1208 317 q 1038 25 1117 104 q 852 -100 958 -54 q 625 -146 746 -146 m 625 -76 q 824 -36 731 -76 q 988 74 918 4 q 1099 238 1058 144 q 1139 438 1139 331 q 1099 637 1139 543 q 988 800 1058 731 q 824 910 918 869 q 625 951 731 951 q 425 910 518 951 q 262 800 332 869 q 151 637 192 731 q 111 438 111 543 q 151 238 111 331 q 262 74 192 144 q 425 -36 332 4 q 625 -76 518 -76 m 760 203 q 826 226 801 203 q 851 289 851 250 q 824 351 851 326 q 746 375 797 375 l 699 375 l 699 494 l 739 494 q 816 522 792 494 q 840 594 840 550 q 817 658 840 633 q 754 683 794 683 q 691 662 718 683 q 642 601 664 640 l 549 676 q 583 726 563 703 q 631 768 604 750 q 690 797 657 786 q 761 807 722 807 q 850 791 810 807 q 919 747 890 775 q 965 681 949 719 q 981 599 981 643 q 953 505 981 546 q 885 442 925 464 q 963 382 932 424 q 994 275 994 340 q 977 198 994 235 q 929 132 960 161 q 855 85 899 103 q 760 68 811 68 q 679 79 715 68 q 614 109 643 90 q 562 152 585 128 q 524 201 539 176 l 617 306 q 678 231 640 260 q 760 203 715 203 m 481 75 l 338 75 l 338 611 l 288 572 l 217 678 l 379 800 l 481 800 l 481 75 z "},"⑭":{"ha":1250,"x_min":42,"x_max":1208,"o":"m 625 -146 q 398 -100 504 -146 q 213 25 292 -54 q 88 210 133 104 q 42 438 42 317 q 88 665 42 558 q 213 850 133 771 q 398 975 292 929 q 625 1021 504 1021 q 852 975 746 1021 q 1038 850 958 929 q 1163 665 1117 771 q 1208 438 1208 558 q 1162 210 1208 317 q 1036 25 1115 104 q 851 -100 957 -54 q 625 -146 744 -146 m 625 -76 q 824 -36 731 -76 q 988 74 918 4 q 1099 238 1058 144 q 1139 438 1139 331 q 1099 637 1139 543 q 988 800 1058 731 q 824 910 918 869 q 625 951 731 951 q 425 910 518 951 q 262 800 332 869 q 151 637 192 731 q 111 438 111 543 q 151 238 111 331 q 262 74 192 144 q 425 -36 332 4 q 625 -76 518 -76 m 776 365 l 776 578 l 663 365 l 776 365 m 558 238 q 531 265 531 238 l 531 328 q 539 363 531 346 l 764 781 q 797 800 775 800 l 892 800 q 919 772 919 800 l 919 365 l 978 365 q 1006 338 1006 365 l 1006 265 q 978 238 1006 238 l 919 238 l 919 101 q 892 74 919 74 l 804 74 q 776 101 776 74 l 776 238 l 558 238 m 481 103 q 453 75 481 75 l 365 75 q 338 103 338 75 l 338 611 l 310 590 q 271 596 286 572 l 232 656 q 239 694 215 678 l 364 789 q 399 800 379 800 l 453 800 q 481 772 481 800 l 481 103 z "},"⑮":{"ha":1250,"x_min":42,"x_max":1208,"o":"m 625 -146 q 398 -100 504 -146 q 213 25 292 -54 q 88 210 133 104 q 42 438 42 317 q 88 665 42 558 q 213 850 133 771 q 398 975 292 929 q 625 1021 504 1021 q 852 975 746 1021 q 1038 850 958 929 q 1163 665 1117 771 q 1208 438 1208 558 q 1163 210 1208 317 q 1038 25 1117 104 q 852 -100 958 -54 q 625 -146 746 -146 m 625 -76 q 824 -36 731 -76 q 988 74 918 4 q 1099 238 1058 144 q 1139 438 1139 331 q 1099 637 1139 543 q 988 800 1058 731 q 824 910 918 869 q 625 951 731 951 q 425 910 518 951 q 262 800 332 869 q 151 637 192 731 q 111 438 111 543 q 151 238 111 331 q 262 74 192 144 q 425 -36 332 4 q 625 -76 518 -76 m 732 201 q 803 231 778 201 q 828 311 828 261 q 799 391 828 361 q 722 421 769 421 q 679 414 700 421 q 640 396 658 407 q 601 396 619 383 l 572 415 q 556 450 554 428 l 596 771 q 625 797 599 797 l 914 797 q 942 769 942 797 l 942 692 q 914 664 942 664 l 713 664 l 697 528 q 750 536 722 536 q 838 521 797 536 q 910 477 879 506 q 958 406 940 449 q 976 310 976 364 q 959 217 976 261 q 910 140 942 174 q 835 88 879 107 q 739 68 792 68 q 620 95 671 68 q 532 171 569 122 q 535 210 518 190 l 586 268 q 608 274 596 279 q 635 253 619 269 q 682 213 658 225 q 732 201 706 201 m 478 103 q 450 75 478 75 l 363 75 q 335 103 335 75 l 335 611 l 307 590 q 268 596 283 572 l 229 656 q 236 694 213 678 l 361 789 q 396 800 376 800 l 450 800 q 478 772 478 800 l 478 103 z "},"¹":{"ha":457,"x_min":18,"x_max":290,"o":"m 290 578 q 263 550 290 550 l 182 550 q 154 578 154 550 l 154 944 l 99 914 q 61 924 74 900 l 32 975 q 43 1014 18 1000 l 206 1103 q 240 1111 219 1111 l 263 1111 q 290 1083 290 1111 l 290 578 l 290 578 z "},"²":{"ha":549,"x_min":63,"x_max":465,"o":"m 339 929 q 321 983 339 961 q 269 1004 303 1004 q 188 940 213 1004 q 153 922 176 914 l 90 940 q 71 975 63 950 q 97 1028 81 1003 q 139 1074 114 1054 q 197 1106 164 1094 q 272 1118 231 1118 q 349 1106 314 1118 q 410 1069 383 1093 q 451 1011 436 1046 q 465 933 465 976 q 449 858 465 896 q 407 787 433 821 q 347 722 381 753 q 278 665 313 690 l 428 665 q 456 638 456 665 l 456 578 q 428 550 456 550 l 107 550 q 79 578 79 550 l 79 633 q 117 678 79 656 q 280 805 221 743 q 339 929 339 867 z "},"³":{"ha":525,"x_min":35,"x_max":449,"o":"m 243 651 q 301 670 279 651 q 322 717 322 689 q 300 763 322 746 q 236 779 278 779 l 207 779 q 179 807 179 779 l 179 854 q 207 882 179 882 l 231 882 q 298 903 276 882 q 319 951 319 924 q 299 994 319 976 q 247 1013 279 1013 q 161 968 197 1013 q 122 961 143 946 l 78 992 q 69 1029 54 1008 q 141 1092 96 1065 q 250 1118 186 1118 q 330 1106 294 1118 q 390 1071 365 1093 q 427 1020 414 1049 q 440 961 440 992 q 415 882 440 914 q 354 835 390 850 q 422 790 394 822 q 449 708 449 758 q 392 589 449 635 q 246 543 336 543 q 123 569 171 543 q 47 632 75 594 q 53 669 35 651 l 94 708 q 135 703 114 726 q 243 651 182 651 z "},"⁴":{"ha":546,"x_min":35,"x_max":490,"o":"m 63 671 q 35 699 35 671 l 35 731 q 46 765 35 750 l 281 1094 q 314 1111 293 1111 l 386 1111 q 414 1083 414 1111 l 414 776 l 463 776 q 490 749 490 776 l 490 699 q 463 671 490 671 l 414 671 l 414 578 q 386 550 414 550 l 322 550 q 294 578 294 550 l 294 671 l 63 671 m 294 776 l 294 953 l 169 776 l 294 776 z "},"ⁿ":{"ha":579,"x_min":100,"x_max":486,"o":"m 219 578 q 192 550 219 550 l 128 550 q 100 578 100 550 l 100 958 q 128 986 100 986 l 192 986 q 219 958 219 986 l 219 904 q 281 969 246 946 q 354 993 317 993 q 450 950 414 993 q 486 807 486 907 l 486 578 q 458 550 486 550 l 394 550 q 367 578 367 550 l 367 792 q 356 863 367 843 q 328 883 344 883 q 301 876 315 883 q 272 848 286 868 q 243 794 257 828 q 219 706 229 760 l 219 578 l 219 578 z "},"₁":{"ha":457,"x_min":18,"x_max":290,"o":"m 290 -236 q 263 -264 290 -264 l 182 -264 q 154 -236 154 -264 l 154 131 l 99 100 q 61 110 74 86 l 32 161 q 43 200 18 186 l 206 289 q 240 297 219 297 l 263 297 q 290 269 290 297 l 290 -236 l 290 -236 z "},"₂":{"ha":549,"x_min":63,"x_max":465,"o":"m 339 115 q 321 169 339 147 q 269 190 303 190 q 188 126 213 190 q 153 108 176 100 l 90 126 q 71 161 63 136 q 97 215 81 189 q 139 260 114 240 q 197 292 164 281 q 272 304 231 304 q 349 292 314 304 q 410 256 383 279 q 451 197 436 232 q 465 119 465 163 q 449 44 465 82 q 407 -27 433 7 q 347 -92 381 -61 q 278 -149 313 -124 l 428 -149 q 456 -176 456 -149 l 456 -236 q 428 -264 456 -264 l 107 -264 q 79 -236 79 -264 l 79 -181 q 117 -136 79 -158 q 280 -9 221 -71 q 339 115 339 53 z "},"₃":{"ha":525,"x_min":35,"x_max":449,"o":"m 243 -160 q 301 -141 279 -160 q 322 -94 322 -122 q 300 -49 322 -65 q 236 -32 278 -32 l 207 -32 q 179 -4 179 -32 l 179 43 q 207 71 179 71 l 231 71 q 298 92 276 71 q 319 140 319 113 q 299 183 319 165 q 247 201 279 201 q 161 157 197 201 q 122 150 143 135 l 78 181 q 69 218 54 197 q 141 281 96 254 q 250 307 186 307 q 330 294 294 307 q 390 260 365 282 q 427 209 414 238 q 440 150 440 181 q 415 71 440 103 q 354 24 390 39 q 422 -21 394 11 q 449 -103 449 -53 q 392 -222 449 -176 q 246 -268 336 -268 q 123 -242 171 -268 q 47 -179 75 -217 q 53 -142 35 -160 l 94 -103 q 135 -108 114 -85 q 243 -160 182 -160 z "},"₄":{"ha":546,"x_min":35,"x_max":490,"o":"m 63 -143 q 35 -115 35 -143 l 35 -83 q 46 -49 35 -64 l 281 281 q 314 297 293 297 l 386 297 q 414 269 414 297 l 414 -37 l 463 -37 q 490 -65 490 -37 l 490 -115 q 463 -143 490 -143 l 414 -143 l 414 -236 q 386 -264 414 -264 l 322 -264 q 294 -236 294 -264 l 294 -143 l 63 -143 m 294 -37 l 294 139 l 169 -37 l 294 -37 z "},"가":{"ha":1250,"x_min":81,"x_max":1229,"o":"m 911 1014 q 939 1042 911 1042 l 1056 1042 q 1083 1014 1083 1042 l 1083 557 l 1201 557 q 1229 529 1229 557 l 1229 435 q 1201 407 1229 407 l 1083 407 l 1083 -139 q 1056 -167 1083 -167 l 939 -167 q 911 -139 911 -167 l 911 1014 m 600 1003 q 701 965 663 1003 q 739 864 739 926 q 692 533 739 682 q 568 265 644 383 q 394 58 492 147 q 197 -92 297 -31 q 156 -85 169 -108 l 97 10 q 113 53 81 38 q 281 173 199 99 q 426 346 363 247 q 528 567 489 444 q 567 831 567 689 q 539 858 567 858 l 135 858 q 107 886 107 858 l 107 975 q 135 1003 107 1003 l 600 1003 z "},"각":{"ha":1250,"x_min":68,"x_max":1229,"o":"m 911 1014 q 939 1042 911 1042 l 1053 1042 q 1081 1014 1081 1042 l 1081 790 l 1201 790 q 1229 763 1229 790 l 1229 668 q 1201 640 1229 640 l 1081 640 l 1081 394 q 1053 367 1081 367 l 939 367 q 911 394 911 367 l 911 1014 m 939 -167 q 911 -139 911 -167 l 911 142 q 883 169 911 169 l 174 169 q 146 197 146 169 l 146 283 q 174 311 146 311 l 944 311 q 1045 273 1007 311 q 1083 172 1083 235 l 1083 -139 q 1056 -167 1083 -167 l 939 -167 m 606 1014 q 706 976 668 1014 q 744 875 744 938 q 717 750 744 810 q 642 639 689 690 q 534 544 596 588 q 405 465 472 500 q 268 405 338 431 q 136 364 199 379 q 101 378 110 357 l 71 471 q 72 493 68 482 q 89 507 76 504 q 266 569 179 531 q 421 654 353 608 q 531 750 489 700 q 572 846 572 800 q 544 874 572 874 l 125 874 q 97 901 97 874 l 97 986 q 125 1014 97 1014 l 606 1014 z "},"간":{"ha":1250,"x_min":67,"x_max":1229,"o":"m 911 1014 q 939 1042 911 1042 l 1053 1042 q 1081 1014 1081 1042 l 1081 740 l 1201 740 q 1229 713 1229 740 l 1229 618 q 1201 590 1229 590 l 1081 590 l 1081 211 q 1053 183 1081 183 l 939 183 q 911 211 911 183 l 911 1014 m 153 246 q 181 274 153 274 l 297 274 q 325 246 325 274 l 325 1 q 353 -26 325 -26 l 1083 -26 q 1111 -54 1111 -26 l 1111 -139 q 1083 -167 1111 -167 l 292 -167 q 191 -128 229 -167 q 153 -28 153 -90 l 153 246 m 606 1014 q 706 976 668 1014 q 744 875 744 938 q 717 741 744 804 q 643 622 689 678 q 535 520 597 567 q 407 436 474 474 q 271 371 340 399 q 139 326 201 343 q 118 326 128 324 q 104 340 108 329 l 71 436 q 72 458 67 447 q 88 472 76 469 q 265 540 178 497 q 420 632 351 582 q 531 738 489 682 q 572 846 572 793 q 544 874 572 874 l 125 874 q 97 901 97 874 l 97 986 q 125 1014 97 1014 l 606 1014 z "},"갇":{"ha":1250,"x_min":68,"x_max":1229,"o":"m 911 1014 q 939 1042 911 1042 l 1053 1042 q 1081 1014 1081 1042 l 1081 821 l 1201 821 q 1229 793 1229 821 l 1229 699 q 1201 671 1229 671 l 1081 671 l 1081 447 q 1053 419 1081 419 l 939 419 q 911 447 911 419 l 911 1014 m 1056 358 q 1083 331 1083 358 l 1083 251 q 1056 224 1083 224 l 360 224 q 332 196 332 224 l 332 -3 q 360 -31 332 -31 l 1076 -31 q 1104 -58 1104 -31 l 1104 -139 q 1076 -167 1104 -167 l 299 -167 q 198 -128 236 -167 q 160 -28 160 -90 l 160 219 q 198 320 160 282 q 299 358 236 358 l 1056 358 m 606 1014 q 706 976 668 1014 q 744 875 744 938 q 717 761 744 815 q 642 660 689 707 q 533 572 594 613 q 403 500 471 532 q 265 445 335 468 q 133 408 196 422 q 113 408 122 406 q 100 422 103 411 l 72 513 q 72 534 68 524 q 89 547 76 544 q 267 605 181 569 q 422 681 354 640 q 531 766 489 722 q 572 847 572 810 q 544 875 572 875 l 125 875 q 97 903 97 875 l 97 986 q 125 1014 97 1014 l 606 1014 z "},"갈":{"ha":1250,"x_min":69,"x_max":1229,"o":"m 911 1014 q 939 1042 911 1042 l 1053 1042 q 1081 1014 1081 1042 l 1081 829 l 1201 829 q 1229 801 1229 829 l 1229 707 q 1201 679 1229 679 l 1081 679 l 1081 481 q 1053 453 1081 453 l 939 453 q 911 481 911 453 l 911 1014 m 356 53 q 328 25 328 53 l 328 -11 q 356 -39 328 -39 l 1078 -39 q 1106 -67 1106 -39 l 1106 -144 q 1078 -172 1106 -172 l 297 -172 q 197 -134 235 -172 q 158 -33 158 -96 l 158 42 q 197 142 158 104 q 297 181 235 181 l 893 181 q 921 208 921 181 l 921 243 q 893 271 921 271 l 186 271 q 158 299 158 271 l 158 372 q 186 400 158 400 l 951 400 q 1052 362 1014 400 q 1090 261 1090 324 l 1090 192 q 1052 91 1090 129 q 951 53 1014 53 l 356 53 m 606 1014 q 706 976 668 1014 q 744 875 744 938 q 717 769 744 819 q 641 674 689 718 q 531 592 593 629 q 401 524 469 554 q 263 473 332 494 q 131 439 193 451 q 110 439 119 436 q 97 453 100 442 l 72 540 q 73 563 69 553 q 90 575 76 572 q 269 628 182 596 q 423 699 356 661 q 531 775 490 736 q 572 847 572 814 q 544 875 572 875 l 125 875 q 97 903 97 875 l 97 986 q 125 1014 97 1014 l 606 1014 z "},"갉":{"ha":1250,"x_min":69,"x_max":1229,"o":"m 911 1014 q 939 1042 911 1042 l 1053 1042 q 1081 1014 1081 1042 l 1081 832 l 1201 832 q 1229 804 1229 832 l 1229 710 q 1201 682 1229 682 l 1081 682 l 1081 481 q 1053 453 1081 453 l 939 453 q 911 481 911 453 l 911 1014 m 328 57 q 304 33 304 57 l 304 -21 q 328 -44 304 -44 l 654 -44 q 682 -72 682 -44 l 682 -144 q 654 -172 682 -172 l 292 -172 q 191 -134 229 -172 q 153 -33 153 -96 l 153 39 q 191 140 153 101 q 292 178 229 178 l 451 178 q 475 201 475 178 l 475 251 q 451 275 475 275 l 190 275 q 163 303 163 275 l 163 372 q 190 400 163 400 l 483 400 q 584 362 546 400 q 622 261 622 324 l 622 196 q 584 95 622 133 q 483 57 546 57 l 328 57 m 1110 -144 q 1082 -172 1110 -172 l 978 -172 q 950 -144 950 -172 l 950 232 q 922 260 950 260 l 700 260 q 672 288 672 260 l 672 372 q 700 400 672 400 l 971 400 q 1072 362 1033 400 q 1110 261 1110 324 l 1110 -144 m 606 1014 q 706 976 668 1014 q 744 875 744 938 q 717 771 744 821 q 641 677 689 721 q 531 596 593 633 q 401 529 469 558 q 263 478 332 500 q 131 446 193 457 q 110 446 119 443 q 97 460 100 449 l 72 547 q 73 569 69 560 q 90 582 76 579 q 269 634 182 601 q 423 703 356 667 q 531 778 490 740 q 572 847 572 815 q 544 875 572 875 l 125 875 q 97 903 97 875 l 97 986 q 125 1014 97 1014 l 606 1014 z "},"갊":{"ha":1250,"x_min":69,"x_max":1229,"o":"m 606 1014 q 706 976 668 1014 q 744 875 744 938 q 717 771 744 821 q 641 677 689 721 q 531 596 593 633 q 401 529 469 558 q 263 478 332 500 q 131 446 193 457 q 110 446 119 443 q 97 460 100 449 l 72 547 q 73 569 69 560 q 90 582 76 579 q 269 634 182 601 q 423 703 356 667 q 531 778 490 740 q 572 847 572 815 q 544 875 572 875 l 125 875 q 97 903 97 875 l 97 986 q 125 1014 97 1014 l 606 1014 m 911 1014 q 939 1042 911 1042 l 1053 1042 q 1081 1014 1081 1042 l 1081 832 l 1201 832 q 1229 804 1229 832 l 1229 710 q 1201 682 1229 682 l 1081 682 l 1081 481 q 1053 453 1081 453 l 939 453 q 911 481 911 453 l 911 1014 m 324 57 q 300 33 300 57 l 300 -24 q 324 -47 300 -47 l 581 -47 q 608 -75 608 -47 l 608 -144 q 581 -172 608 -172 l 288 -172 q 187 -134 225 -172 q 149 -33 149 -96 l 149 36 q 187 137 149 99 q 288 175 225 175 l 428 175 q 451 199 451 175 l 451 253 q 428 276 451 276 l 186 276 q 158 304 158 276 l 158 372 q 186 400 158 400 l 460 400 q 560 362 522 400 q 599 261 599 324 l 599 196 q 560 95 599 133 q 460 57 522 57 l 324 57 m 822 274 q 797 249 797 274 l 797 -19 q 822 -44 797 -44 l 936 -44 q 961 -19 961 -44 l 961 249 q 936 274 961 274 l 822 274 m 650 261 q 688 362 650 324 q 789 400 726 400 l 971 400 q 1072 362 1033 400 q 1110 261 1110 324 l 1110 -33 q 1072 -134 1110 -96 q 971 -172 1033 -172 l 789 -172 q 688 -134 726 -172 q 650 -33 650 -96 l 650 261 z "},"감":{"ha":1250,"x_min":68,"x_max":1229,"o":"m 911 1014 q 939 1042 911 1042 l 1053 1042 q 1081 1014 1081 1042 l 1081 811 l 1201 811 q 1229 783 1229 811 l 1229 689 q 1201 661 1229 661 l 1081 661 l 1081 443 q 1053 415 1081 415 l 939 415 q 911 443 911 415 l 911 1014 m 346 226 q 318 199 318 226 l 318 -6 q 346 -33 318 -33 l 893 -33 q 921 -6 921 -33 l 921 199 q 893 226 921 226 l 346 226 m 146 221 q 184 322 146 283 q 285 360 222 360 l 954 360 q 1055 322 1017 360 q 1093 221 1093 283 l 1093 -28 q 1055 -128 1093 -90 q 954 -167 1017 -167 l 285 -167 q 184 -128 222 -167 q 146 -28 146 -90 l 146 221 m 606 1014 q 706 976 668 1014 q 744 875 744 938 q 717 759 744 814 q 642 656 689 704 q 533 567 594 608 q 403 494 471 526 q 265 439 335 463 q 133 401 196 415 q 100 415 107 394 l 72 506 q 72 527 68 517 q 89 540 76 538 q 267 599 181 563 q 422 676 354 635 q 531 763 489 718 q 572 847 572 807 q 544 875 572 875 l 125 875 q 97 903 97 875 l 97 986 q 125 1014 97 1014 l 606 1014 z "},"갑":{"ha":1250,"x_min":69,"x_max":1229,"o":"m 911 1014 q 939 1042 911 1042 l 1053 1042 q 1081 1014 1081 1042 l 1081 803 l 1201 803 q 1229 775 1229 803 l 1229 681 q 1201 653 1229 653 l 1081 653 l 1081 449 q 1053 421 1081 421 l 939 421 q 911 449 911 421 l 911 1014 m 288 -167 q 187 -128 225 -167 q 149 -28 149 -90 l 149 338 q 176 365 149 365 l 293 365 q 321 338 321 365 l 321 229 l 913 229 l 913 338 q 940 365 913 365 l 1056 365 q 1083 338 1083 365 l 1083 -28 q 1045 -128 1083 -90 q 944 -167 1007 -167 l 288 -167 m 606 1014 q 706 976 668 1014 q 744 875 744 938 q 717 763 744 817 q 642 663 689 710 q 532 577 594 617 q 401 506 469 538 q 264 452 333 475 q 132 417 194 429 q 99 431 106 410 l 72 519 q 73 542 69 532 q 90 554 76 551 q 268 610 182 575 q 422 685 354 644 q 531 767 490 725 q 572 847 572 810 q 544 875 572 875 l 125 875 q 97 903 97 875 l 97 986 q 125 1014 97 1014 l 606 1014 m 321 -7 q 349 -35 321 -35 l 885 -35 q 913 -7 913 -35 l 913 101 l 321 101 l 321 -7 z "},"값":{"ha":1250,"x_min":69,"x_max":1229,"o":"m 911 1014 q 939 1042 911 1042 l 1053 1042 q 1081 1014 1081 1042 l 1081 794 l 1201 794 q 1229 767 1229 794 l 1229 672 q 1201 644 1229 644 l 1081 644 l 1081 463 q 1053 435 1081 435 l 939 435 q 911 463 911 435 l 911 1014 m 658 -51 q 781 130 733 21 q 846 358 828 239 q 875 381 851 385 l 981 363 q 1000 332 1003 358 q 990 274 997 304 q 974 211 983 243 q 1063 67 1011 138 q 1164 -47 1114 -3 q 1173 -66 1175 -57 q 1163 -86 1171 -75 l 1100 -160 q 1063 -160 1083 -181 q 983 -71 1025 -124 q 906 40 942 -18 q 838 -72 875 -19 q 760 -164 801 -125 q 722 -161 740 -182 l 657 -89 q 658 -51 639 -71 m 297 -172 q 197 -134 235 -172 q 158 -33 158 -96 l 158 342 q 186 369 158 369 l 282 369 q 310 342 310 369 l 310 215 l 479 215 l 479 342 q 507 369 479 369 l 601 369 q 629 342 629 369 l 629 -33 q 591 -134 629 -96 q 490 -172 553 -172 l 297 -172 m 606 1014 q 706 976 668 1014 q 744 875 744 938 q 717 763 744 817 q 642 663 689 710 q 532 577 594 617 q 401 506 469 538 q 264 452 333 475 q 132 417 194 429 q 99 431 106 410 l 72 519 q 73 542 69 532 q 90 554 76 551 q 268 610 182 575 q 422 685 354 644 q 531 767 490 725 q 572 847 572 810 q 544 875 572 875 l 125 875 q 97 903 97 875 l 97 986 q 125 1014 97 1014 l 606 1014 m 310 -21 q 338 -49 310 -49 l 447 -49 q 479 -21 479 -49 l 479 94 l 310 94 l 310 -21 z "},"갓":{"ha":1250,"x_min":68,"x_max":1229,"o":"m 606 1014 q 706 976 668 1014 q 744 875 744 938 q 717 748 744 808 q 642 635 689 688 q 534 539 596 583 q 405 459 472 494 q 268 398 338 424 q 136 357 199 372 q 103 371 110 350 l 71 464 q 72 486 68 475 q 89 500 76 497 q 266 563 179 524 q 421 649 353 603 q 531 747 489 696 q 572 846 572 799 q 544 874 572 874 l 125 874 q 97 901 97 874 l 97 986 q 125 1014 97 1014 l 606 1014 m 911 1014 q 939 1042 911 1042 l 1053 1042 q 1081 1014 1081 1042 l 1081 767 l 1201 767 q 1229 739 1229 767 l 1229 644 q 1201 617 1229 617 l 1081 617 l 1081 258 q 1053 231 1081 231 l 939 231 q 911 258 911 231 l 911 1014 m 164 -32 q 306 33 238 -8 q 432 127 375 74 q 532 244 489 181 q 597 376 575 307 q 629 394 607 401 l 735 364 q 751 349 747 360 q 753 328 756 339 q 731 265 744 296 q 701 204 718 235 q 797 128 746 164 q 901 63 847 93 q 1008 8 954 32 q 1113 -32 1063 -15 q 1131 -44 1128 -36 q 1129 -64 1133 -53 l 1094 -161 q 1081 -174 1092 -172 q 1058 -174 1071 -176 q 951 -131 1008 -157 q 833 -72 893 -106 q 717 1 774 -39 q 613 83 660 40 q 427 -75 532 -7 q 214 -175 322 -143 q 181 -158 188 -181 l 149 -67 q 164 -32 140 -40 z "},"갔":{"ha":1250,"x_min":68,"x_max":1229,"o":"m 911 1014 q 939 1042 911 1042 l 1053 1042 q 1081 1014 1081 1042 l 1081 801 l 1201 801 q 1229 774 1229 801 l 1229 679 q 1201 651 1229 651 l 1081 651 l 1081 433 q 1053 406 1081 406 l 939 406 q 911 433 911 406 l 911 1014 m 606 1014 q 706 976 668 1014 q 744 875 744 938 q 717 756 744 813 q 642 649 689 699 q 533 558 594 600 q 404 483 472 517 q 267 425 336 450 q 135 386 197 400 q 114 386 124 383 q 101 400 104 389 l 72 492 q 72 513 68 503 q 89 526 76 524 q 266 586 179 549 q 421 667 353 624 q 531 758 489 711 q 572 847 572 806 q 544 875 572 875 l 125 875 q 97 903 97 875 l 97 986 q 125 1014 97 1014 l 606 1014 m 117 -43 q 197 35 158 -10 q 269 131 236 79 q 329 240 303 183 q 371 353 356 296 q 401 371 378 378 l 501 340 q 519 308 525 333 q 467 167 504 240 q 542 80 501 122 q 625 6 583 38 q 740 157 688 67 q 824 351 792 247 q 854 368 831 375 l 954 338 q 971 306 979 331 q 913 158 951 232 q 1024 50 963 100 q 1144 -35 1085 0 q 1157 -71 1171 -51 l 1099 -158 q 1064 -162 1088 -175 q 948 -81 1008 -129 q 835 31 888 -32 q 747 -77 793 -28 q 654 -162 701 -126 q 618 -165 636 -176 q 503 -79 565 -133 q 390 36 442 -25 q 305 -72 350 -22 q 214 -160 260 -122 q 175 -157 193 -176 l 111 -83 q 117 -43 93 -62 z "},"강":{"ha":1250,"x_min":68,"x_max":1229,"o":"m 911 1014 q 939 1042 911 1042 l 1053 1042 q 1081 1014 1081 1042 l 1081 806 l 1201 806 q 1229 778 1229 806 l 1229 683 q 1201 656 1229 656 l 1081 656 l 1081 438 q 1053 410 1081 410 l 939 410 q 911 438 911 410 l 911 1014 m 631 -179 q 269 -103 390 -179 q 147 107 147 -28 q 269 317 147 242 q 631 393 390 393 q 992 317 871 393 q 1114 107 1114 242 q 992 -103 1114 -28 q 631 -179 871 -179 m 631 -42 q 870 -2 793 -42 q 947 107 947 38 q 870 217 947 178 q 631 256 793 256 q 391 217 468 256 q 314 107 314 178 q 391 -2 314 38 q 631 -42 468 -42 m 606 1014 q 706 976 668 1014 q 744 875 744 938 q 717 756 744 813 q 642 649 689 699 q 533 558 594 600 q 404 483 472 517 q 267 425 336 450 q 135 386 197 400 q 114 386 124 383 q 101 400 104 389 l 72 492 q 72 513 68 503 q 89 526 76 524 q 266 586 179 549 q 421 667 353 624 q 531 758 489 711 q 572 847 572 806 q 544 875 572 875 l 125 875 q 97 903 97 875 l 97 986 q 125 1014 97 1014 l 606 1014 z "},"갖":{"ha":1250,"x_min":68,"x_max":1229,"o":"m 911 1014 q 939 1042 911 1042 l 1053 1042 q 1081 1014 1081 1042 l 1081 807 l 1201 807 q 1229 779 1229 807 l 1229 685 q 1201 657 1229 657 l 1081 657 l 1081 440 q 1053 413 1081 413 l 939 413 q 911 440 911 413 l 911 1014 m 1063 350 q 1090 322 1090 350 l 1090 240 q 1063 213 1090 213 l 743 213 q 717 165 732 188 q 683 118 701 142 q 883 28 775 65 q 1101 -25 990 -10 q 1119 -57 1128 -28 l 1094 -144 q 1064 -164 1090 -168 q 819 -102 947 -150 q 582 15 690 -54 q 401 -97 500 -51 q 200 -162 303 -143 q 168 -143 174 -168 l 144 -56 q 164 -24 139 -29 q 288 14 228 -10 q 399 68 347 38 q 492 135 451 99 q 560 213 533 171 l 185 213 q 157 240 157 213 l 157 322 q 185 350 157 350 l 1063 350 m 606 1014 q 706 976 668 1014 q 744 875 744 938 q 717 758 744 814 q 642 653 689 701 q 533 563 594 604 q 404 488 472 521 q 267 431 336 456 q 135 393 197 407 q 114 393 124 390 q 100 407 104 396 l 72 499 q 72 520 68 510 q 89 533 76 531 q 267 592 181 556 q 422 672 354 629 q 531 760 489 715 q 572 847 572 806 q 544 875 572 875 l 125 875 q 97 903 97 875 l 97 986 q 125 1014 97 1014 l 606 1014 z "},"갗":{"ha":1250,"x_min":69,"x_max":1229,"o":"m 911 1014 q 939 1042 911 1042 l 1053 1042 q 1081 1014 1081 1042 l 1081 806 l 1201 806 q 1229 778 1229 806 l 1229 683 q 1201 656 1229 656 l 1081 656 l 1081 440 q 1053 413 1081 413 l 939 413 q 911 440 911 413 l 911 1014 m 1069 340 q 1097 313 1097 340 l 1097 233 q 1069 206 1097 206 l 753 206 q 692 103 731 151 q 891 22 782 53 q 1108 -24 1000 -10 q 1126 -57 1133 -25 l 1104 -144 q 1074 -164 1100 -168 q 953 -142 1015 -157 q 826 -106 890 -128 q 702 -58 763 -85 q 588 1 642 -31 q 407 -103 507 -61 q 199 -162 307 -144 q 165 -143 171 -167 l 146 -56 q 148 -35 143 -40 q 165 -26 153 -29 q 298 10 235 -12 q 414 61 361 32 q 508 127 467 90 q 572 206 549 164 l 183 206 q 156 233 156 206 l 156 313 q 183 340 156 340 l 544 340 l 544 446 q 572 474 544 474 l 681 474 q 708 446 708 474 l 708 340 l 1069 340 m 606 1014 q 706 976 668 1014 q 744 875 744 938 q 717 765 744 817 q 642 667 689 713 q 532 582 594 621 q 401 512 469 543 q 264 458 333 481 q 132 424 194 436 q 111 424 121 421 q 99 438 101 426 l 72 526 q 73 549 69 539 q 90 561 76 558 q 268 616 182 582 q 422 690 354 650 q 531 770 490 729 q 572 847 572 811 q 544 875 572 875 l 125 875 q 97 903 97 875 l 97 986 q 125 1014 97 1014 l 606 1014 z "},"같":{"ha":1250,"x_min":69,"x_max":1229,"o":"m 911 1014 q 939 1042 911 1042 l 1053 1042 q 1081 1014 1081 1042 l 1081 825 l 1201 825 q 1229 797 1229 825 l 1229 703 q 1201 675 1229 675 l 1081 675 l 1081 486 q 1053 458 1081 458 l 939 458 q 911 486 911 458 l 911 1014 m 328 -15 q 356 -43 328 -43 l 1082 -43 q 1110 -71 1110 -43 l 1110 -144 q 1082 -172 1110 -172 l 300 -172 q 199 -134 238 -172 q 161 -33 161 -96 l 161 261 q 199 362 161 324 q 300 400 238 400 l 1061 400 q 1089 372 1089 400 l 1089 299 q 1061 271 1089 271 l 356 271 q 328 243 328 271 l 328 178 l 1042 178 q 1069 150 1069 178 l 1069 81 q 1042 53 1069 53 l 328 53 l 328 -15 m 606 1014 q 706 976 668 1014 q 744 875 744 938 q 717 771 744 821 q 641 677 689 721 q 531 596 593 633 q 401 529 469 558 q 263 478 332 500 q 131 446 193 457 q 110 446 119 443 q 97 460 100 449 l 72 547 q 73 569 69 560 q 90 582 76 579 q 269 634 182 601 q 423 703 356 667 q 531 778 490 740 q 572 847 572 815 q 544 875 572 875 l 125 875 q 97 903 97 875 l 97 986 q 125 1014 97 1014 l 606 1014 z "},"갚":{"ha":1250,"x_min":68,"x_max":1229,"o":"m 911 1014 q 939 1042 911 1042 l 1053 1042 q 1081 1014 1081 1042 l 1081 804 l 1201 804 q 1229 776 1229 804 l 1229 682 q 1201 654 1229 654 l 1081 654 l 1081 446 q 1053 418 1081 418 l 939 418 q 911 446 911 418 l 911 1014 m 1083 357 q 1111 329 1111 357 l 1111 249 q 1083 221 1111 221 l 940 221 l 940 -32 l 1097 -32 q 1125 -60 1125 -32 l 1125 -137 q 1097 -165 1125 -165 l 185 -165 q 157 -137 157 -165 l 157 -60 q 185 -32 157 -32 l 339 -32 l 339 221 l 194 221 q 167 249 167 221 l 167 329 q 194 357 167 357 l 1083 357 m 606 1014 q 706 976 668 1014 q 744 875 744 938 q 717 761 744 815 q 642 660 689 707 q 533 572 594 613 q 403 500 471 532 q 265 445 335 468 q 133 408 196 422 q 113 408 122 406 q 100 422 103 411 l 72 513 q 72 534 68 524 q 89 547 76 544 q 267 605 181 569 q 422 681 354 640 q 531 766 489 722 q 572 847 572 810 q 544 875 572 875 l 125 875 q 97 903 97 875 l 97 986 q 125 1014 97 1014 l 606 1014 m 775 -32 l 775 221 l 504 221 l 504 -32 l 775 -32 z "},"갛":{"ha":1250,"x_min":69,"x_max":1229,"o":"m 911 1014 q 939 1042 911 1042 l 1053 1042 q 1081 1014 1081 1042 l 1081 815 l 1201 815 q 1229 788 1229 815 l 1229 693 q 1201 665 1229 665 l 1081 665 l 1081 475 q 1053 447 1081 447 l 939 447 q 911 475 911 447 l 911 1014 m 629 -185 q 417 -172 503 -185 q 277 -135 331 -160 q 200 -76 224 -111 q 176 3 176 -42 q 200 82 176 47 q 277 141 224 117 q 417 178 331 165 q 629 190 503 190 q 842 178 756 190 q 981 141 928 165 q 1058 82 1035 117 q 1082 3 1082 47 q 1058 -76 1082 -42 q 981 -135 1035 -111 q 842 -172 928 -160 q 629 -185 756 -185 m 629 -57 q 763 -53 710 -57 q 849 -40 817 -49 q 896 -21 882 -32 q 910 3 910 -10 q 896 28 910 17 q 849 47 882 39 q 763 58 817 54 q 629 63 710 63 q 495 58 549 63 q 409 47 442 54 q 363 28 376 39 q 349 3 349 17 q 363 -22 349 -11 q 409 -41 376 -33 q 495 -53 442 -49 q 629 -57 549 -57 m 165 243 q 138 271 138 243 l 138 347 q 165 375 138 375 l 544 375 l 544 444 q 572 472 544 472 l 689 472 q 717 444 717 472 l 717 375 l 1093 375 q 1121 347 1121 375 l 1121 271 q 1093 243 1121 243 l 165 243 m 606 1014 q 706 976 668 1014 q 744 875 744 938 q 717 771 744 821 q 641 677 689 721 q 531 596 593 633 q 401 529 469 558 q 263 478 332 500 q 131 446 193 457 q 110 446 119 443 q 97 460 100 449 l 72 547 q 73 569 69 560 q 90 582 76 579 q 269 634 182 601 q 423 703 356 667 q 531 778 490 740 q 572 847 572 815 q 544 875 572 875 l 125 875 q 97 903 97 875 l 97 986 q 125 1014 97 1014 l 606 1014 z "},"개":{"ha":1250,"x_min":81,"x_max":1139,"o":"m 694 1008 q 722 1036 694 1036 l 828 1036 q 856 1008 856 1036 l 856 576 l 975 576 l 975 1014 q 1003 1042 975 1042 l 1111 1042 q 1139 1014 1139 1042 l 1139 -139 q 1111 -167 1139 -167 l 1003 -167 q 975 -139 975 -167 l 975 433 l 856 433 l 856 -125 q 828 -153 856 -153 l 722 -153 q 694 -125 694 -153 l 694 1008 m 469 1004 q 570 966 532 1004 q 608 865 608 928 q 572 513 608 669 q 478 236 536 357 q 348 28 421 115 q 201 -117 275 -58 q 178 -124 190 -126 q 160 -111 167 -122 l 96 -19 q 110 25 81 4 q 240 151 178 75 q 348 328 301 226 q 422 556 394 429 q 450 833 450 682 q 422 861 450 861 l 133 861 q 106 889 106 861 l 106 976 q 133 1004 106 1004 l 469 1004 z "},"객":{"ha":1250,"x_min":85,"x_max":1139,"o":"m 478 1006 q 578 967 540 1006 q 617 867 617 929 q 583 696 617 774 q 490 553 549 618 q 354 435 432 489 q 189 339 276 382 q 146 351 161 325 l 100 435 q 117 476 85 461 q 262 559 197 514 q 370 652 326 604 q 438 748 414 700 q 461 840 461 796 q 433 868 461 868 l 140 868 q 113 896 113 868 l 113 978 q 140 1006 113 1006 l 478 1006 m 1139 -139 q 1111 -167 1139 -167 l 994 -167 q 967 -139 967 -167 l 967 131 q 939 158 967 158 l 215 158 q 188 186 188 158 l 188 271 q 215 299 188 299 l 1000 299 q 1101 260 1063 299 q 1139 160 1139 222 l 1139 -139 m 704 1008 q 732 1036 704 1036 l 835 1036 q 863 1008 863 1036 l 863 774 l 978 774 l 978 1014 q 1006 1042 978 1042 l 1111 1042 q 1139 1014 1139 1042 l 1139 383 q 1111 356 1139 356 l 1006 356 q 978 383 978 356 l 978 633 l 863 633 l 863 390 q 835 363 863 363 l 732 363 q 704 390 704 363 l 704 1008 z "},"갠":{"ha":1250,"x_min":85,"x_max":1167,"o":"m 347 -167 q 247 -128 285 -167 q 208 -28 208 -90 l 208 258 q 236 286 208 286 l 353 286 q 381 258 381 286 l 381 1 q 408 -26 381 -26 l 1139 -26 q 1167 -54 1167 -26 l 1167 -139 q 1139 -167 1167 -167 l 347 -167 m 732 171 q 704 199 704 171 l 704 1008 q 732 1036 704 1036 l 835 1036 q 863 1008 863 1036 l 863 714 l 978 714 l 978 1014 q 1006 1042 978 1042 l 1111 1042 q 1139 1014 1139 1042 l 1139 176 q 1111 149 1139 149 l 1006 149 q 978 176 978 149 l 978 574 l 863 574 l 863 199 q 835 171 863 171 l 732 171 m 478 1006 q 578 967 540 1006 q 617 867 617 929 q 583 692 617 771 q 492 546 550 613 q 356 425 433 479 q 190 326 278 371 q 147 339 163 313 l 100 422 q 117 464 85 449 q 262 549 197 503 q 370 645 326 596 q 438 744 414 694 q 461 839 461 794 q 433 867 461 867 l 140 867 q 113 894 113 867 l 113 978 q 140 1006 113 1006 l 478 1006 z "},"갤":{"ha":1250,"x_min":89,"x_max":1153,"o":"m 333 -172 q 233 -134 271 -172 q 194 -33 194 -96 l 194 46 q 233 147 194 108 q 333 185 271 185 l 942 185 q 969 213 969 185 l 969 251 q 942 279 969 279 l 222 279 q 194 307 194 279 l 194 383 q 222 411 194 411 l 1000 411 q 1101 373 1063 411 q 1139 272 1139 335 l 1139 196 q 1101 95 1139 133 q 1000 57 1063 57 l 392 57 q 364 29 364 57 l 364 -10 q 392 -37 364 -37 l 1125 -37 q 1153 -65 1153 -37 l 1153 -144 q 1125 -172 1153 -172 l 333 -172 m 732 472 q 704 500 704 472 l 704 1008 q 732 1036 704 1036 l 835 1036 q 863 1008 863 1036 l 863 832 l 978 832 l 978 1014 q 1006 1042 978 1042 l 1111 1042 q 1139 1014 1139 1042 l 1139 496 q 1111 468 1139 468 l 1006 468 q 978 496 978 468 l 978 692 l 863 692 l 863 500 q 835 472 863 472 l 732 472 m 478 1010 q 578 972 540 1010 q 617 871 617 933 q 581 730 617 793 q 486 616 546 667 q 346 524 426 565 q 176 450 265 483 q 138 463 149 438 l 100 550 q 119 589 89 579 q 264 648 200 615 q 372 715 328 681 q 440 783 417 749 q 464 846 464 817 q 436 874 464 874 l 140 874 q 113 901 113 874 l 113 982 q 140 1010 113 1010 l 478 1010 z "},"갬":{"ha":1250,"x_min":85,"x_max":1139,"o":"m 478 1007 q 578 969 540 1007 q 617 868 617 931 q 583 701 617 776 q 490 564 549 626 q 353 451 432 501 q 186 358 275 400 q 144 371 160 344 l 100 456 q 117 496 85 483 q 262 575 197 532 q 370 663 326 618 q 438 754 414 708 q 461 840 461 800 q 433 868 461 868 l 140 868 q 113 896 113 868 l 113 979 q 140 1007 113 1007 l 478 1007 m 704 1008 q 732 1036 704 1036 l 835 1036 q 863 1008 863 1036 l 863 796 l 978 796 l 978 1014 q 1006 1042 978 1042 l 1111 1042 q 1139 1014 1139 1042 l 1139 431 q 1111 403 1139 403 l 1006 403 q 978 431 978 403 l 978 656 l 863 656 l 863 439 q 835 411 863 411 l 732 411 q 704 439 704 411 l 704 1008 m 381 214 q 353 186 353 214 l 353 -6 q 381 -33 353 -33 l 939 -33 q 967 -6 967 -33 l 967 186 q 939 214 967 214 l 381 214 m 181 208 q 219 309 181 271 q 319 347 257 347 l 1000 347 q 1101 309 1063 347 q 1139 208 1139 271 l 1139 -28 q 1101 -128 1139 -90 q 1000 -167 1063 -167 l 319 -167 q 219 -128 257 -167 q 181 -28 181 -90 l 181 208 z "},"갭":{"ha":1250,"x_min":88,"x_max":1139,"o":"m 478 1007 q 578 969 540 1007 q 617 868 617 931 q 583 708 617 781 q 490 575 549 635 q 352 467 431 515 q 185 378 274 418 q 161 376 172 372 q 143 392 150 379 l 100 476 q 118 517 88 504 q 263 591 199 550 q 371 675 326 632 q 439 761 415 718 q 463 842 463 804 q 435 869 463 869 l 140 869 q 113 897 113 869 l 113 979 q 140 1007 113 1007 l 478 1007 m 704 1008 q 732 1036 704 1036 l 835 1036 q 863 1008 863 1036 l 863 803 l 978 803 l 978 1014 q 1006 1042 978 1042 l 1111 1042 q 1139 1014 1139 1042 l 1139 426 q 1111 399 1139 399 l 1006 399 q 978 426 978 399 l 978 663 l 863 663 l 863 435 q 835 407 863 407 l 732 407 q 704 435 704 407 l 704 1008 m 319 -167 q 219 -128 257 -167 q 181 -28 181 -90 l 181 318 q 208 346 181 346 l 322 346 q 350 318 350 346 l 350 219 l 969 219 l 969 318 q 997 346 969 346 l 1111 346 q 1139 318 1139 346 l 1139 -28 q 1101 -128 1139 -90 q 1000 -167 1063 -167 l 319 -167 m 350 -7 q 378 -35 350 -35 l 942 -35 q 969 -7 969 -35 l 969 89 l 350 89 l 350 -7 z "},"갯":{"ha":1250,"x_min":85,"x_max":1168,"o":"m 478 1006 q 578 967 540 1006 q 617 867 617 929 q 583 688 617 768 q 492 540 550 607 q 356 420 433 474 q 190 322 278 367 q 147 335 163 308 l 100 418 q 117 460 85 444 q 262 544 197 499 q 370 640 326 590 q 438 741 414 690 q 461 839 461 792 q 433 867 461 867 l 140 867 q 113 894 113 867 l 113 978 q 140 1006 113 1006 l 478 1006 m 235 -172 q 200 -156 208 -181 l 165 -62 q 163 -42 161 -51 q 178 -28 165 -32 q 320 34 250 -3 q 451 120 390 71 q 557 231 511 169 q 628 364 603 292 q 642 381 632 375 q 663 382 651 386 l 763 342 q 778 310 785 333 q 756 255 769 282 q 728 200 743 228 q 826 129 774 163 q 932 67 878 96 q 1040 15 986 38 q 1142 -25 1093 -8 q 1158 -60 1168 -35 l 1119 -158 q 1085 -171 1111 -179 q 979 -128 1036 -154 q 863 -69 922 -101 q 746 3 804 -36 q 636 83 688 42 q 543 -2 593 38 q 441 -74 493 -42 q 336 -132 389 -107 q 235 -172 283 -157 m 732 418 q 704 446 704 418 l 704 1008 q 732 1036 704 1036 l 835 1036 q 863 1008 863 1036 l 863 804 l 978 804 l 978 1014 q 1006 1042 978 1042 l 1111 1042 q 1139 1014 1139 1042 l 1139 335 q 1111 307 1139 307 l 1006 307 q 978 335 978 307 l 978 664 l 863 664 l 863 446 q 835 418 863 418 l 732 418 z "},"갰":{"ha":1250,"x_min":85,"x_max":1185,"o":"m 478 1006 q 578 967 540 1006 q 617 867 617 929 q 583 697 617 774 q 490 556 549 619 q 354 440 432 492 q 189 344 276 388 q 146 357 161 332 l 100 440 q 117 482 85 467 q 262 564 197 519 q 370 656 326 608 q 438 750 414 703 q 461 840 461 797 q 433 868 461 868 l 140 868 q 113 896 113 868 l 113 978 q 140 1006 113 1006 l 478 1006 m 704 1008 q 732 1036 704 1036 l 835 1036 q 863 1008 863 1036 l 863 804 l 978 804 l 978 1014 q 1006 1042 978 1042 l 1111 1042 q 1139 1014 1139 1042 l 1139 415 q 1111 388 1139 388 l 1006 388 q 978 415 978 388 l 978 664 l 863 664 l 863 433 q 835 406 863 406 l 732 406 q 704 433 704 406 l 704 1008 m 131 -40 q 211 31 172 -10 q 283 121 250 72 q 343 223 317 169 q 385 331 369 276 q 415 349 392 356 l 515 318 q 533 286 539 311 q 513 221 526 254 q 482 153 500 188 q 556 71 514 111 q 639 0 597 31 q 753 143 701 57 q 838 329 806 229 q 868 346 846 353 l 968 315 q 985 283 993 308 q 961 216 975 250 q 929 147 947 182 q 1040 44 979 92 q 1158 -32 1100 -3 q 1171 -68 1185 -46 l 1118 -158 q 1083 -162 1108 -176 q 965 -85 1028 -132 q 850 21 903 -37 q 762 -83 808 -36 q 668 -162 715 -131 q 632 -165 650 -176 q 518 -83 579 -135 q 404 28 457 -32 q 318 -76 364 -28 q 225 -160 272 -124 q 186 -157 201 -179 l 125 -81 q 118 -60 117 -71 q 131 -40 119 -49 z "},"갱":{"ha":1250,"x_min":85,"x_max":1151,"o":"m 478 1007 q 578 969 540 1007 q 617 868 617 931 q 583 700 617 776 q 490 560 549 624 q 354 446 432 497 q 188 353 276 394 q 146 365 160 339 l 100 449 q 117 490 85 475 q 262 570 197 526 q 370 660 326 614 q 438 752 414 706 q 461 840 461 799 q 433 868 461 868 l 140 868 q 113 896 113 868 l 113 979 q 140 1007 113 1007 l 478 1007 m 704 1008 q 732 1036 704 1036 l 835 1036 q 863 1008 863 1036 l 863 806 l 978 806 l 978 1014 q 1006 1042 978 1042 l 1111 1042 q 1139 1014 1139 1042 l 1139 428 q 1111 400 1139 400 l 1006 400 q 978 428 978 400 l 978 665 l 863 665 l 863 456 q 835 428 863 428 l 732 428 q 704 456 704 428 l 704 1008 m 660 -179 q 292 -108 417 -179 q 168 97 168 -37 q 292 303 168 232 q 660 374 417 374 q 1027 303 903 374 q 1151 97 1151 232 q 1027 -108 1151 -37 q 660 -179 903 -179 m 660 -43 q 905 -7 825 -43 q 985 97 985 29 q 905 201 985 165 q 660 238 825 238 q 415 201 494 238 q 335 97 335 165 q 415 -7 335 29 q 660 -43 494 -43 z "},"갸":{"ha":1250,"x_min":82,"x_max":1229,"o":"m 911 1014 q 939 1042 911 1042 l 1053 1042 q 1081 1014 1081 1042 l 1081 788 l 1201 788 q 1229 760 1229 788 l 1229 665 q 1201 638 1229 638 l 1081 638 l 1081 371 l 1201 371 q 1229 343 1229 371 l 1229 249 q 1201 221 1229 221 l 1081 221 l 1081 -139 q 1053 -167 1081 -167 l 939 -167 q 911 -139 911 -167 l 911 1014 m 600 1003 q 701 965 663 1003 q 739 864 739 926 q 692 533 739 682 q 568 266 644 385 q 394 58 492 147 q 197 -92 297 -31 q 156 -85 169 -108 l 97 10 q 113 53 82 36 q 281 173 199 99 q 426 347 363 247 q 528 567 489 446 q 567 831 567 689 q 539 858 567 858 l 135 858 q 107 886 107 858 l 107 975 q 135 1003 107 1003 l 600 1003 z "},"갹":{"ha":1250,"x_min":68,"x_max":1229,"o":"m 911 1014 q 939 1042 911 1042 l 1047 1042 q 1075 1014 1075 1042 l 1075 907 l 1201 907 q 1229 879 1229 907 l 1229 793 q 1201 765 1229 765 l 1075 765 l 1075 653 l 1201 653 q 1229 625 1229 653 l 1229 539 q 1201 511 1229 511 l 1075 511 l 1075 394 q 1047 367 1075 367 l 939 367 q 911 394 911 367 l 911 1014 m 939 -167 q 911 -139 911 -167 l 911 142 q 883 169 911 169 l 174 169 q 146 197 146 169 l 146 283 q 174 311 146 311 l 944 311 q 1045 273 1007 311 q 1083 172 1083 235 l 1083 -139 q 1056 -167 1083 -167 l 939 -167 m 606 1014 q 706 976 668 1014 q 744 875 744 938 q 717 750 744 810 q 642 639 689 690 q 534 544 596 588 q 405 465 472 500 q 268 405 338 431 q 136 364 199 379 q 101 378 110 357 l 71 471 q 72 493 68 482 q 89 507 76 504 q 266 569 179 531 q 421 654 353 608 q 531 750 489 700 q 572 846 572 800 q 544 874 572 874 l 125 874 q 97 901 97 874 l 97 986 q 125 1014 97 1014 l 606 1014 z "},"갼":{"ha":1250,"x_min":67,"x_max":1229,"o":"m 911 1014 q 939 1042 911 1042 l 1050 1042 q 1078 1014 1078 1042 l 1078 872 l 1201 872 q 1229 844 1229 872 l 1229 757 q 1201 729 1229 729 l 1078 729 l 1078 572 l 1201 572 q 1229 544 1229 572 l 1229 456 q 1201 428 1229 428 l 1078 428 l 1078 211 q 1050 183 1078 183 l 939 183 q 911 211 911 183 l 911 1014 m 153 246 q 181 274 153 274 l 297 274 q 325 246 325 274 l 325 1 q 353 -26 325 -26 l 1083 -26 q 1111 -54 1111 -26 l 1111 -139 q 1083 -167 1111 -167 l 292 -167 q 191 -128 229 -167 q 153 -28 153 -90 l 153 246 m 606 1014 q 706 976 668 1014 q 744 875 744 938 q 717 741 744 804 q 643 622 689 678 q 535 520 597 567 q 407 436 474 474 q 271 371 340 399 q 139 326 201 343 q 118 326 128 324 q 104 340 108 329 l 71 436 q 72 458 67 447 q 88 472 76 469 q 265 540 178 497 q 420 632 351 582 q 531 738 489 682 q 572 846 572 793 q 544 874 572 874 l 125 874 q 97 901 97 874 l 97 986 q 125 1014 97 1014 l 606 1014 z "},"걀":{"ha":1250,"x_min":69,"x_max":1229,"o":"m 911 1014 q 939 1042 911 1042 l 1047 1042 q 1075 1014 1075 1042 l 1075 931 l 1201 931 q 1229 903 1229 931 l 1229 818 q 1201 790 1229 790 l 1075 790 l 1075 710 l 1201 710 q 1229 682 1229 710 l 1229 597 q 1201 569 1229 569 l 1075 569 l 1075 481 q 1047 453 1075 453 l 939 453 q 911 481 911 453 l 911 1014 m 356 53 q 328 25 328 53 l 328 -11 q 356 -39 328 -39 l 1078 -39 q 1106 -67 1106 -39 l 1106 -144 q 1078 -172 1106 -172 l 297 -172 q 197 -134 235 -172 q 158 -33 158 -96 l 158 42 q 197 142 158 104 q 297 181 235 181 l 893 181 q 921 208 921 181 l 921 243 q 893 271 921 271 l 186 271 q 158 299 158 271 l 158 372 q 186 400 158 400 l 951 400 q 1052 362 1014 400 q 1090 261 1090 324 l 1090 192 q 1052 91 1090 129 q 951 53 1014 53 l 356 53 m 606 1014 q 706 976 668 1014 q 744 875 744 938 q 717 769 744 819 q 641 674 689 718 q 531 592 593 629 q 401 524 469 554 q 263 473 332 494 q 131 439 193 451 q 110 439 119 436 q 97 453 100 442 l 72 540 q 73 563 69 553 q 90 575 76 572 q 269 628 182 596 q 423 699 356 661 q 531 775 490 736 q 572 847 572 814 q 544 875 572 875 l 125 875 q 97 903 97 875 l 97 986 q 125 1014 97 1014 l 606 1014 z "},"걋":{"ha":1250,"x_min":68,"x_max":1229,"o":"m 606 1014 q 706 976 668 1014 q 744 875 744 938 q 717 748 744 808 q 642 635 689 688 q 534 539 596 583 q 405 459 472 494 q 268 398 338 424 q 136 357 199 372 q 103 371 110 350 l 71 464 q 72 486 68 475 q 89 500 76 497 q 266 563 179 524 q 421 649 353 603 q 531 747 489 696 q 572 846 572 799 q 544 874 572 874 l 125 874 q 97 901 97 874 l 97 986 q 125 1014 97 1014 l 606 1014 m 911 1014 q 939 1042 911 1042 l 1049 1042 q 1076 1014 1076 1042 l 1076 892 l 1201 892 q 1229 864 1229 892 l 1229 776 q 1201 749 1229 749 l 1076 749 l 1076 618 l 1201 618 q 1229 590 1229 618 l 1229 503 q 1201 475 1229 475 l 1076 475 l 1076 258 q 1049 231 1076 231 l 939 231 q 911 258 911 231 l 911 1014 m 164 -32 q 306 33 238 -8 q 432 127 375 74 q 532 244 489 181 q 597 376 575 307 q 629 394 607 401 l 735 364 q 751 349 747 360 q 753 328 756 339 q 731 265 744 296 q 701 204 718 235 q 797 128 746 164 q 901 63 847 93 q 1008 8 954 32 q 1113 -32 1063 -15 q 1131 -44 1128 -36 q 1129 -64 1133 -53 l 1094 -161 q 1081 -174 1092 -172 q 1058 -174 1071 -176 q 951 -131 1008 -157 q 833 -72 893 -106 q 717 1 774 -39 q 613 83 660 40 q 427 -75 532 -7 q 214 -175 322 -143 q 181 -158 188 -181 l 149 -67 q 164 -32 140 -40 z "},"걍":{"ha":1250,"x_min":68,"x_max":1229,"o":"m 911 1014 q 939 1042 911 1042 l 1047 1042 q 1075 1014 1075 1042 l 1075 914 l 1201 914 q 1229 886 1229 914 l 1229 801 q 1201 774 1229 774 l 1075 774 l 1075 671 l 1201 671 q 1229 643 1229 671 l 1229 557 q 1201 529 1229 529 l 1075 529 l 1075 438 q 1047 410 1075 410 l 939 410 q 911 438 911 410 l 911 1014 m 632 -179 q 270 -103 392 -179 q 149 107 149 -28 q 270 317 149 242 q 632 393 392 393 q 994 317 872 393 q 1115 107 1115 242 q 994 -103 1115 -28 q 632 -179 872 -179 m 632 -42 q 872 -2 794 -42 q 949 107 949 38 q 872 217 949 178 q 632 256 794 256 q 392 217 469 256 q 315 107 315 178 q 392 -2 315 38 q 632 -42 469 -42 m 606 1014 q 706 976 668 1014 q 744 875 744 938 q 717 756 744 813 q 642 649 689 699 q 533 558 594 600 q 404 483 472 517 q 267 425 336 450 q 135 386 197 400 q 114 386 124 383 q 101 400 104 389 l 72 492 q 72 513 68 503 q 89 526 76 524 q 266 586 179 549 q 421 667 353 624 q 531 758 489 711 q 572 847 572 806 q 544 875 572 875 l 125 875 q 97 903 97 875 l 97 986 q 125 1014 97 1014 l 606 1014 z "},"걔":{"ha":1250,"x_min":81,"x_max":1132,"o":"m 697 1008 q 725 1036 697 1036 l 829 1036 q 857 1008 857 1036 l 857 757 l 969 757 l 969 1014 q 997 1042 969 1042 l 1104 1042 q 1132 1014 1132 1042 l 1132 -139 q 1104 -167 1132 -167 l 997 -167 q 969 -139 969 -167 l 969 188 l 857 188 l 857 -125 q 829 -153 857 -153 l 725 -153 q 697 -125 697 -153 l 697 1008 m 469 1004 q 570 966 532 1004 q 608 865 608 928 q 572 513 608 669 q 478 236 536 357 q 348 28 421 115 q 201 -117 275 -58 q 178 -124 190 -126 q 160 -111 167 -122 l 96 -19 q 110 25 81 4 q 240 151 178 75 q 348 328 301 226 q 422 556 394 429 q 450 833 450 682 q 422 861 450 861 l 133 861 q 106 889 106 861 l 106 976 q 133 1004 106 1004 l 469 1004 m 969 329 l 969 615 l 857 615 l 857 329 l 969 329 z "},"걘":{"ha":1250,"x_min":85,"x_max":1167,"o":"m 347 -167 q 247 -128 285 -167 q 208 -28 208 -90 l 208 258 q 236 286 208 286 l 353 286 q 381 258 381 286 l 381 1 q 408 -26 381 -26 l 1139 -26 q 1167 -54 1167 -26 l 1167 -139 q 1139 -167 1167 -167 l 347 -167 m 733 171 q 706 199 706 171 l 706 1008 q 733 1036 706 1036 l 836 1036 q 864 1008 864 1036 l 864 849 l 978 849 l 978 1014 q 1006 1042 978 1042 l 1111 1042 q 1139 1014 1139 1042 l 1139 176 q 1111 149 1139 149 l 1006 149 q 978 176 978 149 l 978 424 l 864 424 l 864 199 q 836 171 864 171 l 733 171 m 478 1006 q 578 967 540 1006 q 617 867 617 929 q 583 692 617 771 q 492 546 550 613 q 356 425 433 479 q 190 326 278 371 q 147 339 163 313 l 100 422 q 117 464 85 449 q 262 549 197 503 q 370 645 326 596 q 438 744 414 694 q 461 839 461 794 q 433 867 461 867 l 140 867 q 113 894 113 867 l 113 978 q 140 1006 113 1006 l 478 1006 m 978 563 l 978 710 l 864 710 l 864 563 l 978 563 z "},"걜":{"ha":1250,"x_min":89,"x_max":1153,"o":"m 333 -172 q 233 -134 271 -172 q 194 -33 194 -96 l 194 46 q 233 147 194 108 q 333 185 271 185 l 942 185 q 969 213 969 185 l 969 251 q 942 279 969 279 l 222 279 q 194 307 194 279 l 194 383 q 222 411 194 411 l 1000 411 q 1101 373 1063 411 q 1139 272 1139 335 l 1139 196 q 1101 95 1139 133 q 1000 57 1063 57 l 392 57 q 364 29 364 57 l 364 -10 q 392 -37 364 -37 l 1125 -37 q 1153 -65 1153 -37 l 1153 -144 q 1125 -172 1153 -172 l 333 -172 m 732 472 q 704 500 704 472 l 704 1008 q 732 1036 704 1036 l 835 1036 q 863 1008 863 1036 l 863 936 l 978 936 l 978 1014 q 1006 1042 978 1042 l 1111 1042 q 1139 1014 1139 1042 l 1139 496 q 1111 468 1139 468 l 1006 468 q 978 496 978 468 l 978 572 l 863 572 l 863 500 q 835 472 863 472 l 732 472 m 478 1010 q 578 972 540 1010 q 617 871 617 933 q 581 730 617 793 q 486 616 546 667 q 346 524 426 565 q 176 450 265 483 q 138 463 149 438 l 100 550 q 119 589 89 579 q 264 648 200 615 q 372 715 328 681 q 440 783 417 749 q 464 846 464 817 q 436 874 464 874 l 140 874 q 113 901 113 874 l 113 982 q 140 1010 113 1010 l 478 1010 m 978 700 l 978 808 l 863 808 l 863 700 l 978 700 z "},"거":{"ha":1250,"x_min":89,"x_max":1111,"o":"m 939 1014 q 967 1042 939 1042 l 1083 1042 q 1111 1014 1111 1042 l 1111 -139 q 1083 -167 1111 -167 l 967 -167 q 939 -139 939 -167 l 939 439 l 754 439 q 726 467 726 439 l 726 556 q 754 583 726 583 l 939 583 l 939 1014 m 578 1003 q 678 965 640 1003 q 717 864 717 926 q 672 533 717 682 q 556 265 628 383 q 391 57 483 146 q 204 -92 299 -32 q 163 -85 176 -108 l 104 10 q 119 53 89 36 q 276 172 200 97 q 413 345 353 246 q 508 567 472 444 q 544 831 544 689 q 517 858 544 858 l 142 858 q 114 886 114 858 l 114 975 q 142 1003 114 1003 l 578 1003 z "},"걱":{"ha":1250,"x_min":76,"x_max":1111,"o":"m 592 1014 q 692 976 654 1014 q 731 875 731 938 q 705 751 731 810 q 635 642 679 693 q 533 549 592 592 q 410 471 475 506 q 276 411 344 436 q 144 371 208 386 q 124 371 133 368 q 110 385 114 374 l 79 478 q 81 500 76 489 q 97 514 85 511 q 273 576 189 538 q 420 659 357 614 q 521 753 483 704 q 558 846 558 801 q 531 874 558 874 l 133 874 q 106 901 106 874 l 106 986 q 133 1014 106 1014 l 592 1014 m 939 1014 q 967 1042 939 1042 l 1083 1042 q 1111 1014 1111 1042 l 1111 394 q 1083 367 1111 367 l 967 367 q 939 394 939 367 l 939 604 l 757 604 q 729 632 729 604 l 729 718 q 757 746 729 746 l 939 746 l 939 1014 m 967 -167 q 939 -139 939 -167 l 939 142 q 911 169 939 169 l 201 169 q 174 197 174 169 l 174 283 q 201 311 174 311 l 972 311 q 1073 273 1035 311 q 1111 172 1111 235 l 1111 -139 q 1083 -167 1111 -167 l 967 -167 z "},"건":{"ha":1250,"x_min":75,"x_max":1139,"o":"m 939 1014 q 967 1042 939 1042 l 1083 1042 q 1111 1014 1111 1042 l 1111 213 q 1083 185 1111 185 l 967 185 q 939 213 939 185 l 939 585 l 757 585 q 729 613 729 585 l 729 700 q 757 728 729 728 l 939 728 l 939 1014 m 181 246 q 208 274 181 274 l 325 274 q 353 246 353 274 l 353 1 q 381 -26 353 -26 l 1111 -26 q 1139 -54 1139 -26 l 1139 -139 q 1111 -167 1139 -167 l 319 -167 q 219 -128 257 -167 q 181 -28 181 -90 l 181 246 m 592 1014 q 692 976 654 1014 q 731 875 731 938 q 675 679 731 768 q 534 520 619 590 q 345 401 449 450 q 147 326 242 351 q 126 326 136 324 q 113 340 117 329 l 79 436 q 80 458 75 447 q 96 472 85 469 q 272 540 188 497 q 419 632 356 582 q 520 738 482 682 q 558 846 558 793 q 531 874 558 874 l 133 874 q 106 901 106 874 l 106 986 q 133 1014 106 1014 l 592 1014 z "},"걷":{"ha":1250,"x_min":76,"x_max":1125,"o":"m 592 1014 q 692 976 654 1014 q 731 875 731 938 q 705 751 731 810 q 635 642 679 693 q 533 549 592 592 q 410 471 475 506 q 276 411 344 436 q 144 371 208 386 q 124 371 133 368 q 110 385 114 374 l 79 478 q 81 500 76 489 q 97 514 85 511 q 273 576 189 538 q 420 659 357 614 q 521 753 483 704 q 558 846 558 801 q 531 874 558 874 l 133 874 q 106 901 106 874 l 106 986 q 133 1014 106 1014 l 592 1014 m 939 1014 q 967 1042 939 1042 l 1083 1042 q 1111 1014 1111 1042 l 1111 433 q 1083 406 1111 406 l 967 406 q 939 433 939 406 l 939 604 l 757 604 q 729 632 729 604 l 729 718 q 757 746 729 746 l 939 746 l 939 1014 m 1076 344 q 1104 317 1104 344 l 1104 238 q 1076 210 1104 210 l 381 210 q 353 182 353 210 l 353 -3 q 381 -31 353 -31 l 1097 -31 q 1125 -58 1125 -31 l 1125 -139 q 1097 -167 1125 -167 l 319 -167 q 219 -128 257 -167 q 181 -28 181 -90 l 181 206 q 219 306 181 268 q 319 344 257 344 l 1076 344 z "},"걸":{"ha":1250,"x_min":76,"x_max":1126,"o":"m 939 1014 q 967 1042 939 1042 l 1083 1042 q 1111 1014 1111 1042 l 1111 481 q 1083 453 1111 453 l 967 453 q 939 481 939 453 l 939 638 l 756 638 q 728 665 728 638 l 728 750 q 756 778 728 778 l 939 778 l 939 1014 m 376 53 q 349 25 349 53 l 349 -11 q 376 -39 349 -39 l 1099 -39 q 1126 -67 1126 -39 l 1126 -144 q 1099 -172 1126 -172 l 318 -172 q 217 -134 256 -172 q 179 -33 179 -96 l 179 42 q 217 142 179 104 q 318 181 256 181 l 914 181 q 942 208 942 181 l 942 243 q 914 271 942 271 l 207 271 q 179 299 179 271 l 179 372 q 207 400 179 400 l 972 400 q 1073 362 1035 400 q 1111 261 1111 324 l 1111 192 q 1073 91 1111 129 q 972 53 1035 53 l 376 53 m 590 1014 q 691 976 653 1014 q 729 875 729 938 q 703 769 729 819 q 633 674 678 718 q 530 592 589 629 q 405 524 471 554 q 270 473 339 494 q 138 439 201 451 q 117 439 126 436 q 104 453 107 442 l 79 540 q 80 563 76 553 q 97 575 83 572 q 275 628 192 596 q 421 699 358 661 q 520 775 483 736 q 557 847 557 814 q 529 875 557 875 l 132 875 q 104 903 104 875 l 104 986 q 132 1014 104 1014 l 590 1014 z "},"걺":{"ha":1250,"x_min":76,"x_max":1131,"o":"m 940 1014 q 968 1042 940 1042 l 1083 1042 q 1111 1014 1111 1042 l 1111 481 q 1083 453 1111 453 l 968 453 q 940 481 940 453 l 940 642 l 756 642 q 728 669 728 642 l 728 754 q 756 782 728 782 l 940 782 l 940 1014 m 344 54 q 321 31 321 54 l 321 -22 q 344 -46 321 -46 l 594 -46 q 622 -74 622 -46 l 622 -144 q 594 -172 622 -172 l 308 -172 q 208 -134 246 -172 q 169 -33 169 -96 l 169 33 q 208 134 169 96 q 308 172 246 172 l 450 172 q 474 196 474 172 l 474 251 q 450 275 474 275 l 207 275 q 179 303 179 275 l 179 372 q 207 400 179 400 l 481 400 q 581 362 543 400 q 619 261 619 324 l 619 193 q 581 92 619 131 q 481 54 543 54 l 344 54 m 846 271 q 821 246 821 271 l 821 -18 q 846 -43 821 -43 l 954 -43 q 979 -18 979 -43 l 979 246 q 954 271 979 271 l 846 271 m 671 261 q 709 362 671 324 q 810 400 747 400 l 992 400 q 1092 362 1054 400 q 1131 261 1131 324 l 1131 -33 q 1092 -134 1131 -96 q 992 -172 1054 -172 l 810 -172 q 709 -134 747 -172 q 671 -33 671 -96 l 671 261 m 590 1014 q 691 976 653 1014 q 729 875 729 938 q 673 722 729 793 q 530 596 617 651 q 338 502 443 540 q 138 446 233 464 q 117 446 126 443 q 104 460 107 449 l 79 547 q 80 569 76 560 q 97 582 83 579 q 275 634 192 601 q 421 703 358 667 q 520 778 483 740 q 557 847 557 815 q 529 875 557 875 l 132 875 q 104 903 104 875 l 104 986 q 132 1014 104 1014 l 590 1014 z "},"검":{"ha":1250,"x_min":75,"x_max":1114,"o":"m 590 1014 q 691 976 653 1014 q 729 875 729 938 q 703 759 729 814 q 633 656 678 704 q 531 567 589 608 q 407 494 472 526 q 273 439 342 463 q 140 401 204 415 q 107 415 114 394 l 79 506 q 79 527 75 517 q 96 540 83 538 q 273 599 189 563 q 420 676 357 635 q 520 763 483 718 q 557 847 557 807 q 529 875 557 875 l 132 875 q 104 903 104 875 l 104 986 q 132 1014 104 1014 l 590 1014 m 939 1014 q 967 1042 939 1042 l 1083 1042 q 1111 1014 1111 1042 l 1111 449 q 1083 421 1111 421 l 967 421 q 939 449 939 421 l 939 619 l 756 619 q 728 647 728 619 l 728 732 q 756 760 728 760 l 939 760 l 939 1014 m 367 226 q 339 199 339 226 l 339 -6 q 367 -33 339 -33 l 914 -33 q 942 -6 942 -33 l 942 199 q 914 226 942 226 l 367 226 m 167 221 q 205 322 167 283 q 306 360 243 360 l 975 360 q 1076 322 1038 360 q 1114 221 1114 283 l 1114 -28 q 1076 -128 1114 -90 q 975 -167 1038 -167 l 306 -167 q 205 -128 243 -167 q 167 -28 167 -90 l 167 221 z "},"겁":{"ha":1250,"x_min":76,"x_max":1111,"o":"m 590 1014 q 691 976 653 1014 q 729 875 729 938 q 703 763 729 817 q 633 663 678 710 q 531 577 589 617 q 406 506 472 538 q 272 452 340 475 q 139 417 203 429 q 106 431 113 410 l 79 519 q 80 542 76 532 q 97 554 83 551 q 274 610 190 575 q 420 685 357 644 q 520 767 483 725 q 557 847 557 810 q 529 875 557 875 l 132 875 q 104 903 104 875 l 104 986 q 132 1014 104 1014 l 590 1014 m 940 1014 q 968 1042 940 1042 l 1083 1042 q 1111 1014 1111 1042 l 1111 446 q 1083 418 1111 418 l 968 418 q 940 446 940 418 l 940 626 l 756 626 q 728 654 728 626 l 728 739 q 756 767 728 767 l 940 767 l 940 1014 m 315 -167 q 215 -128 253 -167 q 176 -28 176 -90 l 176 338 q 204 365 176 365 l 321 365 q 349 338 349 365 l 349 229 l 940 229 l 940 338 q 968 365 940 365 l 1083 365 q 1111 338 1111 365 l 1111 -28 q 1073 -128 1111 -90 q 972 -167 1035 -167 l 315 -167 m 349 -7 q 376 -35 349 -35 l 913 -35 q 940 -7 940 -35 l 940 101 l 349 101 l 349 -7 z "},"것":{"ha":1250,"x_min":75,"x_max":1147,"o":"m 590 1015 q 691 978 653 1015 q 729 878 729 940 q 674 678 729 769 q 534 517 619 588 q 346 396 449 446 q 149 319 243 346 q 131 313 138 317 q 119 319 124 308 l 79 429 q 80 451 75 440 q 96 465 85 463 q 271 535 188 492 q 417 629 354 578 q 519 737 481 681 q 557 847 557 793 q 529 875 557 875 l 132 874 q 104 901 104 874 l 104 986 q 132 1014 104 1014 l 590 1015 m 939 1014 q 967 1042 939 1042 l 1083 1042 q 1111 1014 1111 1042 l 1111 250 q 1083 222 1111 222 l 967 222 q 939 250 939 222 l 939 582 l 757 582 q 729 610 729 582 l 728 697 q 756 725 728 725 l 939 725 l 939 1014 m 178 -32 q 320 30 251 -10 q 447 122 389 69 q 547 235 504 174 q 611 364 589 297 q 644 382 621 389 l 750 350 q 765 335 761 346 q 767 314 769 325 q 745 253 758 283 q 715 194 732 224 q 811 122 760 156 q 916 58 863 88 q 1023 6 969 29 q 1126 -32 1076 -17 q 1144 -45 1142 -37 q 1143 -64 1147 -53 l 1108 -161 q 1096 -174 1106 -172 q 1074 -174 1086 -176 q 965 -133 1024 -158 q 847 -76 907 -108 q 730 -4 788 -43 q 625 76 672 35 q 439 -78 544 -11 q 228 -175 333 -144 q 194 -158 201 -181 l 163 -67 q 178 -32 154 -42 z "},"겄":{"ha":1250,"x_min":75,"x_max":1185,"o":"m 590 1014 q 691 976 653 1014 q 729 875 729 938 q 673 701 729 781 q 531 558 617 621 q 340 451 444 494 q 140 388 236 408 q 107 401 114 381 l 79 492 q 79 513 75 503 q 96 526 83 524 q 273 586 189 549 q 420 668 357 624 q 520 759 483 713 q 557 847 557 806 q 529 875 557 875 l 132 875 q 104 903 104 875 l 104 986 q 132 1014 104 1014 l 590 1014 m 939 1014 q 967 1042 939 1042 l 1083 1042 q 1111 1014 1111 1042 l 1111 433 q 1083 406 1111 406 l 967 406 q 939 433 939 406 l 939 610 l 756 610 q 728 638 728 610 l 728 722 q 756 750 728 750 l 939 750 l 939 1014 m 131 -43 q 211 35 172 -10 q 283 131 250 79 q 343 240 317 183 q 385 353 369 296 q 415 371 392 378 l 515 340 q 533 308 539 333 q 481 167 518 240 q 556 80 515 122 q 639 6 597 38 q 753 157 701 67 q 838 351 806 247 q 868 368 844 375 l 968 338 q 985 306 993 331 q 926 158 965 232 q 1038 50 976 100 q 1158 -35 1099 0 q 1171 -71 1185 -51 l 1113 -158 q 1078 -162 1101 -175 q 962 -81 1022 -129 q 849 31 901 -32 q 761 -77 807 -28 q 668 -162 715 -126 q 632 -165 650 -176 q 517 -79 579 -133 q 404 36 456 -25 q 319 -72 364 -22 q 228 -160 274 -122 q 189 -157 207 -176 l 125 -83 q 131 -43 107 -62 z "},"겅":{"ha":1250,"x_min":75,"x_max":1129,"o":"m 590 1014 q 691 976 653 1014 q 729 875 729 938 q 703 750 729 810 q 634 639 678 690 q 532 544 590 588 q 408 465 474 500 q 275 405 343 431 q 143 364 207 379 q 108 378 117 357 l 78 471 q 79 493 75 482 q 96 507 83 504 q 272 569 188 531 q 419 654 356 608 q 519 750 482 700 q 557 846 557 800 q 529 874 557 874 l 132 874 q 104 901 104 874 l 104 986 q 132 1014 104 1014 l 590 1014 m 939 1014 q 967 1042 939 1042 l 1083 1042 q 1111 1014 1111 1042 l 1111 418 q 1083 390 1111 390 l 967 390 q 939 418 939 390 l 939 603 l 756 603 q 728 631 728 603 l 728 717 q 756 744 728 744 l 939 744 l 939 1014 m 646 -179 q 284 -105 406 -179 q 163 103 163 -31 q 284 309 163 235 q 646 383 406 383 q 1008 309 886 383 q 1129 103 1129 235 q 1008 -105 1129 -31 q 646 -179 886 -179 m 646 -42 q 885 -3 808 -42 q 963 103 963 35 q 885 208 963 169 q 646 247 808 247 q 406 208 483 247 q 329 103 329 169 q 406 -3 329 35 q 646 -42 483 -42 z "},"겆":{"ha":1250,"x_min":75,"x_max":1149,"o":"m 939 1014 q 967 1042 939 1042 l 1083 1042 q 1111 1014 1111 1042 l 1111 440 q 1083 413 1111 413 l 967 413 q 939 440 939 413 l 939 613 l 756 613 q 728 640 728 613 l 728 726 q 756 754 728 754 l 939 754 l 939 1014 m 1083 350 q 1111 322 1111 350 l 1111 240 q 1083 213 1111 213 l 764 213 q 738 165 753 188 q 704 118 722 142 q 903 28 796 65 q 1122 -25 1011 -10 q 1140 -57 1149 -28 l 1115 -144 q 1085 -164 1111 -168 q 840 -102 968 -150 q 603 15 711 -54 q 422 -97 521 -51 q 221 -162 324 -143 q 189 -143 194 -168 l 165 -56 q 185 -24 160 -29 q 308 14 249 -10 q 420 68 368 38 q 513 135 472 99 q 581 213 554 171 l 206 213 q 178 240 178 213 l 178 322 q 206 350 178 350 l 1083 350 m 590 1014 q 691 976 653 1014 q 729 875 729 938 q 673 703 729 782 q 531 563 617 625 q 341 458 444 501 q 142 393 238 414 q 121 393 131 390 q 107 407 111 396 l 79 499 q 79 520 75 510 q 96 533 83 531 q 273 592 189 556 q 420 672 357 629 q 520 760 483 715 q 557 847 557 806 q 529 875 557 875 l 132 875 q 104 903 104 875 l 104 986 q 132 1014 104 1014 l 590 1014 z "},"겉":{"ha":1250,"x_min":76,"x_max":1131,"o":"m 939 1014 q 967 1042 939 1042 l 1083 1042 q 1111 1014 1111 1042 l 1111 467 q 1083 439 1111 439 l 967 439 q 939 467 939 439 l 939 632 l 756 632 q 728 660 728 632 l 728 744 q 756 772 728 772 l 939 772 l 939 1014 m 349 -15 q 376 -43 349 -43 l 1103 -43 q 1131 -71 1131 -43 l 1131 -144 q 1103 -172 1131 -172 l 321 -172 q 220 -134 258 -172 q 182 -33 182 -96 l 182 243 q 220 344 182 306 q 321 382 258 382 l 1082 382 q 1110 354 1110 382 l 1110 281 q 1082 253 1110 253 l 376 253 q 349 225 349 253 l 349 168 l 1063 168 q 1090 140 1090 168 l 1090 72 q 1063 44 1090 44 l 349 44 l 349 -15 m 590 1014 q 691 976 653 1014 q 729 875 729 938 q 703 765 729 817 q 633 667 678 713 q 531 582 589 621 q 406 512 472 543 q 272 458 340 481 q 139 424 203 436 q 118 424 128 421 q 106 438 108 426 l 79 526 q 80 549 76 539 q 97 561 83 558 q 274 616 190 582 q 421 690 358 650 q 520 770 483 729 q 557 847 557 811 q 529 875 557 875 l 132 875 q 104 903 104 875 l 104 986 q 132 1014 104 1014 l 590 1014 z "},"겊":{"ha":1250,"x_min":75,"x_max":1125,"o":"m 939 1014 q 967 1042 939 1042 l 1083 1042 q 1111 1014 1111 1042 l 1111 446 q 1083 418 1111 418 l 967 418 q 939 446 939 418 l 939 624 l 756 624 q 728 651 728 624 l 728 738 q 756 765 728 765 l 939 765 l 939 1014 m 1083 357 q 1111 329 1111 357 l 1111 249 q 1083 221 1111 221 l 940 221 l 940 -32 l 1097 -32 q 1125 -60 1125 -32 l 1125 -137 q 1097 -165 1125 -165 l 185 -165 q 157 -137 157 -165 l 157 -60 q 185 -32 157 -32 l 339 -32 l 339 221 l 194 221 q 167 249 167 221 l 167 329 q 194 357 167 357 l 1083 357 m 590 1014 q 691 976 653 1014 q 729 875 729 938 q 703 761 729 815 q 633 660 678 707 q 531 572 589 613 q 407 500 472 532 q 273 445 342 468 q 140 408 204 422 q 119 408 129 406 q 107 422 110 411 l 79 513 q 79 534 75 524 q 96 547 83 544 q 273 605 189 569 q 420 681 357 640 q 520 766 483 722 q 557 847 557 810 q 529 875 557 875 l 132 875 q 104 903 104 875 l 104 986 q 132 1014 104 1014 l 590 1014 m 775 -32 l 775 221 l 504 221 l 504 -32 l 775 -32 z "},"겋":{"ha":1250,"x_min":76,"x_max":1135,"o":"m 939 1014 q 967 1042 939 1042 l 1083 1042 q 1111 1014 1111 1042 l 1111 481 q 1083 453 1111 453 l 967 453 q 939 481 939 453 l 939 636 l 756 636 q 728 664 728 636 l 728 749 q 756 776 728 776 l 939 776 l 939 1014 m 643 -185 q 431 -172 517 -185 q 291 -135 344 -160 q 214 -76 238 -111 q 190 4 190 -40 q 214 84 190 49 q 291 144 238 119 q 431 181 344 168 q 643 193 517 193 q 856 181 769 193 q 995 144 942 168 q 1072 84 1049 119 q 1096 4 1096 49 q 1072 -76 1096 -40 q 995 -135 1049 -111 q 856 -172 942 -160 q 643 -185 769 -185 m 643 -57 q 777 -52 724 -57 q 863 -39 831 -47 q 910 -19 896 -31 q 924 4 924 -8 q 910 29 924 18 q 863 49 896 40 q 777 61 831 57 q 643 65 724 65 q 509 61 563 65 q 423 49 456 57 q 376 29 390 40 q 363 4 363 18 q 376 -21 363 -10 q 423 -40 390 -32 q 509 -53 456 -49 q 643 -57 563 -57 m 179 247 q 151 275 151 247 l 151 353 q 179 381 151 381 l 558 381 l 558 451 q 586 479 558 479 l 703 479 q 731 451 731 479 l 731 381 l 1107 381 q 1135 353 1135 381 l 1135 275 q 1107 247 1135 247 l 179 247 m 590 1014 q 691 976 653 1014 q 729 875 729 938 q 673 716 729 789 q 530 586 617 643 q 339 489 443 529 q 139 431 235 449 q 118 431 128 428 q 106 444 108 433 l 79 533 q 80 556 76 546 q 97 568 83 565 q 274 622 190 589 q 421 694 358 656 q 520 774 483 733 q 557 847 557 814 q 529 875 557 875 l 132 875 q 104 903 104 875 l 104 986 q 132 1014 104 1014 l 590 1014 z "},"게":{"ha":1250,"x_min":81,"x_max":1139,"o":"m 710 1008 q 738 1036 710 1036 l 843 1036 q 871 1008 871 1036 l 871 -125 q 843 -153 871 -153 l 738 -153 q 710 -125 710 -153 l 710 406 l 544 406 q 476 232 515 311 q 392 88 438 153 q 299 -28 347 24 q 201 -117 250 -79 q 178 -124 190 -126 q 160 -111 167 -122 l 96 -19 q 110 25 81 4 q 240 151 178 75 q 348 328 301 226 q 422 556 394 429 q 450 833 450 682 q 422 861 450 861 l 133 861 q 106 889 106 861 l 106 976 q 133 1004 106 1004 l 469 1004 q 570 966 532 1004 q 608 865 608 928 q 579 549 608 692 l 710 549 l 710 1008 m 975 1014 q 1003 1042 975 1042 l 1111 1042 q 1139 1014 1139 1042 l 1139 -139 q 1111 -167 1139 -167 l 1003 -167 q 975 -139 975 -167 l 975 1014 z "},"겐":{"ha":1250,"x_min":85,"x_max":1167,"o":"m 347 -167 q 247 -128 285 -167 q 208 -28 208 -90 l 208 258 q 236 286 208 286 l 353 286 q 381 258 381 286 l 381 1 q 408 -26 381 -26 l 1139 -26 q 1167 -54 1167 -26 l 1167 -139 q 1139 -167 1167 -167 l 347 -167 m 743 171 q 715 199 715 171 l 715 599 l 532 599 q 385 447 474 514 q 190 326 296 379 q 147 339 163 313 l 100 422 q 117 464 85 449 q 262 549 197 503 q 370 645 326 596 q 438 744 414 694 q 461 839 461 794 q 433 867 461 867 l 140 867 q 113 894 113 867 l 113 978 q 140 1006 113 1006 l 478 1006 q 578 967 540 1006 q 617 867 617 929 q 599 738 617 796 l 715 738 l 715 1008 q 743 1036 715 1036 l 844 1036 q 872 1008 872 1036 l 872 199 q 844 171 872 171 l 743 171 m 1007 149 q 979 176 979 149 l 979 1014 q 1007 1042 979 1042 l 1111 1042 q 1139 1014 1139 1042 l 1139 176 q 1111 149 1139 149 l 1007 149 z "}}}
